solid exported
	facet normal -0.17106279308839506 0.9846046860264119 -0.03593234024702434
		outer loop
			vertex -7.289018630981445 0 -3.5113394260406494
			vertex -7.527176856994629 0 -2.3775415420532227
			vertex -5.894885540008545 0.22221191227436066 -4.059408664703369
		endloop
	endfacet
	facet normal -0.15380193990800597 0.9879239397618718 -0.018741732201578126
		outer loop
			vertex -5.894885540008545 0.22221191227436066 -4.059408664703369
			vertex -7.527176856994629 0 -2.3775415420532227
			vertex -4.9899582862854 0.4004073739051819 -2.092461585998535
		endloop
	endfacet
	facet normal -0.15351860130546824 0.987917157288887 -0.021253926400961708
		outer loop
			vertex -7.527176856994629 0 -2.3775415420532227
			vertex -7.884033679962158 0 0.20006032288074493
			vertex -4.9899582862854 0.4004073739051819 -2.092461585998535
		endloop
	endfacet
	facet normal -0.009357502721751725 0.9869799213965045 0.16057108053121616
		outer loop
			vertex -4.9899582862854 0.4004073739051819 -2.092461585998535
			vertex -7.884033679962158 0 0.20006032288074493
			vertex -5.618612289428711 0 0.3320809006690979
		endloop
	endfacet
	facet normal 0 1 0
		outer loop
			vertex -7.884033679962158 0 0.20006032288074493
			vertex -7.349386692047119 0 2.254845142364502
			vertex -5.618612289428711 0 0.3320809006690979
		endloop
	endfacet
	facet normal 0 1 0
		outer loop
			vertex -5.618612289428711 0 0.3320809006690979
			vertex -7.349386692047119 0 2.254845142364502
			vertex -6.093867778778076 0 2.4967527389526367
		endloop
	endfacet
	facet normal -0.3534509146968432 0.9322358914984101 0.07751576292683689
		outer loop
			vertex -5.701221942901611 0.37542250752449036 -5.018927574157715
			vertex -5.894885540008545 0.22221191227436066 -4.059408664703369
			vertex -3.175806999206543 1.4009790420532227 -5.837475776672363
		endloop
	endfacet
	facet normal -0.6159028694049639 0.3784167900226745 -0.6909879799878339
		outer loop
			vertex -3.175806999206543 1.4009790420532227 -5.837475776672363
			vertex -5.894885540008545 0.22221191227436066 -4.059408664703369
			vertex -3.106166124343872 4.833189964294434 -4.0199127197265625
		endloop
	endfacet
	facet normal -0.8094855319931722 0.4867645695963818 0.32831909368688883
		outer loop
			vertex -5.894885540008545 0.22221191227436066 -4.059408664703369
			vertex -4.9899582862854 0.4004073739051819 -2.092461585998535
			vertex -3.106166124343872 4.833189964294434 -4.0199127197265625
		endloop
	endfacet
	facet normal -0.5755091762117971 0.5192794091601294 0.6317737595993727
		outer loop
			vertex -3.106166124343872 4.833189964294434 -4.0199127197265625
			vertex -4.9899582862854 0.4004073739051819 -2.092461585998535
			vertex -3.802105188369751 1.5030536651611328 -1.9167042970657349
		endloop
	endfacet
	facet normal -0.6750905687307057 0.7357903277010349 -0.053528662158288234
		outer loop
			vertex -4.9899582862854 0.4004073739051819 -2.092461585998535
			vertex -5.618612289428711 0 0.3320809006690979
			vertex -3.802105188369751 1.5030536651611328 -1.9167042970657349
		endloop
	endfacet
	facet normal -0.15988087788366692 0.8754917344048658 0.4560179030212606
		outer loop
			vertex -3.802105188369751 1.5030536651611328 -1.9167042970657349
			vertex -5.618612289428711 0 0.3320809006690979
			vertex -4.0837602615356445 0.6278561949729919 -0.33519425988197327
		endloop
	endfacet
	facet normal -0.4103789435316399 0.907453186913395 -0.09009903588040233
		outer loop
			vertex -5.618612289428711 0 0.3320809006690979
			vertex -6.093867778778076 0 2.4967527389526367
			vertex -4.0837602615356445 0.6278561949729919 -0.33519425988197327
		endloop
	endfacet
	facet normal -0.004527690769372006 0.9769582276687434 0.21338257053153373
		outer loop
			vertex -4.0837602615356445 0.6278561949729919 -0.33519425988197327
			vertex -6.093867778778076 0 2.4967527389526367
			vertex -4.007477760314941 0.11736559867858887 2.0036723613739014
		endloop
	endfacet
	facet normal -0.04944465118962319 0.9983724171545137 0.028420822187089505
		outer loop
			vertex -6.093867778778076 0 2.4967527389526367
			vertex -5.33017110824585 0 3.825381278991699
			vertex -4.007477760314941 0.11736559867858887 2.0036723613739014
		endloop
	endfacet
	facet normal -0.01699383593207934 0.9985029580023771 0.051990887670985926
		outer loop
			vertex -4.007477760314941 0.11736559867858887 2.0036723613739014
			vertex -5.33017110824585 0 3.825381278991699
			vertex -4.057994842529297 0 4.241207122802734
		endloop
	endfacet
	facet normal 0 1 0
		outer loop
			vertex -5.33017110824585 0 3.825381278991699
			vertex -5.938566207885742 0 5.986788272857666
			vertex -4.057994842529297 0 4.241207122802734
		endloop
	endfacet
	facet normal 0 1 0
		outer loop
			vertex -4.057994842529297 0 4.241207122802734
			vertex -5.938566207885742 0 5.986788272857666
			vertex -3.4733197689056396 0 6.320497035980225
		endloop
	endfacet
	facet normal -0.001837763753890128 0.8589974519101883 -0.5119765621941973
		outer loop
			vertex -3.054361343383789 0.5368671417236328 -7.287724018096924
			vertex -3.175806999206543 1.4009790420532227 -5.837475776672363
			vertex -1.2482450008392334 0.07413818687200546 -8.070576667785645
		endloop
	endfacet
	facet normal 0.25768882454034875 0.9119106595869088 -0.31939852635662325
		outer loop
			vertex -1.2482450008392334 0.07413818687200546 -8.070576667785645
			vertex -3.175806999206543 1.4009790420532227 -5.837475776672363
			vertex -1.7599223852157593 1.1379334926605225 -5.446166515350342
		endloop
	endfacet
	facet normal 0.3142074969902131 0.4393017376579125 -0.8415982605292648
		outer loop
			vertex -3.175806999206543 1.4009790420532227 -5.837475776672363
			vertex -3.106166124343872 4.833189964294434 -4.0199127197265625
			vertex -1.7599223852157593 1.1379334926605225 -5.446166515350342
		endloop
	endfacet
	facet normal 0.6917107706010304 0.4652028589817962 -0.5523789549120169
		outer loop
			vertex -1.7599223852157593 1.1379334926605225 -5.446166515350342
			vertex -3.106166124343872 4.833189964294434 -4.0199127197265625
			vertex -2.080548048019409 4.2035603523254395 -3.265855073928833
		endloop
	endfacet
	facet normal -0.2450858472325613 0.5537980030441506 0.7957642234422257
		outer loop
			vertex -3.106166124343872 4.833189964294434 -4.0199127197265625
			vertex -3.802105188369751 1.5030536651611328 -1.9167042970657349
			vertex -2.080548048019409 4.2035603523254395 -3.265855073928833
		endloop
	endfacet
	facet normal -0.8310508597531794 0.2938716889111032 -0.4722222982452623
		outer loop
			vertex -2.080548048019409 4.2035603523254395 -3.265855073928833
			vertex -3.802105188369751 1.5030536651611328 -1.9167042970657349
			vertex -1.6911430358886719 8.524283409118652 -1.2623012065887451
		endloop
	endfacet
	facet normal -0.9573247921713356 0.28881750449432264 -0.010662616554167838
		outer loop
			vertex -3.802105188369751 1.5030536651611328 -1.9167042970657349
			vertex -4.0837602615356445 0.6278561949729919 -0.33519425988197327
			vertex -1.6911430358886719 8.524283409118652 -1.2623012065887451
		endloop
	endfacet
	facet normal -0.7068588876959112 0.28993081885349486 0.6452058843223931
		outer loop
			vertex -1.6911430358886719 8.524283409118652 -1.2623012065887451
			vertex -4.0837602615356445 0.6278561949729919 -0.33519425988197327
			vertex -1.2204911708831787 6.171429634094238 0.310606449842453
		endloop
	endfacet
	facet normal -0.887328065991666 0.44365496814521577 0.12577429206144397
		outer loop
			vertex -4.0837602615356445 0.6278561949729919 -0.33519425988197327
			vertex -4.007477760314941 0.11736559867858887 2.0036723613739014
			vertex -1.2204911708831787 6.171429634094238 0.310606449842453
		endloop
	endfacet
	facet normal -0.6022089341502064 0.45975009572046466 0.6526670277520505
		outer loop
			vertex -1.2204911708831787 6.171429634094238 0.310606449842453
			vertex -4.007477760314941 0.11736559867858887 2.0036723613739014
			vertex -2.1459240913391113 1.8815429210662842 2.478590726852417
		endloop
	endfacet
	facet normal -0.6906906267266417 0.7228058480022106 0.022319593315385685
		outer loop
			vertex -4.007477760314941 0.11736559867858887 2.0036723613739014
			vertex -4.057994842529297 0 4.241207122802734
			vertex -2.1459240913391113 1.8815429210662842 2.478590726852417
		endloop
	endfacet
	facet normal -0.04602067853613914 0.7074517125602382 0.7052617751889433
		outer loop
			vertex -2.1459240913391113 1.8815429210662842 2.478590726852417
			vertex -4.057994842529297 0 4.241207122802734
			vertex -2.1438846588134766 0.020549673587083817 4.345495700836182
		endloop
	endfacet
	facet normal -0.010902226219666479 0.9999358697402746 0.0030655945942162383
		outer loop
			vertex -4.057994842529297 0 4.241207122802734
			vertex -3.4733197689056396 0 6.320497035980225
			vertex -2.1438846588134766 0.020549673587083817 4.345495700836182
		endloop
	endfacet
	facet normal 0.023730746557268353 0.9993704799564672 0.026372247902204698
		outer loop
			vertex -2.1438846588134766 0.020549673587083817 4.345495700836182
			vertex -3.4733197689056396 0 6.320497035980225
			vertex -2.2849111557006836 0 5.251121997833252
		endloop
	endfacet
	facet normal 0.27384028299247837 0.9087402948489075 -0.3149644042245409
		outer loop
			vertex -1.2482450008392334 0.07413818687200546 -8.070576667785645
			vertex -1.7599223852157593 1.1379334926605225 -5.446166515350342
			vertex -0.21972638368606567 0.06550965458154678 -7.201244354248047
		endloop
	endfacet
	facet normal 0.5379811404491555 0.8418940003716731 -0.042317663678509525
		outer loop
			vertex -0.21972638368606567 0.06550965458154678 -7.201244354248047
			vertex -1.7599223852157593 1.1379334926605225 -5.446166515350342
			vertex -0.34278440475463867 0.2525251805782318 -5.04506778717041
		endloop
	endfacet
	facet normal 0.5206969389394523 0.5303064707826198 -0.6690663231886407
		outer loop
			vertex -1.7599223852157593 1.1379334926605225 -5.446166515350342
			vertex -2.080548048019409 4.2035603523254395 -3.265855073928833
			vertex -0.34278440475463867 0.2525251805782318 -5.04506778717041
		endloop
	endfacet
	facet normal 0.5655832226386465 0.5323802330808285 -0.6298308548288867
		outer loop
			vertex -0.34278440475463867 0.2525251805782318 -5.04506778717041
			vertex -2.080548048019409 4.2035603523254395 -3.265855073928833
			vertex -0.06539461761713028 1.3810224533081055 -3.84208345413208
		endloop
	endfacet
	facet normal 0.2838694459347661 0.3822002398349209 -0.8793981546119015
		outer loop
			vertex -2.080548048019409 4.2035603523254395 -3.265855073928833
			vertex -1.6911430358886719 8.524283409118652 -1.2623012065887451
			vertex -0.06539461761713028 1.3810224533081055 -3.84208345413208
		endloop
	endfacet
	facet normal 0.22877792212211748 0.37630912553754886 -0.8978040456506373
		outer loop
			vertex -0.06539461761713028 1.3810224533081055 -3.84208345413208
			vertex -1.6911430358886719 8.524283409118652 -1.2623012065887451
			vertex 0.39300432801246643 5.089659690856934 -2.1708216667175293
		endloop
	endfacet
	facet normal 0.8357674815300173 0.4107660833054103 0.3643678657934933
		outer loop
			vertex -1.6911430358886719 8.524283409118652 -1.2623012065887451
			vertex -1.2204911708831787 6.171429634094238 0.310606449842453
			vertex 0.39300432801246643 5.089659690856934 -2.1708216667175293
		endloop
	endfacet
	facet normal -0.3774135144252834 0.7335600028579417 -0.5651979841933382
		outer loop
			vertex 0.39300432801246643 5.089659690856934 -2.1708216667175293
			vertex -1.2204911708831787 6.171429634094238 0.310606449842453
			vertex -0.4457508623600006 6.483783721923828 0.1986686885356903
		endloop
	endfacet
	facet normal -0.05751155986583518 0.46015274929558314 0.8859750943438053
		outer loop
			vertex -1.2204911708831787 6.171429634094238 0.310606449842453
			vertex -2.1459240913391113 1.8815429210662842 2.478590726852417
			vertex -0.4457508623600006 6.483783721923828 0.1986686885356903
		endloop
	endfacet
	facet normal -0.6544702923349586 0.515693330421032 0.5529276855161608
		outer loop
			vertex -0.4457508623600006 6.483783721923828 0.1986686885356903
			vertex -2.1459240913391113 1.8815429210662842 2.478590726852417
			vertex -0.442240834236145 4.789175987243652 1.7833155393600464
		endloop
	endfacet
	facet normal -0.6768720377322486 0.5209567161228996 0.520046482982664
		outer loop
			vertex -2.1459240913391113 1.8815429210662842 2.478590726852417
			vertex -2.1438846588134766 0.020549673587083817 4.345495700836182
			vertex -0.442240834236145 4.789175987243652 1.7833155393600464
		endloop
	endfacet
	facet normal -0.014114146004701454 0.47716245938776936 0.8787017572723829
		outer loop
			vertex -0.442240834236145 4.789175987243652 1.7833155393600464
			vertex -2.1438846588134766 0.020549673587083817 4.345495700836182
			vertex 0.644701361656189 1.4486260414123535 3.614797353744507
		endloop
	endfacet
	facet normal -0.4660613968518334 0.8831912444393781 -0.052535703194500745
		outer loop
			vertex -2.1438846588134766 0.020549673587083817 4.345495700836182
			vertex -2.2849111557006836 0 5.251121997833252
			vertex 0.644701361656189 1.4486260414123535 3.614797353744507
		endloop
	endfacet
	facet normal -0.13954370589286808 0.852064792073959 0.5044929575857783
		outer loop
			vertex 0.644701361656189 1.4486260414123535 3.614797353744507
			vertex -2.2849111557006836 0 5.251121997833252
			vertex 0.15649564564228058 0 5.926419734954834
		endloop
	endfacet
	facet normal 0 1 0
		outer loop
			vertex -2.2849111557006836 0 5.251121997833252
			vertex -1.3726458549499512 0 7.318618297576904
			vertex 0.15649564564228058 0 5.926419734954834
		endloop
	endfacet
	facet normal 0 1 0
		outer loop
			vertex 0.15649564564228058 0 5.926419734954834
			vertex -1.3726458549499512 0 7.318618297576904
			vertex -0.1291782259941101 0 7.314579010009766
		endloop
	endfacet
	facet normal 0.029522289169372787 0.995969025786611 -0.08470026042385607
		outer loop
			vertex -0.21972638368606567 0.06550965458154678 -7.201244354248047
			vertex -0.34278440475463867 0.2525251805782318 -5.04506778717041
			vertex 2.284430742263794 0 -7.098731517791748
		endloop
	endfacet
	facet normal 0.10121094147759116 0.9948393046053212 0.007148659847881019
		outer loop
			vertex 2.284430742263794 0 -7.098731517791748
			vertex -0.34278440475463867 0.2525251805782318 -5.04506778717041
			vertex 2.2222394943237305 0 -6.218225955963135
		endloop
	endfacet
	facet normal -0.22018157463514199 0.7362478666134159 -0.6398899538970614
		outer loop
			vertex -0.34278440475463867 0.2525251805782318 -5.04506778717041
			vertex -0.06539461761713028 1.3810224533081055 -3.84208345413208
			vertex 2.2222394943237305 0 -6.218225955963135
		endloop
	endfacet
	facet normal 0.505861171449324 0.8624969015780511 -0.014267795491220321
		outer loop
			vertex 2.2222394943237305 0 -6.218225955963135
			vertex -0.06539461761713028 1.3810224533081055 -3.84208345413208
			vertex 2.2808027267456055 0 -4.141880989074707
		endloop
	endfacet
	facet normal 0.1167209238105585 0.3960143015531503 -0.9107957503799525
		outer loop
			vertex -0.06539461761713028 1.3810224533081055 -3.84208345413208
			vertex 0.39300432801246643 5.089659690856934 -2.1708216667175293
			vertex 2.2808027267456055 0 -4.141880989074707
		endloop
	endfacet
	facet normal 0.9181567830740598 0.3817029188865802 -0.1062591332947854
		outer loop
			vertex 2.2808027267456055 0 -4.141880989074707
			vertex 0.39300432801246643 5.089659690856934 -2.1708216667175293
			vertex 2.123479127883911 1.1857277154922485 -1.2419137954711914
		endloop
	endfacet
	facet normal 0.9050664990429382 0.41878627849282424 0.07397759969267742
		outer loop
			vertex 0.39300432801246643 5.089659690856934 -2.1708216667175293
			vertex -0.4457508623600006 6.483783721923828 0.1986686885356903
			vertex 2.123479127883911 1.1857277154922485 -1.2419137954711914
		endloop
	endfacet
	facet normal 0.9052134039216027 0.41767976843001836 0.0783090314389859
		outer loop
			vertex 2.123479127883911 1.1857277154922485 -1.2419137954711914
			vertex -0.4457508623600006 6.483783721923828 0.1986686885356903
			vertex 1.9852806329727173 1.3186309337615967 -0.3532788157463074
		endloop
	endfacet
	facet normal 0.8509986564303924 0.35963524544563574 0.3827058622322431
		outer loop
			vertex -0.4457508623600006 6.483783721923828 0.1986686885356903
			vertex -0.442240834236145 4.789175987243652 1.7833155393600464
			vertex 1.9852806329727173 1.3186309337615967 -0.3532788157463074
		endloop
	endfacet
	facet normal 0.8165295671236816 0.5772189723512847 -0.009885543512632955
		outer loop
			vertex 1.9852806329727173 1.3186309337615967 -0.3532788157463074
			vertex -0.442240834236145 4.789175987243652 1.7833155393600464
			vertex 2.130037307739258 1.149953007698059 1.7542437314987183
		endloop
	endfacet
	facet normal 0.7138985299607213 0.500687492855212 0.48955175765008063
		outer loop
			vertex -0.442240834236145 4.789175987243652 1.7833155393600464
			vertex 0.644701361656189 1.4486260414123535 3.614797353744507
			vertex 2.130037307739258 1.149953007698059 1.7542437314987183
		endloop
	endfacet
	facet normal 0.3793649604813467 0.9119209419412754 0.15646859879197358
		outer loop
			vertex 2.130037307739258 1.149953007698059 1.7542437314987183
			vertex 0.644701361656189 1.4486260414123535 3.614797353744507
			vertex 1.8806654214859009 0.8659881949424744 4.013843536376953
		endloop
	endfacet
	facet normal 0.20393649198241262 0.8095965529484068 0.5504210467378268
		outer loop
			vertex 0.644701361656189 1.4486260414123535 3.614797353744507
			vertex 0.15649564564228058 0 5.926419734954834
			vertex 1.8806654214859009 0.8659881949424744 4.013843536376953
		endloop
	endfacet
	facet normal -0.09893049430672902 0.9369852925912584 0.3350691253516209
		outer loop
			vertex 1.8806654214859009 0.8659881949424744 4.013843536376953
			vertex 0.15649564564228058 0 5.926419734954834
			vertex 1.6937607526779175 0 6.380303382873535
		endloop
	endfacet
	facet normal 0 1 0
		outer loop
			vertex 0.15649564564228058 0 5.926419734954834
			vertex -0.1291782259941101 0 7.314579010009766
			vertex 1.6937607526779175 0 6.380303382873535
		endloop
	endfacet
	facet normal 0 1 0
		outer loop
			vertex 1.6937607526779175 0 6.380303382873535
			vertex -0.1291782259941101 0 7.314579010009766
			vertex 2.28237247467041 0 8.29944133758545
		endloop
	endfacet
	facet normal 0 1 0
		outer loop
			vertex 2.2222394943237305 0 -6.218225955963135
			vertex 2.2808027267456055 0 -4.141880989074707
			vertex 3.8940610885620117 0 -5.5630950927734375
		endloop
	endfacet
	facet normal 0 1 0
		outer loop
			vertex 3.8940610885620117 0 -5.5630950927734375
			vertex 2.2808027267456055 0 -4.141880989074707
			vertex 3.6545939445495605 0 -3.721008539199829
		endloop
	endfacet
	facet normal 0.11357580272137624 0.9217705063989816 -0.37072856724180336
		outer loop
			vertex 2.2808027267456055 0 -4.141880989074707
			vertex 2.123479127883911 1.1857277154922485 -1.2419137954711914
			vertex 3.6545939445495605 0 -3.721008539199829
		endloop
	endfacet
	facet normal 0.670674034765738 0.7392701986622464 0.06062930364871948
		outer loop
			vertex 3.6545939445495605 0 -3.721008539199829
			vertex 2.123479127883911 1.1857277154922485 -1.2419137954711914
			vertex 3.446932554244995 0 -1.423883318901062
		endloop
	endfacet
	facet normal 0.6666757565307437 0.7453071798896626 -0.007787378190311924
		outer loop
			vertex 2.123479127883911 1.1857277154922485 -1.2419137954711914
			vertex 1.9852806329727173 1.3186309337615967 -0.3532788157463074
			vertex 3.446932554244995 0 -1.423883318901062
		endloop
	endfacet
	facet normal 0.6211347646273981 0.7762211689989656 -0.10803842357766016
		outer loop
			vertex 3.446932554244995 0 -1.423883318901062
			vertex 1.9852806329727173 1.3186309337615967 -0.3532788157463074
			vertex 3.663949728012085 0 -0.17620766162872314
		endloop
	endfacet
	facet normal 0.616245583507064 0.7872823907005542 0.020683764184941875
		outer loop
			vertex 1.9852806329727173 1.3186309337615967 -0.3532788157463074
			vertex 2.130037307739258 1.149953007698059 1.7542437314987183
			vertex 3.663949728012085 0 -0.17620766162872314
		endloop
	endfacet
	facet normal 0.5685562724219108 0.821777404751093 -0.03775794128737362
		outer loop
			vertex 3.663949728012085 0 -0.17620766162872314
			vertex 2.130037307739258 1.149953007698059 1.7542437314987183
			vertex 3.2696633338928223 0.36994126439094543 1.9381917715072632
		endloop
	endfacet
	facet normal 0.5391423632633677 0.8262251775700646 0.16333238528873031
		outer loop
			vertex 2.130037307739258 1.149953007698059 1.7542437314987183
			vertex 1.8806654214859009 0.8659881949424744 4.013843536376953
			vertex 3.2696633338928223 0.36994126439094543 1.9381917715072632
		endloop
	endfacet
	facet normal 0.3455289903382998 0.938382226065783 0.0069652451228180015
		outer loop
			vertex 3.2696633338928223 0.36994126439094543 1.9381917715072632
			vertex 1.8806654214859009 0.8659881949424744 4.013843536376953
			vertex 4.232517242431641 0 4.013117790222168
		endloop
	endfacet
	facet normal 0.324086437185804 0.8798630628595019 0.3475758504955545
		outer loop
			vertex 1.8806654214859009 0.8659881949424744 4.013843536376953
			vertex 1.6937607526779175 0 6.380303382873535
			vertex 4.232517242431641 0 4.013117790222168
		endloop
	endfacet
	facet normal 0 1 0
		outer loop
			vertex 4.232517242431641 0 4.013117790222168
			vertex 1.6937607526779175 0 6.380303382873535
			vertex 4.271055221557617 0 5.7937774658203125
		endloop
	endfacet
	facet normal 0 1 0
		outer loop
			vertex 1.6937607526779175 0 6.380303382873535
			vertex 2.28237247467041 0 8.29944133758545
			vertex 4.271055221557617 0 5.7937774658203125
		endloop
	endfacet
	facet normal 0 1 0
		outer loop
			vertex 4.271055221557617 0 5.7937774658203125
			vertex 2.28237247467041 0 8.29944133758545
			vertex 3.437950372695923 0 7.217916011810303
		endloop
	endfacet
	facet normal 0 1 0
		outer loop
			vertex 3.8940610885620117 0 -5.5630950927734375
			vertex 3.6545939445495605 0 -3.721008539199829
			vertex 6.056219100952148 0 -5.322474002838135
		endloop
	endfacet
	facet normal 0 1 0
		outer loop
			vertex 6.056219100952148 0 -5.322474002838135
			vertex 3.6545939445495605 0 -3.721008539199829
			vertex 5.676364421844482 0 -3.1928811073303223
		endloop
	endfacet
	facet normal 0 1 0
		outer loop
			vertex 3.6545939445495605 0 -3.721008539199829
			vertex 3.446932554244995 0 -1.423883318901062
			vertex 5.676364421844482 0 -3.1928811073303223
		endloop
	endfacet
	facet normal 0 1 0
		outer loop
			vertex 5.676364421844482 0 -3.1928811073303223
			vertex 3.446932554244995 0 -1.423883318901062
			vertex 5.566781044006348 0 -1.2297767400741577
		endloop
	endfacet
	facet normal 0 1 0
		outer loop
			vertex 3.446932554244995 0 -1.423883318901062
			vertex 3.663949728012085 0 -0.17620766162872314
			vertex 5.566781044006348 0 -1.2297767400741577
		endloop
	endfacet
	facet normal 0 1 0
		outer loop
			vertex 5.566781044006348 0 -1.2297767400741577
			vertex 3.663949728012085 0 -0.17620766162872314
			vertex 5.4492082595825195 0 0.31698599457740784
		endloop
	endfacet
	facet normal 0.04529706377987025 0.9854254619856273 -0.1639659564767496
		outer loop
			vertex 3.663949728012085 0 -0.17620766162872314
			vertex 3.2696633338928223 0.36994126439094543 1.9381917715072632
			vertex 5.4492082595825195 0 0.31698599457740784
		endloop
	endfacet
	facet normal 0.16196994546995488 0.9867678130421904 -0.007417540589209943
		outer loop
			vertex 5.4492082595825195 0 0.31698599457740784
			vertex 3.2696633338928223 0.36994126439094543 1.9381917715072632
			vertex 5.525723934173584 0 1.9877877235412598
		endloop
	endfacet
	facet normal 0.15881030630948037 0.9820879378098137 0.10140300300462812
		outer loop
			vertex 3.2696633338928223 0.36994126439094543 1.9381917715072632
			vertex 4.232517242431641 0 4.013117790222168
			vertex 5.525723934173584 0 1.9877877235412598
		endloop
	endfacet
	facet normal 0 1 0
		outer loop
			vertex 5.525723934173584 0 1.9877877235412598
			vertex 4.232517242431641 0 4.013117790222168
			vertex 6.189508438110352 0 3.9976186752319336
		endloop
	endfacet
	facet normal 0 1 0
		outer loop
			vertex 4.232517242431641 0 4.013117790222168
			vertex 4.271055221557617 0 5.7937774658203125
			vertex 6.189508438110352 0 3.9976186752319336
		endloop
	endfacet
	facet normal 0 1 0
		outer loop
			vertex 6.189508438110352 0 3.9976186752319336
			vertex 4.271055221557617 0 5.7937774658203125
			vertex 5.421719551086426 0 5.451009273529053
		endloop
	endfacet
	facet normal 0 1 0
		outer loop
			vertex 4.271055221557617 0 5.7937774658203125
			vertex 3.437950372695923 0 7.217916011810303
			vertex 5.421719551086426 0 5.451009273529053
		endloop
	endfacet
	facet normal 0 1 0
		outer loop
			vertex 5.676364421844482 0 -3.1928811073303223
			vertex 5.566781044006348 0 -1.2297767400741577
			vertex 7.421664714813232 0 -4.052568435668945
		endloop
	endfacet
	facet normal 0 1 0
		outer loop
			vertex 7.421664714813232 0 -4.052568435668945
			vertex 5.566781044006348 0 -1.2297767400741577
			vertex 7.5720720291137695 0 -1.7171674966812134
		endloop
	endfacet
	facet normal 0 1 0
		outer loop
			vertex 5.566781044006348 0 -1.2297767400741577
			vertex 5.4492082595825195 0 0.31698599457740784
			vertex 7.5720720291137695 0 -1.7171674966812134
		endloop
	endfacet
	facet normal 0 1 0
		outer loop
			vertex 7.5720720291137695 0 -1.7171674966812134
			vertex 5.4492082595825195 0 0.31698599457740784
			vertex 7.387232780456543 0 -0.44012871384620667
		endloop
	endfacet
	facet normal 0 1 0
		outer loop
			vertex 5.4492082595825195 0 0.31698599457740784
			vertex 5.525723934173584 0 1.9877877235412598
			vertex 7.387232780456543 0 -0.44012871384620667
		endloop
	endfacet
	facet normal 0 1 0
		outer loop
			vertex 7.387232780456543 0 -0.44012871384620667
			vertex 5.525723934173584 0 1.9877877235412598
			vertex 7.709256649017334 0 1.897339105606079
		endloop
	endfacet
	facet normal 0 1 0
		outer loop
			vertex 5.525723934173584 0 1.9877877235412598
			vertex 6.189508438110352 0 3.9976186752319336
			vertex 7.709256649017334 0 1.897339105606079
		endloop
	endfacet
	facet normal 0 1 0
		outer loop
			vertex 7.709256649017334 0 1.897339105606079
			vertex 6.189508438110352 0 3.9976186752319336
			vertex 7.533409118652344 0 4.049267292022705
		endloop
	endfacet
	facet normal 0 1 0
		outer loop
			vertex 6.189508438110352 0 3.9976186752319336
			vertex 5.421719551086426 0 5.451009273529053
			vertex 7.533409118652344 0 4.049267292022705
		endloop
	endfacet
	facet normal 0.9786429625486929 0 0.20556739005474084
		outer loop
			vertex -7.289018630981445 0 -3.5113394260406494
			vertex -7.527176856994629 0 -2.3775415420532227
			vertex -7.527176856994629 -1.274999976158142 -2.3775415420532227
		endloop
	endfacet
	facet normal 0.9786429625486929 0 0.20556739005474084
		outer loop
			vertex -7.289018630981445 0 -3.5113394260406494
			vertex -7.527176856994629 -1.274999976158142 -2.3775415420532227
			vertex -7.289018630981445 -1.274999976158142 -3.5113394260406494
		endloop
	endfacet
	facet normal 0 -1 0
		outer loop
			vertex -7.527176856994629 -1.274999976158142 -2.3775415420532227
			vertex -7.289018630981445 -1.274999976158142 -3.5113394260406494
			vertex 0 -1.274999976158142 0
		endloop
	endfacet
	facet normal 0.36586870419069806 0 0.9306664769367271
		outer loop
			vertex -5.894885540008545 0.22221191227436066 -4.059408664703369
			vertex -7.289018630981445 0 -3.5113394260406494
			vertex -7.289018630981445 -1.274999976158142 -3.5113394260406494
		endloop
	endfacet
	facet normal 0.36586870419069806 0 0.9306664769367271
		outer loop
			vertex -5.894885540008545 0.22221191227436066 -4.059408664703369
			vertex -7.289018630981445 -1.274999976158142 -3.5113394260406494
			vertex -5.894885540008545 -1.274999976158142 -4.059408664703369
		endloop
	endfacet
	facet normal 0 -1 0
		outer loop
			vertex -7.289018630981445 -1.274999976158142 -3.5113394260406494
			vertex -5.894885540008545 -1.274999976158142 -4.059408664703369
			vertex 0 -1.274999976158142 0
		endloop
	endfacet
	facet normal 0.9905520540196113 0 0.13713726071906548
		outer loop
			vertex -7.527176856994629 0 -2.3775415420532227
			vertex -7.884033679962158 0 0.20006032288074493
			vertex -7.884033679962158 -1.274999976158142 0.20006032288074493
		endloop
	endfacet
	facet normal 0.9905520540196113 0 0.13713726071906548
		outer loop
			vertex -7.527176856994629 0 -2.3775415420532227
			vertex -7.884033679962158 -1.274999976158142 0.20006032288074493
			vertex -7.527176856994629 -1.274999976158142 -2.3775415420532227
		endloop
	endfacet
	facet normal 0 -1 0
		outer loop
			vertex -7.884033679962158 -1.274999976158142 0.20006032288074493
			vertex -7.527176856994629 -1.274999976158142 -2.3775415420532227
			vertex 0 -1.274999976158142 0
		endloop
	endfacet
	facet normal 0.9677762727736414 0 -0.25181160786659235
		outer loop
			vertex -7.884033679962158 0 0.20006032288074493
			vertex -7.349386692047119 0 2.254845142364502
			vertex -7.349386692047119 -1.274999976158142 2.254845142364502
		endloop
	endfacet
	facet normal 0.9677762727736414 0 -0.25181160786659235
		outer loop
			vertex -7.884033679962158 0 0.20006032288074493
			vertex -7.349386692047119 -1.274999976158142 2.254845142364502
			vertex -7.884033679962158 -1.274999976158142 0.20006032288074493
		endloop
	endfacet
	facet normal 0 -1 0
		outer loop
			vertex -7.349386692047119 -1.274999976158142 2.254845142364502
			vertex -7.884033679962158 -1.274999976158142 0.20006032288074493
			vertex 0 -1.274999976158142 0
		endloop
	endfacet
	facet normal 0.1891955623909553 0 -0.9819394274452832
		outer loop
			vertex -7.349386692047119 0 2.254845142364502
			vertex -6.093867778778076 0 2.4967527389526367
			vertex -6.093867778778076 -1.274999976158142 2.4967527389526367
		endloop
	endfacet
	facet normal 0.1891955623909553 0 -0.9819394274452832
		outer loop
			vertex -7.349386692047119 0 2.254845142364502
			vertex -6.093867778778076 -1.274999976158142 2.4967527389526367
			vertex -7.349386692047119 -1.274999976158142 2.254845142364502
		endloop
	endfacet
	facet normal 0 -1 0
		outer loop
			vertex -6.093867778778076 -1.274999976158142 2.4967527389526367
			vertex -7.349386692047119 -1.274999976158142 2.254845142364502
			vertex 0 -1.274999976158142 0
		endloop
	endfacet
	facet normal 0.9802334198761418 0 0.19784449084552122
		outer loop
			vertex -5.701221942901611 0.37542250752449036 -5.018927574157715
			vertex -5.894885540008545 0.22221191227436066 -4.059408664703369
			vertex -5.894885540008545 -1.274999976158142 -4.059408664703369
		endloop
	endfacet
	facet normal 0.9802334198761419 0 0.19784449084552125
		outer loop
			vertex -5.701221942901611 0.37542250752449036 -5.018927574157715
			vertex -5.894885540008545 -1.274999976158142 -4.059408664703369
			vertex -5.701221942901611 -1.274999976158142 -5.018927574157715
		endloop
	endfacet
	facet normal 0 -1 0
		outer loop
			vertex -5.894885540008545 -1.274999976158142 -4.059408664703369
			vertex -5.701221942901611 -1.274999976158142 -5.018927574157715
			vertex 0 -1.274999976158142 0
		endloop
	endfacet
	facet normal 0.3083324733779667 0 0.9512786583649534
		outer loop
			vertex -3.175806999206543 1.4009790420532227 -5.837475776672363
			vertex -5.701221942901611 0.37542250752449036 -5.018927574157715
			vertex -5.701221942901611 -1.274999976158142 -5.018927574157715
		endloop
	endfacet
	facet normal 0.30833247337796665 0 0.9512786583649533
		outer loop
			vertex -3.175806999206543 1.4009790420532227 -5.837475776672363
			vertex -5.701221942901611 -1.274999976158142 -5.018927574157715
			vertex -3.175806999206543 -1.274999976158142 -5.837475776672363
		endloop
	endfacet
	facet normal 0 -1 0
		outer loop
			vertex -5.701221942901611 -1.274999976158142 -5.018927574157715
			vertex -3.175806999206543 -1.274999976158142 -5.837475776672363
			vertex 0 -1.274999976158142 0
		endloop
	endfacet
	facet normal 0.8669809446899818 0 -0.49834129022635404
		outer loop
			vertex -6.093867778778076 0 2.4967527389526367
			vertex -5.33017110824585 0 3.825381278991699
			vertex -5.33017110824585 -1.274999976158142 3.825381278991699
		endloop
	endfacet
	facet normal 0.8669809446899818 0 -0.49834129022635404
		outer loop
			vertex -6.093867778778076 0 2.4967527389526367
			vertex -5.33017110824585 -1.274999976158142 3.825381278991699
			vertex -6.093867778778076 -1.274999976158142 2.4967527389526367
		endloop
	endfacet
	facet normal 0 -1 0
		outer loop
			vertex -5.33017110824585 -1.274999976158142 3.825381278991699
			vertex -6.093867778778076 -1.274999976158142 2.4967527389526367
			vertex 0 -1.274999976158142 0
		endloop
	endfacet
	facet normal 0.9625929525689338 0 0.2709516703484635
		outer loop
			vertex -5.33017110824585 0 3.825381278991699
			vertex -5.938566207885742 0 5.986788272857666
			vertex -5.938566207885742 -1.274999976158142 5.986788272857666
		endloop
	endfacet
	facet normal 0.9625929525689338 0 0.2709516703484635
		outer loop
			vertex -5.33017110824585 0 3.825381278991699
			vertex -5.938566207885742 -1.274999976158142 5.986788272857666
			vertex -5.33017110824585 -1.274999976158142 3.825381278991699
		endloop
	endfacet
	facet normal 0 -1 0
		outer loop
			vertex -5.938566207885742 -1.274999976158142 5.986788272857666
			vertex -5.33017110824585 -1.274999976158142 3.825381278991699
			vertex 0 -1.274999976158142 0
		endloop
	endfacet
	facet normal 0.13414186282900264 0 -0.990962138851311
		outer loop
			vertex -5.938566207885742 0 5.986788272857666
			vertex -3.4733197689056396 0 6.320497035980225
			vertex -3.4733197689056396 -1.274999976158142 6.320497035980225
		endloop
	endfacet
	facet normal 0.13414186282900264 0 -0.990962138851311
		outer loop
			vertex -5.938566207885742 0 5.986788272857666
			vertex -3.4733197689056396 -1.274999976158142 6.320497035980225
			vertex -5.938566207885742 -1.274999976158142 5.986788272857666
		endloop
	endfacet
	facet normal 0 -1 0
		outer loop
			vertex -3.4733197689056396 -1.274999976158142 6.320497035980225
			vertex -5.938566207885742 -1.274999976158142 5.986788272857666
			vertex 0 -1.274999976158142 0
		endloop
	endfacet
	facet normal 0.9965120324491425 0 0.08344920121893966
		outer loop
			vertex -3.054361343383789 0.5368671417236328 -7.287724018096924
			vertex -3.175806999206543 1.4009790420532227 -5.837475776672363
			vertex -3.175806999206543 -1.274999976158142 -5.837475776672363
		endloop
	endfacet
	facet normal 0.9965120324491425 0 0.08344920121893966
		outer loop
			vertex -3.054361343383789 0.5368671417236328 -7.287724018096924
			vertex -3.175806999206543 -1.274999976158142 -5.837475776672363
			vertex -3.054361343383789 -1.274999976158142 -7.287724018096924
		endloop
	endfacet
	facet normal 0 -1 0
		outer loop
			vertex -3.175806999206543 -1.274999976158142 -5.837475776672363
			vertex -3.054361343383789 -1.274999976158142 -7.287724018096924
			vertex 0 -1.274999976158142 0
		endloop
	endfacet
	facet normal 0.3976939305029959 0 0.9175181402245289
		outer loop
			vertex -1.2482450008392334 0.07413818687200546 -8.070576667785645
			vertex -3.054361343383789 0.5368671417236328 -7.287724018096924
			vertex -3.054361343383789 -1.274999976158142 -7.287724018096924
		endloop
	endfacet
	facet normal 0.39769393050299595 0 0.9175181402245289
		outer loop
			vertex -1.2482450008392334 0.07413818687200546 -8.070576667785645
			vertex -3.054361343383789 -1.274999976158142 -7.287724018096924
			vertex -1.2482450008392334 -1.274999976158142 -8.070576667785645
		endloop
	endfacet
	facet normal 0 -1 0
		outer loop
			vertex -3.054361343383789 -1.274999976158142 -7.287724018096924
			vertex -1.2482450008392334 -1.274999976158142 -8.070576667785645
			vertex 0 -1.274999976158142 0
		endloop
	endfacet
	facet normal -0.668898130499882 0 -0.7433540818572013
		outer loop
			vertex -3.4733197689056396 0 6.320497035980225
			vertex -2.2849111557006836 0 5.251121997833252
			vertex -2.2849111557006836 -1.274999976158142 5.251121997833252
		endloop
	endfacet
	facet normal -0.668898130499882 0 -0.7433540818572013
		outer loop
			vertex -3.4733197689056396 0 6.320497035980225
			vertex -2.2849111557006836 -1.274999976158142 5.251121997833252
			vertex -3.4733197689056396 -1.274999976158142 6.320497035980225
		endloop
	endfacet
	facet normal 0 -1 0
		outer loop
			vertex -2.2849111557006836 -1.274999976158142 5.251121997833252
			vertex -3.4733197689056396 -1.274999976158142 6.320497035980225
			vertex 0 -1.274999976158142 0
		endloop
	endfacet
	facet normal -0.6455298961728235 0 0.7637350019130351
		outer loop
			vertex -0.21972638368606567 0.06550965458154678 -7.201244354248047
			vertex -1.2482450008392334 0.07413818687200546 -8.070576667785645
			vertex -1.2482450008392334 -1.274999976158142 -8.070576667785645
		endloop
	endfacet
	facet normal -0.6455298961728235 0 0.7637350019130352
		outer loop
			vertex -0.21972638368606567 0.06550965458154678 -7.201244354248047
			vertex -1.2482450008392334 -1.274999976158142 -8.070576667785645
			vertex -0.21972638368606567 -1.274999976158142 -7.201244354248047
		endloop
	endfacet
	facet normal 0 -1 0
		outer loop
			vertex -1.2482450008392334 -1.274999976158142 -8.070576667785645
			vertex -0.21972638368606567 -1.274999976158142 -7.201244354248047
			vertex 0 -1.274999976158142 0
		endloop
	endfacet
	facet normal 0.9148958071979677 0 -0.40369005681534864
		outer loop
			vertex -2.2849111557006836 0 5.251121997833252
			vertex -1.3726458549499512 0 7.318618297576904
			vertex -1.3726458549499512 -1.274999976158142 7.318618297576904
		endloop
	endfacet
	facet normal 0.9148958071979677 0 -0.40369005681534864
		outer loop
			vertex -2.2849111557006836 0 5.251121997833252
			vertex -1.3726458549499512 -1.274999976158142 7.318618297576904
			vertex -2.2849111557006836 -1.274999976158142 5.251121997833252
		endloop
	endfacet
	facet normal 0 -1 0
		outer loop
			vertex -1.3726458549499512 -1.274999976158142 7.318618297576904
			vertex -2.2849111557006836 -1.274999976158142 5.251121997833252
			vertex 0 -1.274999976158142 0
		endloop
	endfacet
	facet normal -0.003248388749077105 0 -0.9999947239713491
		outer loop
			vertex -1.3726458549499512 0 7.318618297576904
			vertex -0.1291782259941101 0 7.314579010009766
			vertex -0.1291782259941101 -1.274999976158142 7.314579010009766
		endloop
	endfacet
	facet normal -0.003248388749077105 0 -0.9999947239713491
		outer loop
			vertex -1.3726458549499512 0 7.318618297576904
			vertex -0.1291782259941101 -1.274999976158142 7.314579010009766
			vertex -1.3726458549499512 -1.274999976158142 7.318618297576904
		endloop
	endfacet
	facet normal 0 -1 0
		outer loop
			vertex -0.1291782259941101 -1.274999976158142 7.314579010009766
			vertex -1.3726458549499512 -1.274999976158142 7.318618297576904
			vertex 0 -1.274999976158142 0
		endloop
	endfacet
	facet normal -0.04090280338005381 0 0.9991631301622637
		outer loop
			vertex 2.284430742263794 0 -7.098731517791748
			vertex -0.21972638368606567 0.06550965458154678 -7.201244354248047
			vertex -0.21972638368606567 -1.274999976158142 -7.201244354248047
		endloop
	endfacet
	facet normal -0.04090280338005381 0 0.9991631301622637
		outer loop
			vertex 2.284430742263794 0 -7.098731517791748
			vertex -0.21972638368606567 -1.274999976158142 -7.201244354248047
			vertex 2.284430742263794 -1.274999976158142 -7.098731517791748
		endloop
	endfacet
	facet normal 0 -1 0
		outer loop
			vertex -0.21972638368606567 -1.274999976158142 -7.201244354248047
			vertex 2.284430742263794 -1.274999976158142 -7.098731517791748
			vertex 0 -1.274999976158142 0
		endloop
	endfacet
	facet normal -0.9975149044350636 0 -0.07045576931597503
		outer loop
			vertex 2.2222394943237305 0 -6.218225955963135
			vertex 2.284430742263794 0 -7.098731517791748
			vertex 2.284430742263794 -1.274999976158142 -7.098731517791748
		endloop
	endfacet
	facet normal -0.9975149044350636 0 -0.07045576931597503
		outer loop
			vertex 2.2222394943237305 0 -6.218225955963135
			vertex 2.284430742263794 -1.274999976158142 -7.098731517791748
			vertex 2.2222394943237305 -1.274999976158142 -6.218225955963135
		endloop
	endfacet
	facet normal 0 -1 0
		outer loop
			vertex 2.284430742263794 -1.274999976158142 -7.098731517791748
			vertex 2.2222394943237305 -1.274999976158142 -6.218225955963135
			vertex 0 -1.274999976158142 0
		endloop
	endfacet
	facet normal 0.3780799258788997 0 -0.9257729579369911
		outer loop
			vertex -0.1291782259941101 0 7.314579010009766
			vertex 2.28237247467041 0 8.29944133758545
			vertex 2.28237247467041 -1.274999976158142 8.29944133758545
		endloop
	endfacet
	facet normal 0.3780799258788997 0 -0.9257729579369911
		outer loop
			vertex -0.1291782259941101 0 7.314579010009766
			vertex 2.28237247467041 -1.274999976158142 8.29944133758545
			vertex -0.1291782259941101 -1.274999976158142 7.314579010009766
		endloop
	endfacet
	facet normal 0 -1 0
		outer loop
			vertex 2.28237247467041 -1.274999976158142 8.29944133758545
			vertex -0.1291782259941101 -1.274999976158142 7.314579010009766
			vertex 0 -1.274999976158142 0
		endloop
	endfacet
	facet normal -0.3648531983014116 0 0.9310650587844176
		outer loop
			vertex 3.8940610885620117 0 -5.5630950927734375
			vertex 2.2222394943237305 0 -6.218225955963135
			vertex 2.2222394943237305 -1.274999976158142 -6.218225955963135
		endloop
	endfacet
	facet normal -0.3648531983014116 0 0.9310650587844176
		outer loop
			vertex 3.8940610885620117 0 -5.5630950927734375
			vertex 2.2222394943237305 -1.274999976158142 -6.218225955963135
			vertex 3.8940610885620117 -1.274999976158142 -5.5630950927734375
		endloop
	endfacet
	facet normal 0 -1 0
		outer loop
			vertex 2.2222394943237305 -1.274999976158142 -6.218225955963135
			vertex 3.8940610885620117 -1.274999976158142 -5.5630950927734375
			vertex 0 -1.274999976158142 0
		endloop
	endfacet
	facet normal -0.6833258665381403 0 -0.7301135255012742
		outer loop
			vertex 2.28237247467041 0 8.29944133758545
			vertex 3.437950372695923 0 7.217916011810303
			vertex 3.437950372695923 -1.274999976158142 7.217916011810303
		endloop
	endfacet
	facet normal -0.6833258665381403 0 -0.7301135255012742
		outer loop
			vertex 2.28237247467041 0 8.29944133758545
			vertex 3.437950372695923 -1.274999976158142 7.217916011810303
			vertex 2.28237247467041 -1.274999976158142 8.29944133758545
		endloop
	endfacet
	facet normal 0 -1 0
		outer loop
			vertex 3.437950372695923 -1.274999976158142 7.217916011810303
			vertex 2.28237247467041 -1.274999976158142 8.29944133758545
			vertex 0 -1.274999976158142 0
		endloop
	endfacet
	facet normal -0.11060466144060592 0 0.9938644821441246
		outer loop
			vertex 6.056219100952148 0 -5.322474002838135
			vertex 3.8940610885620117 0 -5.5630950927734375
			vertex 3.8940610885620117 -1.274999976158142 -5.5630950927734375
		endloop
	endfacet
	facet normal -0.11060466144060592 0 0.9938644821441246
		outer loop
			vertex 6.056219100952148 0 -5.322474002838135
			vertex 3.8940610885620117 -1.274999976158142 -5.5630950927734375
			vertex 6.056219100952148 -1.274999976158142 -5.322474002838135
		endloop
	endfacet
	facet normal 0 -1 0
		outer loop
			vertex 3.8940610885620117 -1.274999976158142 -5.5630950927734375
			vertex 6.056219100952148 -1.274999976158142 -5.322474002838135
			vertex 0 -1.274999976158142 0
		endloop
	endfacet
	facet normal -0.9844619373587172 0 -0.17559810332666226
		outer loop
			vertex 5.676364421844482 0 -3.1928811073303223
			vertex 6.056219100952148 0 -5.322474002838135
			vertex 6.056219100952148 -1.274999976158142 -5.322474002838135
		endloop
	endfacet
	facet normal -0.9844619373587172 0 -0.17559810332666226
		outer loop
			vertex 5.676364421844482 0 -3.1928811073303223
			vertex 6.056219100952148 -1.274999976158142 -5.322474002838135
			vertex 5.676364421844482 -1.274999976158142 -3.1928811073303223
		endloop
	endfacet
	facet normal 0 -1 0
		outer loop
			vertex 6.056219100952148 -1.274999976158142 -5.322474002838135
			vertex 5.676364421844482 -1.274999976158142 -3.1928811073303223
			vertex 0 -1.274999976158142 0
		endloop
	endfacet
	facet normal -0.6651113367332998 0 -0.7467442063711263
		outer loop
			vertex 3.437950372695923 0 7.217916011810303
			vertex 5.421719551086426 0 5.451009273529053
			vertex 5.421719551086426 -1.274999976158142 5.451009273529053
		endloop
	endfacet
	facet normal -0.6651113367332998 0 -0.7467442063711263
		outer loop
			vertex 3.437950372695923 0 7.217916011810303
			vertex 5.421719551086426 -1.274999976158142 5.451009273529053
			vertex 3.437950372695923 -1.274999976158142 7.217916011810303
		endloop
	endfacet
	facet normal 0 -1 0
		outer loop
			vertex 5.421719551086426 -1.274999976158142 5.451009273529053
			vertex 3.437950372695923 -1.274999976158142 7.217916011810303
			vertex 0 -1.274999976158142 0
		endloop
	endfacet
	facet normal 0.4418753902953149 0 0.8970764401383884
		outer loop
			vertex 7.421664714813232 0 -4.052568435668945
			vertex 5.676364421844482 0 -3.1928811073303223
			vertex 5.676364421844482 -1.274999976158142 -3.1928811073303223
		endloop
	endfacet
	facet normal 0.4418753902953149 0 0.8970764401383884
		outer loop
			vertex 7.421664714813232 0 -4.052568435668945
			vertex 5.676364421844482 -1.274999976158142 -3.1928811073303223
			vertex 7.421664714813232 -1.274999976158142 -4.052568435668945
		endloop
	endfacet
	facet normal 0 -1 0
		outer loop
			vertex 5.676364421844482 -1.274999976158142 -3.1928811073303223
			vertex 7.421664714813232 -1.274999976158142 -4.052568435668945
			vertex 0 -1.274999976158142 0
		endloop
	endfacet
	facet normal -0.9979325426381648 0 0.06427005790978706
		outer loop
			vertex 7.5720720291137695 0 -1.7171674966812134
			vertex 7.421664714813232 0 -4.052568435668945
			vertex 7.421664714813232 -1.274999976158142 -4.052568435668945
		endloop
	endfacet
	facet normal -0.9979325426381648 0 0.06427005790978706
		outer loop
			vertex 7.5720720291137695 0 -1.7171674966812134
			vertex 7.421664714813232 -1.274999976158142 -4.052568435668945
			vertex 7.5720720291137695 -1.274999976158142 -1.7171674966812134
		endloop
	endfacet
	facet normal 0 -1 0
		outer loop
			vertex 7.421664714813232 -1.274999976158142 -4.052568435668945
			vertex 7.5720720291137695 -1.274999976158142 -1.7171674966812134
			vertex 0 -1.274999976158142 0
		endloop
	endfacet
	facet normal -0.9896868558176793 0 -0.14324778330472027
		outer loop
			vertex 7.387232780456543 0 -0.44012871384620667
			vertex 7.5720720291137695 0 -1.7171674966812134
			vertex 7.5720720291137695 -1.274999976158142 -1.7171674966812134
		endloop
	endfacet
	facet normal -0.9896868558176793 0 -0.14324778330472027
		outer loop
			vertex 7.387232780456543 0 -0.44012871384620667
			vertex 7.5720720291137695 -1.274999976158142 -1.7171674966812134
			vertex 7.387232780456543 -1.274999976158142 -0.44012871384620667
		endloop
	endfacet
	facet normal 0 -1 0
		outer loop
			vertex 7.5720720291137695 -1.274999976158142 -1.7171674966812134
			vertex 7.387232780456543 -1.274999976158142 -0.44012871384620667
			vertex 0 -1.274999976158142 0
		endloop
	endfacet
	facet normal -0.9906432297575724 0 0.13647707256343763
		outer loop
			vertex 7.709256649017334 0 1.897339105606079
			vertex 7.387232780456543 0 -0.44012871384620667
			vertex 7.387232780456543 -1.274999976158142 -0.44012871384620667
		endloop
	endfacet
	facet normal -0.9906432297575724 0 0.13647707256343763
		outer loop
			vertex 7.709256649017334 0 1.897339105606079
			vertex 7.387232780456543 -1.274999976158142 -0.44012871384620667
			vertex 7.709256649017334 -1.274999976158142 1.897339105606079
		endloop
	endfacet
	facet normal 0 -1 0
		outer loop
			vertex 7.387232780456543 -1.274999976158142 -0.44012871384620667
			vertex 7.709256649017334 -1.274999976158142 1.897339105606079
			vertex 0 -1.274999976158142 0
		endloop
	endfacet
	facet normal -0.9966778547629671 0 -0.08144479004264141
		outer loop
			vertex 7.533409118652344 0 4.049267292022705
			vertex 7.709256649017334 0 1.897339105606079
			vertex 7.709256649017334 -1.274999976158142 1.897339105606079
		endloop
	endfacet
	facet normal -0.9966778547629671 0 -0.08144479004264141
		outer loop
			vertex 7.533409118652344 0 4.049267292022705
			vertex 7.709256649017334 -1.274999976158142 1.897339105606079
			vertex 7.533409118652344 -1.274999976158142 4.049267292022705
		endloop
	endfacet
	facet normal 0 -1 0
		outer loop
			vertex 7.709256649017334 -1.274999976158142 1.897339105606079
			vertex 7.533409118652344 -1.274999976158142 4.049267292022705
			vertex 0 -1.274999976158142 0
		endloop
	endfacet
	facet normal -0.5530462867250817 0 -0.8331505294600723
		outer loop
			vertex 5.421719551086426 0 5.451009273529053
			vertex 7.533409118652344 0 4.049267292022705
			vertex 7.533409118652344 -1.274999976158142 4.049267292022705
		endloop
	endfacet
	facet normal -0.5530462867250817 0 -0.8331505294600723
		outer loop
			vertex 5.421719551086426 0 5.451009273529053
			vertex 7.533409118652344 -1.274999976158142 4.049267292022705
			vertex 5.421719551086426 -1.274999976158142 5.451009273529053
		endloop
	endfacet
	facet normal 0 -1 0
		outer loop
			vertex 7.533409118652344 -1.274999976158142 4.049267292022705
			vertex 5.421719551086426 -1.274999976158142 5.451009273529053
			vertex 0 -1.274999976158142 0
		endloop
	endfacet
endsolid exported
