solid exported
	facet normal 0 1 0
		outer loop
			vertex -8.250289916992188 0 -3.712998151779175
			vertex -8.027088165283203 0 -1.4323781728744507
			vertex -6.548087120056152 0 -3.847442150115967
		endloop
	endfacet
	facet normal 0 1 0
		outer loop
			vertex -6.548087120056152 0 -3.847442150115967
			vertex -8.027088165283203 0 -1.4323781728744507
			vertex -6.840958118438721 0 -1.4045419692993164
		endloop
	endfacet
	facet normal 0 1 0
		outer loop
			vertex -8.027088165283203 0 -1.4323781728744507
			vertex -8.606767654418945 0 -0.12542378902435303
			vertex -6.840958118438721 0 -1.4045419692993164
		endloop
	endfacet
	facet normal -0.002207394013737586 0.9999929207084236 -0.0030472848085746074
		outer loop
			vertex -6.840958118438721 0 -1.4045419692993164
			vertex -8.606767654418945 0 -0.12542378902435303
			vertex -6.852962493896484 0.002456994727253914 -0.5895621180534363
		endloop
	endfacet
	facet normal -0.006102869310189603 0.9998235158789495 -0.017767725843191213
		outer loop
			vertex -8.606767654418945 0 -0.12542378902435303
			vertex -8.288372039794922 0.03252473101019859 1.5954415798187256
			vertex -6.852962493896484 0.002456994727253914 -0.5895621180534363
		endloop
	endfacet
	facet normal -0.24208999464184225 0.9548546079085475 -0.17217756023979122
		outer loop
			vertex -6.852962493896484 0.002456994727253914 -0.5895621180534363
			vertex -8.288372039794922 0.03252473101019859 1.5954415798187256
			vertex -6.379478931427002 0.4464232325553894 1.2068251371383667
		endloop
	endfacet
	facet normal -0.214362681280279 0.9766709857032096 -0.012744667898790482
		outer loop
			vertex -8.288372039794922 0.03252473101019859 1.5954415798187256
			vertex -8.519349098205566 0 2.9879376888275146
			vertex -6.379478931427002 0.4464232325553894 1.2068251371383667
		endloop
	endfacet
	facet normal -0.31215270892209485 0.9397358062194286 -0.13948942906800763
		outer loop
			vertex -6.379478931427002 0.4464232325553894 1.2068251371383667
			vertex -8.519349098205566 0 2.9879376888275146
			vertex -6.567494869232178 0.6690074801445007 3.1271145343780518
		endloop
	endfacet
	facet normal 0 1 0
		outer loop
			vertex -6.627931118011475 0 -5.017004489898682
			vertex -6.548087120056152 0 -3.847442150115967
			vertex -4.695515155792236 0 -5.490269660949707
		endloop
	endfacet
	facet normal 0 1 0
		outer loop
			vertex -4.695515155792236 0 -5.490269660949707
			vertex -6.548087120056152 0 -3.847442150115967
			vertex -4.879960536956787 0 -2.987267255783081
		endloop
	endfacet
	facet normal 0 1 0
		outer loop
			vertex -6.548087120056152 0 -3.847442150115967
			vertex -6.840958118438721 0 -1.4045419692993164
			vertex -4.879960536956787 0 -2.987267255783081
		endloop
	endfacet
	facet normal 0 1 0
		outer loop
			vertex -4.879960536956787 0 -2.987267255783081
			vertex -6.840958118438721 0 -1.4045419692993164
			vertex -5.385254859924316 0 -1.6341286897659302
		endloop
	endfacet
	facet normal -0.0004765838386574592 0.9999953207920018 -0.0030217978003211775
		outer loop
			vertex -6.840958118438721 0 -1.4045419692993164
			vertex -6.852962493896484 0.002456994727253914 -0.5895621180534363
			vertex -5.385254859924316 0 -1.6341286897659302
		endloop
	endfacet
	facet normal -0.05819576829989624 0.9947556294497442 -0.0841099888837717
		outer loop
			vertex -5.385254859924316 0 -1.6341286897659302
			vertex -6.852962493896484 0.002456994727253914 -0.5895621180534363
			vertex -5.360723495483398 0.10212212055921555 -0.4433196783065796
		endloop
	endfacet
	facet normal -0.04249394863810251 0.9724657997665161 -0.22913867550811345
		outer loop
			vertex -6.852962493896484 0.002456994727253914 -0.5895621180534363
			vertex -6.379478931427002 0.4464232325553894 1.2068251371383667
			vertex -5.360723495483398 0.10212212055921555 -0.4433196783065796
		endloop
	endfacet
	facet normal -0.28080918470050786 0.8900626284704107 -0.35907481001621333
		outer loop
			vertex -5.360723495483398 0.10212212055921555 -0.4433196783065796
			vertex -6.379478931427002 0.4464232325553894 1.2068251371383667
			vertex -4.956801891326904 1.2562311887741089 2.1015663146972656
		endloop
	endfacet
	facet normal -0.4190539029272893 0.8963207627809873 -0.14492383050801258
		outer loop
			vertex -6.379478931427002 0.4464232325553894 1.2068251371383667
			vertex -6.567494869232178 0.6690074801445007 3.1271145343780518
			vertex -4.956801891326904 1.2562311887741089 2.1015663146972656
		endloop
	endfacet
	facet normal -0.4672402641524228 0.8486679673694214 -0.24788952522409854
		outer loop
			vertex -4.956801891326904 1.2562311887741089 2.1015663146972656
			vertex -6.567494869232178 0.6690074801445007 3.1271145343780518
			vertex -4.605847358703613 1.6738816499710083 2.8699185848236084
		endloop
	endfacet
	facet normal -0.4265267068696274 0.8828991307849492 0.1963774253475489
		outer loop
			vertex -6.567494869232178 0.6690074801445007 3.1271145343780518
			vertex -6.3820672035217285 0.3864120543003082 4.800387859344482
			vertex -4.605847358703613 1.6738816499710083 2.8699185848236084
		endloop
	endfacet
	facet normal -0.3200402448689375 0.8973161468798339 0.3039703508781068
		outer loop
			vertex -4.605847358703613 1.6738816499710083 2.8699185848236084
			vertex -6.3820672035217285 0.3864120543003082 4.800387859344482
			vertex -5.011043071746826 0.7627279758453369 5.13301420211792
		endloop
	endfacet
	facet normal 0 1 0
		outer loop
			vertex -5.216403961181641 0 -6.728122711181641
			vertex -4.695515155792236 0 -5.490269660949707
			vertex -3.1951076984405518 0 -6.841898441314697
		endloop
	endfacet
	facet normal 0 1 0
		outer loop
			vertex -3.1951076984405518 0 -6.841898441314697
			vertex -4.695515155792236 0 -5.490269660949707
			vertex -3.324765920639038 0 -4.658838272094727
		endloop
	endfacet
	facet normal 0 1 0
		outer loop
			vertex -4.695515155792236 0 -5.490269660949707
			vertex -4.879960536956787 0 -2.987267255783081
			vertex -3.324765920639038 0 -4.658838272094727
		endloop
	endfacet
	facet normal 0 1 0
		outer loop
			vertex -3.324765920639038 0 -4.658838272094727
			vertex -4.879960536956787 0 -2.987267255783081
			vertex -2.8974413871765137 0 -3.5100796222686768
		endloop
	endfacet
	facet normal 0 1 0
		outer loop
			vertex -4.879960536956787 0 -2.987267255783081
			vertex -5.385254859924316 0 -1.6341286897659302
			vertex -2.8974413871765137 0 -3.5100796222686768
		endloop
	endfacet
	facet normal 0 1 0
		outer loop
			vertex -2.8974413871765137 0 -3.5100796222686768
			vertex -5.385254859924316 0 -1.6341286897659302
			vertex -3.3437232971191406 0 -1.415476679801941
		endloop
	endfacet
	facet normal 0.009171025477526521 0.9962848881660473 -0.0856289314639475
		outer loop
			vertex -5.385254859924316 0 -1.6341286897659302
			vertex -5.360723495483398 0.10212212055921555 -0.4433196783065796
			vertex -3.3437232971191406 0 -1.415476679801941
		endloop
	endfacet
	facet normal -0.022113712511336914 0.9884814471273571 -0.14971777584499454
		outer loop
			vertex -3.3437232971191406 0 -1.415476679801941
			vertex -5.360723495483398 0.10212212055921555 -0.4433196783065796
			vertex -3.4214675426483154 0.2388049215078354 0.1726677268743515
		endloop
	endfacet
	facet normal 0.07005688728325131 0.9042574438171571 -0.42120126762088805
		outer loop
			vertex -5.360723495483398 0.10212212055921555 -0.4433196783065796
			vertex -4.956801891326904 1.2562311887741089 2.1015663146972656
			vertex -3.4214675426483154 0.2388049215078354 0.1726677268743515
		endloop
	endfacet
	facet normal 0.12070221355240102 0.9144549406708814 -0.3862682191511042
		outer loop
			vertex -3.4214675426483154 0.2388049215078354 0.1726677268743515
			vertex -4.956801891326904 1.2562311887741089 2.1015663146972656
			vertex -3.4663267135620117 0.6247037053108215 1.072230339050293
		endloop
	endfacet
	facet normal 0.03202639273125988 0.8719307412273554 -0.4885806920779189
		outer loop
			vertex -4.956801891326904 1.2562311887741089 2.1015663146972656
			vertex -4.605847358703613 1.6738816499710083 2.8699185848236084
			vertex -3.4663267135620117 0.6247037053108215 1.072230339050293
		endloop
	endfacet
	facet normal 0.37423788258786 0.8843890081372003 -0.2789302592445904
		outer loop
			vertex -3.4663267135620117 0.6247037053108215 1.072230339050293
			vertex -4.605847358703613 1.6738816499710083 2.8699185848236084
			vertex -3.678041696548462 1.4713729619979858 3.4726626873016357
		endloop
	endfacet
	facet normal -0.03603565366768945 0.9292544282270021 0.36767871747661696
		outer loop
			vertex -4.605847358703613 1.6738816499710083 2.8699185848236084
			vertex -5.011043071746826 0.7627279758453369 5.13301420211792
			vertex -3.678041696548462 1.4713729619979858 3.4726626873016357
		endloop
	endfacet
	facet normal -0.03757390323718685 0.9296197533868857 0.366599667087176
		outer loop
			vertex -3.678041696548462 1.4713729619979858 3.4726626873016357
			vertex -5.011043071746826 0.7627279758453369 5.13301420211792
			vertex -3.7828264236450195 0.7748116254806519 5.2282562255859375
		endloop
	endfacet
	facet normal -0.04246115643963207 0.9002229039814665 0.43335409694727084
		outer loop
			vertex -5.011043071746826 0.7627279758453369 5.13301420211792
			vertex -5.481765270233154 0.11026261001825333 6.442282676696777
			vertex -3.7828264236450195 0.7748116254806519 5.2282562255859375
		endloop
	endfacet
	facet normal -0.27861419042296337 0.9514391369885646 0.13091104423008842
		outer loop
			vertex -3.7828264236450195 0.7748116254806519 5.2282562255859375
			vertex -5.481765270233154 0.11026261001825333 6.442282676696777
			vertex -3.125570774078369 0.7669864296913147 6.68394660949707
		endloop
	endfacet
	facet normal 0 1 0
		outer loop
			vertex -3.1210708618164062 0 -8.642382621765137
			vertex -3.1951076984405518 0 -6.841898441314697
			vertex -1.9519274234771729 0 -8.354957580566406
		endloop
	endfacet
	facet normal 0 1 0
		outer loop
			vertex -1.9519274234771729 0 -8.354957580566406
			vertex -3.1951076984405518 0 -6.841898441314697
			vertex -1.2583271265029907 0 -6.882834434509277
		endloop
	endfacet
	facet normal 0 1 0
		outer loop
			vertex -3.1951076984405518 0 -6.841898441314697
			vertex -3.324765920639038 0 -4.658838272094727
			vertex -1.2583271265029907 0 -6.882834434509277
		endloop
	endfacet
	facet normal -0.04271024148738926 0.9982990425902599 -0.03968446592130801
		outer loop
			vertex -1.2583271265029907 0 -6.882834434509277
			vertex -3.324765920639038 0 -4.658838272094727
			vertex -1.2460814714431763 0.08319289982318878 -4.803220272064209
		endloop
	endfacet
	facet normal -0.03898011560729128 0.9991347739749179 0.014500138665962005
		outer loop
			vertex -3.324765920639038 0 -4.658838272094727
			vertex -2.8974413871765137 0 -3.5100796222686768
			vertex -1.2460814714431763 0.08319289982318878 -4.803220272064209
		endloop
	endfacet
	facet normal 0.006736375517218078 0.997326404648355 0.07276444073911911
		outer loop
			vertex -1.2460814714431763 0.08319289982318878 -4.803220272064209
			vertex -2.8974413871765137 0 -3.5100796222686768
			vertex -1.4267781972885132 0 -3.646230459213257
		endloop
	endfacet
	facet normal 0 1 0
		outer loop
			vertex -2.8974413871765137 0 -3.5100796222686768
			vertex -3.3437232971191406 0 -1.415476679801941
			vertex -1.4267781972885132 0 -3.646230459213257
		endloop
	endfacet
	facet normal 0 1 0
		outer loop
			vertex -1.4267781972885132 0 -3.646230459213257
			vertex -3.3437232971191406 0 -1.415476679801941
			vertex -1.9910000562667847 0 -1.6342569589614868
		endloop
	endfacet
	facet normal -0.024229536382650508 0.9884176083279528 -0.1498117522557287
		outer loop
			vertex -3.3437232971191406 0 -1.415476679801941
			vertex -3.4214675426483154 0.2388049215078354 0.1726677268743515
			vertex -1.9910000562667847 0 -1.6342569589614868
		endloop
	endfacet
	facet normal -0.49503454906520694 0.7195657331280795 -0.48699686953784105
		outer loop
			vertex -1.9910000562667847 0 -1.6342569589614868
			vertex -3.4214675426483154 0.2388049215078354 0.1726677268743515
			vertex -1.6874444484710693 1.5754094123840332 0.3849349021911621
		endloop
	endfacet
	facet normal -0.5434975030045842 0.7612653428158022 -0.3536743446382865
		outer loop
			vertex -3.4214675426483154 0.2388049215078354 0.1726677268743515
			vertex -3.4663267135620117 0.6247037053108215 1.072230339050293
			vertex -1.6874444484710693 1.5754094123840332 0.3849349021911621
		endloop
	endfacet
	facet normal -0.4209082718446831 0.8948763439244996 0.1484336746733815
		outer loop
			vertex -1.6874444484710693 1.5754094123840332 0.3849349021911621
			vertex -3.4663267135620117 0.6247037053108215 1.072230339050293
			vertex -1.9304510354995728 1.295851469039917 1.3812472820281982
		endloop
	endfacet
	facet normal -0.31823086886816926 0.8848776320683751 -0.3401774395289543
		outer loop
			vertex -3.4663267135620117 0.6247037053108215 1.072230339050293
			vertex -3.678041696548462 1.4713729619979858 3.4726626873016357
			vertex -1.9304510354995728 1.295851469039917 1.3812472820281982
		endloop
	endfacet
	facet normal 0.4319067614199283 0.8542930192095031 0.2892057861967166
		outer loop
			vertex -1.9304510354995728 1.295851469039917 1.3812472820281982
			vertex -3.678041696548462 1.4713729619979858 3.4726626873016357
			vertex -1.6723039150238037 0.4426667094230652 3.515970468521118
		endloop
	endfacet
	facet normal 0.420325762124917 0.8345332914030085 0.35620280632551077
		outer loop
			vertex -3.678041696548462 1.4713729619979858 3.4726626873016357
			vertex -3.7828264236450195 0.7748116254806519 5.2282562255859375
			vertex -1.6723039150238037 0.4426667094230652 3.515970468521118
		endloop
	endfacet
	facet normal -0.27894211380240863 0.8183113202074732 -0.5025513708744079
		outer loop
			vertex -1.6723039150238037 0.4426667094230652 3.515970468521118
			vertex -3.7828264236450195 0.7748116254806519 5.2282562255859375
			vertex -1.9403043985366821 0.9058386087417603 4.418913841247559
		endloop
	endfacet
	facet normal -0.05725079633327857 0.9978717723483508 0.03121333480368005
		outer loop
			vertex -3.7828264236450195 0.7748116254806519 5.2282562255859375
			vertex -3.125570774078369 0.7669864296913147 6.68394660949707
			vertex -1.9403043985366821 0.9058386087417603 4.418913841247559
		endloop
	endfacet
	facet normal -0.7467681844378569 0.5615618710708244 -0.3563503103279439
		outer loop
			vertex -1.9403043985366821 0.9058386087417603 4.418913841247559
			vertex -3.125570774078369 0.7669864296913147 6.68394660949707
			vertex -2.2840731143951416 1.6446009874343872 6.303509712219238
		endloop
	endfacet
	facet normal -0.644408745960399 0.7242491907909772 0.24535785654500816
		outer loop
			vertex -3.125570774078369 0.7669864296913147 6.68394660949707
			vertex -3.336167097091675 0.2634430229663849 7.617198944091797
			vertex -2.2840731143951416 1.6446009874343872 6.303509712219238
		endloop
	endfacet
	facet normal -0.334614350017555 0.7706874178523716 0.5422860322065962
		outer loop
			vertex -2.2840731143951416 1.6446009874343872 6.303509712219238
			vertex -3.336167097091675 0.2634430229663849 7.617198944091797
			vertex -2.1981475353240967 0.5147053599357605 7.96231746673584
		endloop
	endfacet
	facet normal 0 1 0
		outer loop
			vertex -1.9519274234771729 0 -8.354957580566406
			vertex -1.2583271265029907 0 -6.882834434509277
			vertex -0.4060046672821045 0 -8.74277114868164
		endloop
	endfacet
	facet normal -0.14590869483627314 0.987035951614489 -0.06686316618030769
		outer loop
			vertex -0.4060046672821045 0 -8.74277114868164
			vertex -1.2583271265029907 0 -6.882834434509277
			vertex 0.36378759145736694 0.22784915566444397 -7.0590949058532715
		endloop
	endfacet
	facet normal -0.14311908472293133 0.9889478027962258 -0.038719128768446534
		outer loop
			vertex -1.2583271265029907 0 -6.882834434509277
			vertex -1.2460814714431763 0.08319289982318878 -4.803220272064209
			vertex 0.36378759145736694 0.22784915566444397 -7.0590949058532715
		endloop
	endfacet
	facet normal -0.5771499828365996 0.7305140774781019 -0.36503024520994237
		outer loop
			vertex 0.36378759145736694 0.22784915566444397 -7.0590949058532715
			vertex -1.2460814714431763 0.08319289982318878 -4.803220272064209
			vertex -0.39930835366249084 0.5525228381156921 -5.2028117179870605
		endloop
	endfacet
	facet normal -0.48970101334970345 0.8717812794620632 -0.013795590011363802
		outer loop
			vertex -1.2460814714431763 0.08319289982318878 -4.803220272064209
			vertex -1.4267781972885132 0 -3.646230459213257
			vertex -0.39930835366249084 0.5525228381156921 -5.2028117179870605
		endloop
	endfacet
	facet normal -0.5307752639783435 0.8460336207818355 -0.05004729418757243
		outer loop
			vertex -0.39930835366249084 0.5525228381156921 -5.2028117179870605
			vertex -1.4267781972885132 0 -3.646230459213257
			vertex 0.386560320854187 1.1230852603912354 -3.8921446800231934
		endloop
	endfacet
	facet normal -0.5352054517499307 0.8312812324822083 -0.1500887635368277
		outer loop
			vertex -1.4267781972885132 0 -3.646230459213257
			vertex -1.9910000562667847 0 -1.6342569589614868
			vertex 0.386560320854187 1.1230852603912354 -3.8921446800231934
		endloop
	endfacet
	facet normal -0.2336152200634324 0.9460406943236968 0.22456832732656665
		outer loop
			vertex 0.386560320854187 1.1230852603912354 -3.8921446800231934
			vertex -1.9910000562667847 0 -1.6342569589614868
			vertex 0.012668175622820854 0.6166436672210693 -2.147608995437622
		endloop
	endfacet
	facet normal -0.3707465406409091 0.7584428765092079 -0.536014370773058
		outer loop
			vertex -1.9910000562667847 0 -1.6342569589614868
			vertex -1.6874444484710693 1.5754094123840332 0.3849349021911621
			vertex 0.012668175622820854 0.6166436672210693 -2.147608995437622
		endloop
	endfacet
	facet normal -0.7342515445347179 0.30287563327326755 -0.6075697656382338
		outer loop
			vertex 0.012668175622820854 0.6166436672210693 -2.147608995437622
			vertex -1.6874444484710693 1.5754094123840332 0.3849349021911621
			vertex 0.3084131181240082 6.074047088623047 0.21551606059074402
		endloop
	endfacet
	facet normal -0.9100740209977312 0.399625215057202 -0.10984062907461185
		outer loop
			vertex -1.6874444484710693 1.5754094123840332 0.3849349021911621
			vertex -1.9304510354995728 1.295851469039917 1.3812472820281982
			vertex 0.3084131181240082 6.074047088623047 0.21551606059074402
		endloop
	endfacet
	facet normal -0.9093241434408251 0.39210585983499563 -0.1392213950464098
		outer loop
			vertex 0.3084131181240082 6.074047088623047 0.21551606059074402
			vertex -1.9304510354995728 1.295851469039917 1.3812472820281982
			vertex -0.5755330920219421 4.5191216468811035 1.6096857786178589
		endloop
	endfacet
	facet normal -0.898280334892686 0.3597092529853701 0.25239194373393
		outer loop
			vertex -1.9304510354995728 1.295851469039917 1.3812472820281982
			vertex -1.6723039150238037 0.4426667094230652 3.515970468521118
			vertex -0.5755330920219421 4.5191216468811035 1.6096857786178589
		endloop
	endfacet
	facet normal -0.6738350200666926 0.45392809717613986 0.5830057017952474
		outer loop
			vertex -0.5755330920219421 4.5191216468811035 1.6096857786178589
			vertex -1.6723039150238037 0.4426667094230652 3.515970468521118
			vertex 0.08178601413965225 3.830451726913452 2.9056100845336914
		endloop
	endfacet
	facet normal -0.8316943478378954 0.3534833087130884 -0.42817527046262877
		outer loop
			vertex -1.6723039150238037 0.4426667094230652 3.515970468521118
			vertex -1.9403043985366821 0.9058386087417603 4.418913841247559
			vertex 0.08178601413965225 3.830451726913452 2.9056100845336914
		endloop
	endfacet
	facet normal -0.11178173407095328 0.5165530561332474 0.8489274316026625
		outer loop
			vertex 0.08178601413965225 3.830451726913452 2.9056100845336914
			vertex -1.9403043985366821 0.9058386087417603 4.418913841247559
			vertex 0.3711482584476471 0.8587446212768555 4.751927852630615
		endloop
	endfacet
	facet normal 0.06986610561739681 0.933012264898231 -0.3529969416798565
		outer loop
			vertex -1.9403043985366821 0.9058386087417603 4.418913841247559
			vertex -2.2840731143951416 1.6446009874343872 6.303509712219238
			vertex 0.3711482584476471 0.8587446212768555 4.751927852630615
		endloop
	endfacet
	facet normal 0.036094188468038 0.9150604241401392 -0.40169843132790867
		outer loop
			vertex 0.3711482584476471 0.8587446212768555 4.751927852630615
			vertex -2.2840731143951416 1.6446009874343872 6.303509712219238
			vertex 0.20556041598320007 1.5974642038345337 6.419836521148682
		endloop
	endfacet
	facet normal -0.01067787848402399 0.8261800362368026 0.563305006754632
		outer loop
			vertex -2.2840731143951416 1.6446009874343872 6.303509712219238
			vertex -2.1981475353240967 0.5147053599357605 7.96231746673584
			vertex 0.20556041598320007 1.5974642038345337 6.419836521148682
		endloop
	endfacet
	facet normal -0.035874385645697546 0.8433820489660482 0.5361154240799031
		outer loop
			vertex 0.20556041598320007 1.5974642038345337 6.419836521148682
			vertex -2.1981475353240967 0.5147053599357605 7.96231746673584
			vertex -0.04576697200536728 0.38337618112564087 8.312943458557129
		endloop
	endfacet
	facet normal 0.013316027913516229 0.9900520115278231 -0.14007033187052145
		outer loop
			vertex -0.4060046672821045 0 -8.74277114868164
			vertex 0.36378759145736694 0.22784915566444397 -7.0590949058532715
			vertex 2.056159257888794 0.11229260265827179 -7.714989185333252
		endloop
	endfacet
	facet normal -0.16599553284670945 0.8046492971601301 -0.5700745492079485
		outer loop
			vertex 2.056159257888794 0.11229260265827179 -7.714989185333252
			vertex 0.36378759145736694 0.22784915566444397 -7.0590949058532715
			vertex 1.1784462928771973 0.8293984532356262 -6.4472336769104
		endloop
	endfacet
	facet normal -0.3993818689091409 0.8610491761153591 -0.31478316203015544
		outer loop
			vertex 0.36378759145736694 0.22784915566444397 -7.0590949058532715
			vertex -0.39930835366249084 0.5525228381156921 -5.2028117179870605
			vertex 1.1784462928771973 0.8293984532356262 -6.4472336769104
		endloop
	endfacet
	facet normal -0.5214587267431096 0.6850438197043367 -0.5087197277365479
		outer loop
			vertex 1.1784462928771973 0.8293984532356262 -6.4472336769104
			vertex -0.39930835366249084 0.5525228381156921 -5.2028117179870605
			vertex 1.5881969928741455 2.515106678009033 -4.597264289855957
		endloop
	endfacet
	facet normal -0.7165211292381793 0.685079298506048 0.13139187993824267
		outer loop
			vertex -0.39930835366249084 0.5525228381156921 -5.2028117179870605
			vertex 0.386560320854187 1.1230852603912354 -3.8921446800231934
			vertex 1.5881969928741455 2.515106678009033 -4.597264289855957
		endloop
	endfacet
	facet normal -0.48514769903763655 0.6905361806397411 0.536462014821148
		outer loop
			vertex 1.5881969928741455 2.515106678009033 -4.597264289855957
			vertex 0.386560320854187 1.1230852603912354 -3.8921446800231934
			vertex 1.64776611328125 1.974777340888977 -3.847878932952881
		endloop
	endfacet
	facet normal -0.5585486207782834 0.8209472319375675 0.11861315525995846
		outer loop
			vertex 0.386560320854187 1.1230852603912354 -3.8921446800231934
			vertex 0.012668175622820854 0.6166436672210693 -2.147608995437622
			vertex 1.64776611328125 1.974777340888977 -3.847878932952881
		endloop
	endfacet
	facet normal -0.6605459721161278 0.7499116030466743 -0.03621610604589104
		outer loop
			vertex 1.64776611328125 1.974777340888977 -3.847878932952881
			vertex 0.012668175622820854 0.6166436672210693 -2.147608995437622
			vertex 1.7317261695861816 2.162353515625 -1.4951667785644531
		endloop
	endfacet
	facet normal -0.00946431671236061 0.3977737778040302 -0.9174347107018996
		outer loop
			vertex 0.012668175622820854 0.6166436672210693 -2.147608995437622
			vertex 0.3084131181240082 6.074047088623047 0.21551606059074402
			vertex 1.7317261695861816 2.162353515625 -1.4951667785644531
		endloop
	endfacet
	facet normal -0.05735853402593206 0.3824316709948323 -0.9222017217477402
		outer loop
			vertex 1.7317261695861816 2.162353515625 -1.4951667785644531
			vertex 0.3084131181240082 6.074047088623047 0.21551606059074402
			vertex 1.9835734367370605 6.016829490661621 0.08759766817092896
		endloop
	endfacet
	facet normal 0.08022141102269718 0.6397527510584167 0.7643827200602558
		outer loop
			vertex 0.3084131181240082 6.074047088623047 0.21551606059074402
			vertex -0.5755330920219421 4.5191216468811035 1.6096857786178589
			vertex 1.9835734367370605 6.016829490661621 0.08759766817092896
		endloop
	endfacet
	facet normal -0.6387116500598864 0.48103790306944716 -0.600541392318903
		outer loop
			vertex 1.9835734367370605 6.016829490661621 0.08759766817092896
			vertex -0.5755330920219421 4.5191216468811035 1.6096857786178589
			vertex 1.7398895025253296 7.836448669433594 1.804297924041748
		endloop
	endfacet
	facet normal -0.682768336729003 0.4424474098580396 0.5814358845738907
		outer loop
			vertex -0.5755330920219421 4.5191216468811035 1.6096857786178589
			vertex 0.08178601413965225 3.830451726913452 2.9056100845336914
			vertex 1.7398895025253296 7.836448669433594 1.804297924041748
		endloop
	endfacet
	facet normal -0.27356101876342187 0.35859366413015636 0.8925104778426008
		outer loop
			vertex 1.7398895025253296 7.836448669433594 1.804297924041748
			vertex 0.08178601413965225 3.830451726913452 2.9056100845336914
			vertex 0.9984773993492126 2.8530402183532715 3.5792880058288574
		endloop
	endfacet
	facet normal -0.068747105170095 0.5216494180499096 0.8503856302754196
		outer loop
			vertex 0.08178601413965225 3.830451726913452 2.9056100845336914
			vertex 0.3711482584476471 0.8587446212768555 4.751927852630615
			vertex 0.9984773993492126 2.8530402183532715 3.5792880058288574
		endloop
	endfacet
	facet normal 0.15293773374166328 0.4647147793460754 0.8721526377047154
		outer loop
			vertex 0.9984773993492126 2.8530402183532715 3.5792880058288574
			vertex 0.3711482584476471 0.8587446212768555 4.751927852630615
			vertex 1.9248628616333008 0.8042237758636475 4.508524417877197
		endloop
	endfacet
	facet normal -0.0317945312695663 0.9126994703813756 -0.4073926662900364
		outer loop
			vertex 0.3711482584476471 0.8587446212768555 4.751927852630615
			vertex 0.20556041598320007 1.5974642038345337 6.419836521148682
			vertex 1.9248628616333008 0.8042237758636475 4.508524417877197
		endloop
	endfacet
	facet normal 0.6051557457431129 0.7628285599378726 0.22776986529655005
		outer loop
			vertex 1.9248628616333008 0.8042237758636475 4.508524417877197
			vertex 0.20556041598320007 1.5974642038345337 6.419836521148682
			vertex 1.5190069675445557 0.4726046323776245 6.697464466094971
		endloop
	endfacet
	facet normal 0.49201140800577386 0.7016870287916762 0.5153252254816229
		outer loop
			vertex 0.20556041598320007 1.5974642038345337 6.419836521148682
			vertex -0.04576697200536728 0.38337618112564087 8.312943458557129
			vertex 1.5190069675445557 0.4726046323776245 6.697464466094971
		endloop
	endfacet
	facet normal 0.16351688172796308 0.9635792521142356 0.21160636636201205
		outer loop
			vertex 1.5190069675445557 0.4726046323776245 6.697464466094971
			vertex -0.04576697200536728 0.38337618112564087 8.312943458557129
			vertex 1.8850778341293335 0.016536682844161987 8.491355895996094
		endloop
	endfacet
	facet normal -0.10386170498575271 0.8331635773488439 -0.543186155582715
		outer loop
			vertex 2.056159257888794 0.11229260265827179 -7.714989185333252
			vertex 1.1784462928771973 0.8293984532356262 -6.4472336769104
			vertex 3.1788036823272705 0.005248167086392641 -8.09383773803711
		endloop
	endfacet
	facet normal 0.24334524485463624 0.9528469436608845 -0.1812892544050762
		outer loop
			vertex 3.1788036823272705 0.005248167086392641 -8.09383773803711
			vertex 1.1784462928771973 0.8293984532356262 -6.4472336769104
			vertex 3.030055046081543 0.21633929014205933 -7.184019565582275
		endloop
	endfacet
	facet normal -0.021454066850719183 0.7413514328805555 -0.6707740126014962
		outer loop
			vertex 1.1784462928771973 0.8293984532356262 -6.4472336769104
			vertex 1.5881969928741455 2.515106678009033 -4.597264289855957
			vertex 3.030055046081543 0.21633929014205933 -7.184019565582275
		endloop
	endfacet
	facet normal 0.49076427699728 0.7689230878977712 -0.4097654320719276
		outer loop
			vertex 3.030055046081543 0.21633929014205933 -7.184019565582275
			vertex 1.5881969928741455 2.515106678009033 -4.597264289855957
			vertex 3.1061673164367676 1.6276295185089111 -4.444581985473633
		endloop
	endfacet
	facet normal 0.39262284476134457 0.7605264726023081 0.517152575399756
		outer loop
			vertex 1.5881969928741455 2.515106678009033 -4.597264289855957
			vertex 1.64776611328125 1.974777340888977 -3.847878932952881
			vertex 3.1061673164367676 1.6276295185089111 -4.444581985473633
		endloop
	endfacet
	facet normal 0.3728533374476244 0.8200189731172355 0.43422260705993054
		outer loop
			vertex 3.1061673164367676 1.6276295185089111 -4.444581985473633
			vertex 1.64776611328125 1.974777340888977 -3.847878932952881
			vertex 2.7351784706115723 1.081860899925232 -3.0953545570373535
		endloop
	endfacet
	facet normal 0.6660501750468919 0.7412892072778959 -0.08287023285422448
		outer loop
			vertex 1.64776611328125 1.974777340888977 -3.847878932952881
			vertex 1.7317261695861816 2.162353515625 -1.4951667785644531
			vertex 2.7351784706115723 1.081860899925232 -3.0953545570373535
		endloop
	endfacet
	facet normal 0.7120815027043903 0.7015703020875566 -0.027185377228063117
		outer loop
			vertex 2.7351784706115723 1.081860899925232 -3.0953545570373535
			vertex 1.7317261695861816 2.162353515625 -1.4951667785644531
			vertex 3.1104750633239746 0.7551460266113281 -1.696502923965454
		endloop
	endfacet
	facet normal 0.2317101634355534 0.35652109444223284 -0.9050983976222595
		outer loop
			vertex 1.7317261695861816 2.162353515625 -1.4951667785644531
			vertex 1.9835734367370605 6.016829490661621 0.08759766817092896
			vertex 3.1104750633239746 0.7551460266113281 -1.696502923965454
		endloop
	endfacet
	facet normal 0.7558139653102066 0.34960086599281637 -0.5536465337551881
		outer loop
			vertex 3.1104750633239746 0.7551460266113281 -1.696502923965454
			vertex 1.9835734367370605 6.016829490661621 0.08759766817092896
			vertex 3.756103038787842 1.7596797943115234 -0.18080569803714752
		endloop
	endfacet
	facet normal 0.8792464916379495 0.38387210842174113 -0.2820776689463463
		outer loop
			vertex 1.9835734367370605 6.016829490661621 0.08759766817092896
			vertex 1.7398895025253296 7.836448669433594 1.804297924041748
			vertex 3.756103038787842 1.7596797943115234 -0.18080569803714752
		endloop
	endfacet
	facet normal 0.9471115454478299 0.32035801330884417 -0.018720678092252828
		outer loop
			vertex 3.756103038787842 1.7596797943115234 -0.18080569803714752
			vertex 1.7398895025253296 7.836448669433594 1.804297924041748
			vertex 3.3969125747680664 2.9513261318206787 2.0392003059387207
		endloop
	endfacet
	facet normal 0.5212092614938527 0.2164881289889816 0.8255142613788587
		outer loop
			vertex 1.7398895025253296 7.836448669433594 1.804297924041748
			vertex 0.9984773993492126 2.8530402183532715 3.5792880058288574
			vertex 3.3969125747680664 2.9513261318206787 2.0392003059387207
		endloop
	endfacet
	facet normal 0.32530678298510346 0.765277530382916 0.5554509865279813
		outer loop
			vertex 3.3969125747680664 2.9513261318206787 2.0392003059387207
			vertex 0.9984773993492126 2.8530402183532715 3.5792880058288574
			vertex 3.186168670654297 2.537994146347046 2.7320969104766846
		endloop
	endfacet
	facet normal 0.37276184570621873 0.5177907265026176 0.7700268631246475
		outer loop
			vertex 0.9984773993492126 2.8530402183532715 3.5792880058288574
			vertex 1.9248628616333008 0.8042237758636475 4.508524417877197
			vertex 3.186168670654297 2.537994146347046 2.7320969104766846
		endloop
	endfacet
	facet normal 0.18507275715614194 0.634372912968843 0.7505458559275701
		outer loop
			vertex 3.186168670654297 2.537994146347046 2.7320969104766846
			vertex 1.9248628616333008 0.8042237758636475 4.508524417877197
			vertex 3.5778648853302 0 4.780662536621094
		endloop
	endfacet
	facet normal 0.3997224365767355 0.8924181882323344 0.20931256772892445
		outer loop
			vertex 1.9248628616333008 0.8042237758636475 4.508524417877197
			vertex 1.5190069675445557 0.4726046323776245 6.697464466094971
			vertex 3.5778648853302 0 4.780662536621094
		endloop
	endfacet
	facet normal 0.27710569146487807 0.9588871357039007 0.0612200681095746
		outer loop
			vertex 3.5778648853302 0 4.780662536621094
			vertex 1.5190069675445557 0.4726046323776245 6.697464466094971
			vertex 3.1794393062591553 0 6.584090709686279
		endloop
	endfacet
	facet normal 0.28066185573571156 0.9423351662424435 0.18230018430548342
		outer loop
			vertex 1.5190069675445557 0.4726046323776245 6.697464466094971
			vertex 1.8850778341293335 0.016536682844161987 8.491355895996094
			vertex 3.1794393062591553 0 6.584090709686279
		endloop
	endfacet
	facet normal 0.014658608245369254 0.9998917393223222 0.0012786083412438614
		outer loop
			vertex 3.1794393062591553 0 6.584090709686279
			vertex 1.8850778341293335 0.016536682844161987 8.491355895996094
			vertex 3.0180397033691406 0 8.434456825256348
		endloop
	endfacet
	facet normal 0.1984292977955368 0.8690336700601474 -0.45321771156714635
		outer loop
			vertex 3.030055046081543 0.21633929014205933 -7.184019565582275
			vertex 3.1061673164367676 1.6276295185089111 -4.444581985473633
			vertex 5.211081504821777 0 -6.643940448760986
		endloop
	endfacet
	facet normal 0.7850177329515247 0.4701360541895853 0.40338474128640067
		outer loop
			vertex 5.211081504821777 0 -6.643940448760986
			vertex 3.1061673164367676 1.6276295185089111 -4.444581985473633
			vertex 4.319886207580566 0.412135511636734 -5.3899407386779785
		endloop
	endfacet
	facet normal 0.7849557394493354 0.46853776404763303 0.405360149455755
		outer loop
			vertex 3.1061673164367676 1.6276295185089111 -4.444581985473633
			vertex 2.7351784706115723 1.081860899925232 -3.0953545570373535
			vertex 4.319886207580566 0.412135511636734 -5.3899407386779785
		endloop
	endfacet
	facet normal 0.39788706168353205 0.9174074940418034 0.007026807296599183
		outer loop
			vertex 4.319886207580566 0.412135511636734 -5.3899407386779785
			vertex 2.7351784706115723 1.081860899925232 -3.0953545570373535
			vertex 5.020797252655029 0.09639865159988403 -3.856395721435547
		endloop
	endfacet
	facet normal 0.42125546061573804 0.9016776388907357 0.09757700767009848
		outer loop
			vertex 2.7351784706115723 1.081860899925232 -3.0953545570373535
			vertex 3.1104750633239746 0.7551460266113281 -1.696502923965454
			vertex 5.020797252655029 0.09639865159988403 -3.856395721435547
		endloop
	endfacet
	facet normal 0.4678835441115018 0.8712957356562085 0.1480835243265325
		outer loop
			vertex 5.020797252655029 0.09639865159988403 -3.856395721435547
			vertex 3.1104750633239746 0.7551460266113281 -1.696502923965454
			vertex 4.526584148406982 0 -1.7276922464370728
		endloop
	endfacet
	facet normal 0.35964335393816094 0.6999177723700967 -0.6170670708185557
		outer loop
			vertex 3.1104750633239746 0.7551460266113281 -1.696502923965454
			vertex 3.756103038787842 1.7596797943115234 -0.18080569803714752
			vertex 4.526584148406982 0 -1.7276922464370728
		endloop
	endfacet
	facet normal 0.8194566597377252 0.5363673678396181 -0.2019921521452998
		outer loop
			vertex 4.526584148406982 0 -1.7276922464370728
			vertex 3.756103038787842 1.7596797943115234 -0.18080569803714752
			vertex 4.577898979187012 0.566176176071167 -0.016097506508231163
		endloop
	endfacet
	facet normal 0.8232510604300626 0.5448749861041998 -0.1592763040088692
		outer loop
			vertex 3.756103038787842 1.7596797943115234 -0.18080569803714752
			vertex 3.3969125747680664 2.9513261318206787 2.0392003059387207
			vertex 4.577898979187012 0.566176176071167 -0.016097506508231163
		endloop
	endfacet
	facet normal 0.8723603564657669 0.48497403504205094 -0.061543430209503536
		outer loop
			vertex 4.577898979187012 0.566176176071167 -0.016097506508231163
			vertex 3.3969125747680664 2.9513261318206787 2.0392003059387207
			vertex 4.558661937713623 0.8190097808837891 1.703600287437439
		endloop
	endfacet
	facet normal 0.8065566280434345 0.36642460310318176 0.46389591073847664
		outer loop
			vertex 3.3969125747680664 2.9513261318206787 2.0392003059387207
			vertex 3.186168670654297 2.537994146347046 2.7320969104766846
			vertex 4.558661937713623 0.8190097808837891 1.703600287437439
		endloop
	endfacet
	facet normal 0.8234637040450729 0.514888960828549 0.23832097292782664
		outer loop
			vertex 4.558661937713623 0.8190097808837891 1.703600287437439
			vertex 3.186168670654297 2.537994146347046 2.7320969104766846
			vertex 4.434817314147949 0.49095436930656433 2.840276002883911
		endloop
	endfacet
	facet normal 0.750182008985384 0.481541720490703 0.4531495612063497
		outer loop
			vertex 3.186168670654297 2.537994146347046 2.7320969104766846
			vertex 3.5778648853302 0 4.780662536621094
			vertex 4.434817314147949 0.49095436930656433 2.840276002883911
		endloop
	endfacet
	facet normal 0.043209369522403625 0.9638406281423213 0.2629528359377246
		outer loop
			vertex 4.434817314147949 0.49095436930656433 2.840276002883911
			vertex 3.5778648853302 0 4.780662536621094
			vertex 5.395432472229004 0 4.481993198394775
		endloop
	endfacet
	facet normal 0 1 0
		outer loop
			vertex 3.5778648853302 0 4.780662536621094
			vertex 3.1794393062591553 0 6.584090709686279
			vertex 5.395432472229004 0 4.481993198394775
		endloop
	endfacet
	facet normal 0 1 0
		outer loop
			vertex 5.395432472229004 0 4.481993198394775
			vertex 3.1794393062591553 0 6.584090709686279
			vertex 5.084095001220703 0 6.7181396484375
		endloop
	endfacet
	facet normal 0 1 0
		outer loop
			vertex 3.1794393062591553 0 6.584090709686279
			vertex 3.0180397033691406 0 8.434456825256348
			vertex 5.084095001220703 0 6.7181396484375
		endloop
	endfacet
	facet normal 0.12975423513036743 0.9812216538679844 0.14271616743141222
		outer loop
			vertex 4.319886207580566 0.412135511636734 -5.3899407386779785
			vertex 5.020797252655029 0.09639865159988403 -3.856395721435547
			vertex 6.542879581451416 0 -4.577464580535889
		endloop
	endfacet
	facet normal 0.06887239136091276 0.9975530724104418 0.012019210985646159
		outer loop
			vertex 6.542879581451416 0 -4.577464580535889
			vertex 5.020797252655029 0.09639865159988403 -3.856395721435547
			vertex 6.344231605529785 0 -3.439173460006714
		endloop
	endfacet
	facet normal 0.05439718750725164 0.9968467258694322 0.057771542429592065
		outer loop
			vertex 5.020797252655029 0.09639865159988403 -3.856395721435547
			vertex 4.526584148406982 0 -1.7276922464370728
			vertex 6.344231605529785 0 -3.439173460006714
		endloop
	endfacet
	facet normal 0 1 0
		outer loop
			vertex 6.344231605529785 0 -3.439173460006714
			vertex 4.526584148406982 0 -1.7276922464370728
			vertex 6.223510265350342 0 -1.3104857206344604
		endloop
	endfacet
	facet normal 0.07749552210672696 0.9458553688973129 -0.3152016262355478
		outer loop
			vertex 4.526584148406982 0 -1.7276922464370728
			vertex 4.577898979187012 0.566176176071167 -0.016097506508231163
			vertex 6.223510265350342 0 -1.3104857206344604
		endloop
	endfacet
	facet normal 0.3000866287453669 0.9532530969123204 -0.03544782751186243
		outer loop
			vertex 6.223510265350342 0 -1.3104857206344604
			vertex 4.577898979187012 0.566176176071167 -0.016097506508231163
			vertex 6.342984199523926 0 -0.2990688681602478
		endloop
	endfacet
	facet normal 0.2826815599206631 0.9494619840438353 -0.13642974945503905
		outer loop
			vertex 4.577898979187012 0.566176176071167 -0.016097506508231163
			vertex 4.558661937713623 0.8190097808837891 1.703600287437439
			vertex 6.342984199523926 0 -0.2990688681602478
		endloop
	endfacet
	facet normal 0.3936062513930418 0.9189359892631946 -0.025115065223720937
		outer loop
			vertex 6.342984199523926 0 -0.2990688681602478
			vertex 4.558661937713623 0.8190097808837891 1.703600287437439
			vertex 6.451595306396484 0 1.403097152709961
		endloop
	endfacet
	facet normal 0.4184716680107746 0.8594516455570125 0.2936397997915534
		outer loop
			vertex 4.558661937713623 0.8190097808837891 1.703600287437439
			vertex 4.434817314147949 0.49095436930656433 2.840276002883911
			vertex 6.451595306396484 0 1.403097152709961
		endloop
	endfacet
	facet normal 0.21835301634474708 0.9755010035475035 -0.026828200293058702
		outer loop
			vertex 6.451595306396484 0 1.403097152709961
			vertex 4.434817314147949 0.49095436930656433 2.840276002883911
			vertex 6.7127299308776855 0 3.5284552574157715
		endloop
	endfacet
	facet normal 0.14719402080891184 0.967979465847892 0.2033461923295721
		outer loop
			vertex 4.434817314147949 0.49095436930656433 2.840276002883911
			vertex 5.395432472229004 0 4.481993198394775
			vertex 6.7127299308776855 0 3.5284552574157715
		endloop
	endfacet
	facet normal 0 1 0
		outer loop
			vertex 6.7127299308776855 0 3.5284552574157715
			vertex 5.395432472229004 0 4.481993198394775
			vertex 6.420057773590088 0 4.651129722595215
		endloop
	endfacet
	facet normal 0 1 0
		outer loop
			vertex 5.395432472229004 0 4.481993198394775
			vertex 5.084095001220703 0 6.7181396484375
			vertex 6.420057773590088 0 4.651129722595215
		endloop
	endfacet
	facet normal 0 1 0
		outer loop
			vertex 6.344231605529785 0 -3.439173460006714
			vertex 6.223510265350342 0 -1.3104857206344604
			vertex 8.134986877441406 0 -3.1388940811157227
		endloop
	endfacet
	facet normal 0 1 0
		outer loop
			vertex 8.134986877441406 0 -3.1388940811157227
			vertex 6.223510265350342 0 -1.3104857206344604
			vertex 8.07644271850586 0 -2.0934054851531982
		endloop
	endfacet
	facet normal 0 1 0
		outer loop
			vertex 6.223510265350342 0 -1.3104857206344604
			vertex 6.342984199523926 0 -0.2990688681602478
			vertex 8.07644271850586 0 -2.0934054851531982
		endloop
	endfacet
	facet normal 0 1 0
		outer loop
			vertex 8.07644271850586 0 -2.0934054851531982
			vertex 6.342984199523926 0 -0.2990688681602478
			vertex 7.546360969543457 0 0.10296821594238281
		endloop
	endfacet
	facet normal 0 1 0
		outer loop
			vertex 6.342984199523926 0 -0.2990688681602478
			vertex 6.451595306396484 0 1.403097152709961
			vertex 7.546360969543457 0 0.10296821594238281
		endloop
	endfacet
	facet normal 0 1 0
		outer loop
			vertex 7.546360969543457 0 0.10296821594238281
			vertex 6.451595306396484 0 1.403097152709961
			vertex 7.721719264984131 0 1.0906909704208374
		endloop
	endfacet
	facet normal 0 1 0
		outer loop
			vertex 6.451595306396484 0 1.403097152709961
			vertex 6.7127299308776855 0 3.5284552574157715
			vertex 7.721719264984131 0 1.0906909704208374
		endloop
	endfacet
	facet normal 0 1 0
		outer loop
			vertex 7.721719264984131 0 1.0906909704208374
			vertex 6.7127299308776855 0 3.5284552574157715
			vertex 8.549275398254395 0 2.657381534576416
		endloop
	endfacet
	facet normal 0 1 0
		outer loop
			vertex 6.7127299308776855 0 3.5284552574157715
			vertex 6.420057773590088 0 4.651129722595215
			vertex 8.549275398254395 0 2.657381534576416
		endloop
	endfacet
	facet normal 0.99524497168552 0 -0.09740352321496822
		outer loop
			vertex -8.250289916992188 0 -3.712998151779175
			vertex -8.027088165283203 0 -1.4323781728744507
			vertex -8.027088165283203 -1.350000023841858 -1.4323781728744507
		endloop
	endfacet
	facet normal 0.99524497168552 0 -0.09740352321496822
		outer loop
			vertex -8.250289916992188 0 -3.712998151779175
			vertex -8.027088165283203 -1.350000023841858 -1.4323781728744507
			vertex -8.250289916992188 -1.350000023841858 -3.712998151779175
		endloop
	endfacet
	facet normal 0 -1 0
		outer loop
			vertex -8.027088165283203 -1.350000023841858 -1.4323781728744507
			vertex -8.250289916992188 -1.350000023841858 -3.712998151779175
			vertex 0 -1.350000023841858 0
		endloop
	endfacet
	facet normal 0.07873715471465684 0 0.9968954109972823
		outer loop
			vertex -6.548087120056152 0 -3.847442150115967
			vertex -8.250289916992188 0 -3.712998151779175
			vertex -8.250289916992188 -1.350000023841858 -3.712998151779175
		endloop
	endfacet
	facet normal 0.07873715471465684 0 0.9968954109972823
		outer loop
			vertex -6.548087120056152 0 -3.847442150115967
			vertex -8.250289916992188 -1.350000023841858 -3.712998151779175
			vertex -6.548087120056152 -1.350000023841858 -3.847442150115967
		endloop
	endfacet
	facet normal 0 -1 0
		outer loop
			vertex -8.250289916992188 -1.350000023841858 -3.712998151779175
			vertex -6.548087120056152 -1.350000023841858 -3.847442150115967
			vertex 0 -1.350000023841858 0
		endloop
	endfacet
	facet normal 0.9141199596332209 0 0.40544383014193075
		outer loop
			vertex -8.027088165283203 0 -1.4323781728744507
			vertex -8.606767654418945 0 -0.12542378902435303
			vertex -8.606767654418945 -1.350000023841858 -0.12542378902435303
		endloop
	endfacet
	facet normal 0.9141199596332209 0 0.40544383014193075
		outer loop
			vertex -8.027088165283203 0 -1.4323781728744507
			vertex -8.606767654418945 -1.350000023841858 -0.12542378902435303
			vertex -8.027088165283203 -1.350000023841858 -1.4323781728744507
		endloop
	endfacet
	facet normal 0 -1 0
		outer loop
			vertex -8.606767654418945 -1.350000023841858 -0.12542378902435303
			vertex -8.027088165283203 -1.350000023841858 -1.4323781728744507
			vertex 0 -1.350000023841858 0
		endloop
	endfacet
	facet normal 0.9833109615938919 0 -0.1819328249912477
		outer loop
			vertex -8.606767654418945 0 -0.12542378902435303
			vertex -8.288372039794922 0.03252473101019859 1.5954415798187256
			vertex -8.288372039794922 -1.350000023841858 1.5954415798187256
		endloop
	endfacet
	facet normal 0.9833109615938918 0 -0.18193282499124766
		outer loop
			vertex -8.606767654418945 0 -0.12542378902435303
			vertex -8.288372039794922 -1.350000023841858 1.5954415798187256
			vertex -8.606767654418945 -1.350000023841858 -0.12542378902435303
		endloop
	endfacet
	facet normal 0 -1 0
		outer loop
			vertex -8.288372039794922 -1.350000023841858 1.5954415798187256
			vertex -8.606767654418945 -1.350000023841858 -0.12542378902435303
			vertex 0 -1.350000023841858 0
		endloop
	endfacet
	facet normal 0.9865206488355184 0 0.16363682171549268
		outer loop
			vertex -8.288372039794922 0.03252473101019859 1.5954415798187256
			vertex -8.519349098205566 0 2.9879376888275146
			vertex -8.519349098205566 -1.350000023841858 2.9879376888275146
		endloop
	endfacet
	facet normal 0.9865206488355183 0 0.16363682171549265
		outer loop
			vertex -8.288372039794922 0.03252473101019859 1.5954415798187256
			vertex -8.519349098205566 -1.350000023841858 2.9879376888275146
			vertex -8.288372039794922 -1.350000023841858 1.5954415798187256
		endloop
	endfacet
	facet normal 0 -1 0
		outer loop
			vertex -8.519349098205566 -1.350000023841858 2.9879376888275146
			vertex -8.288372039794922 -1.350000023841858 1.5954415798187256
			vertex 0 -1.350000023841858 0
		endloop
	endfacet
	facet normal 0.07112435550965684 0 -0.9974674561374601
		outer loop
			vertex -8.519349098205566 0 2.9879376888275146
			vertex -6.567494869232178 0.6690074801445007 3.1271145343780518
			vertex -6.567494869232178 -1.350000023841858 3.1271145343780518
		endloop
	endfacet
	facet normal 0.07112435550965684 0 -0.9974674561374602
		outer loop
			vertex -8.519349098205566 0 2.9879376888275146
			vertex -6.567494869232178 -1.350000023841858 3.1271145343780518
			vertex -8.519349098205566 -1.350000023841858 2.9879376888275146
		endloop
	endfacet
	facet normal 0 -1 0
		outer loop
			vertex -6.567494869232178 -1.350000023841858 3.1271145343780518
			vertex -8.519349098205566 -1.350000023841858 2.9879376888275146
			vertex 0 -1.350000023841858 0
		endloop
	endfacet
	facet normal 0.9976778354241999 0 -0.06810974014987468
		outer loop
			vertex -6.627931118011475 0 -5.017004489898682
			vertex -6.548087120056152 0 -3.847442150115967
			vertex -6.548087120056152 -1.350000023841858 -3.847442150115967
		endloop
	endfacet
	facet normal 0.9976778354241999 0 -0.06810974014987468
		outer loop
			vertex -6.627931118011475 0 -5.017004489898682
			vertex -6.548087120056152 -1.350000023841858 -3.847442150115967
			vertex -6.627931118011475 -1.350000023841858 -5.017004489898682
		endloop
	endfacet
	facet normal 0 -1 0
		outer loop
			vertex -6.548087120056152 -1.350000023841858 -3.847442150115967
			vertex -6.627931118011475 -1.350000023841858 -5.017004489898682
			vertex 0 -1.350000023841858 0
		endloop
	endfacet
	facet normal 0.23787842452662702 0 0.971294937258879
		outer loop
			vertex -4.695515155792236 0 -5.490269660949707
			vertex -6.627931118011475 0 -5.017004489898682
			vertex -6.627931118011475 -1.350000023841858 -5.017004489898682
		endloop
	endfacet
	facet normal 0.23787842452662702 0 0.971294937258879
		outer loop
			vertex -4.695515155792236 0 -5.490269660949707
			vertex -6.627931118011475 -1.350000023841858 -5.017004489898682
			vertex -4.695515155792236 -1.350000023841858 -5.490269660949707
		endloop
	endfacet
	facet normal 0 -1 0
		outer loop
			vertex -6.627931118011475 -1.350000023841858 -5.017004489898682
			vertex -4.695515155792236 -1.350000023841858 -5.490269660949707
			vertex 0 -1.350000023841858 0
		endloop
	endfacet
	facet normal 0.9939157419811153 0 -0.1101430789570047
		outer loop
			vertex -6.567494869232178 0.6690074801445007 3.1271145343780518
			vertex -6.3820672035217285 0.3864120543003082 4.800387859344482
			vertex -6.3820672035217285 -1.350000023841858 4.800387859344482
		endloop
	endfacet
	facet normal 0.9939157419811153 0 -0.11014307895700469
		outer loop
			vertex -6.567494869232178 0.6690074801445007 3.1271145343780518
			vertex -6.3820672035217285 -1.350000023841858 4.800387859344482
			vertex -6.567494869232178 -1.350000023841858 3.1271145343780518
		endloop
	endfacet
	facet normal 0 -1 0
		outer loop
			vertex -6.3820672035217285 -1.350000023841858 4.800387859344482
			vertex -6.567494869232178 -1.350000023841858 3.1271145343780518
			vertex 0 -1.350000023841858 0
		endloop
	endfacet
	facet normal 0.2357719806981017 0 -0.9718084035023026
		outer loop
			vertex -6.3820672035217285 0.3864120543003082 4.800387859344482
			vertex -5.011043071746826 0.7627279758453369 5.13301420211792
			vertex -5.011043071746826 -1.350000023841858 5.13301420211792
		endloop
	endfacet
	facet normal 0.23577198069810168 0 -0.9718084035023025
		outer loop
			vertex -6.3820672035217285 0.3864120543003082 4.800387859344482
			vertex -5.011043071746826 -1.350000023841858 5.13301420211792
			vertex -6.3820672035217285 -1.350000023841858 4.800387859344482
		endloop
	endfacet
	facet normal 0 -1 0
		outer loop
			vertex -5.011043071746826 -1.350000023841858 5.13301420211792
			vertex -6.3820672035217285 -1.350000023841858 4.800387859344482
			vertex 0 -1.350000023841858 0
		endloop
	endfacet
	facet normal 0.9217185695239337 0 -0.3878593541411033
		outer loop
			vertex -5.216403961181641 0 -6.728122711181641
			vertex -4.695515155792236 0 -5.490269660949707
			vertex -4.695515155792236 -1.350000023841858 -5.490269660949707
		endloop
	endfacet
	facet normal 0.9217185695239337 0 -0.3878593541411033
		outer loop
			vertex -5.216403961181641 0 -6.728122711181641
			vertex -4.695515155792236 -1.350000023841858 -5.490269660949707
			vertex -5.216403961181641 -1.350000023841858 -6.728122711181641
		endloop
	endfacet
	facet normal 0 -1 0
		outer loop
			vertex -4.695515155792236 -1.350000023841858 -5.490269660949707
			vertex -5.216403961181641 -1.350000023841858 -6.728122711181641
			vertex 0 -1.350000023841858 0
		endloop
	endfacet
	facet normal 0.05619953699242736 0 0.9984195571210718
		outer loop
			vertex -3.1951076984405518 0 -6.841898441314697
			vertex -5.216403961181641 0 -6.728122711181641
			vertex -5.216403961181641 -1.350000023841858 -6.728122711181641
		endloop
	endfacet
	facet normal 0.05619953699242736 0 0.9984195571210718
		outer loop
			vertex -3.1951076984405518 0 -6.841898441314697
			vertex -5.216403961181641 -1.350000023841858 -6.728122711181641
			vertex -3.1951076984405518 -1.350000023841858 -6.841898441314697
		endloop
	endfacet
	facet normal 0 -1 0
		outer loop
			vertex -5.216403961181641 -1.350000023841858 -6.728122711181641
			vertex -3.1951076984405518 -1.350000023841858 -6.841898441314697
			vertex 0 -1.350000023841858 0
		endloop
	endfacet
	facet normal 0.9410280778866055 0 0.3383284744579457
		outer loop
			vertex -5.011043071746826 0.7627279758453369 5.13301420211792
			vertex -5.481765270233154 0.11026261001825333 6.442282676696777
			vertex -5.481765270233154 -1.350000023841858 6.442282676696777
		endloop
	endfacet
	facet normal 0.9410280778866055 0 0.3383284744579457
		outer loop
			vertex -5.011043071746826 0.7627279758453369 5.13301420211792
			vertex -5.481765270233154 -1.350000023841858 6.442282676696777
			vertex -5.011043071746826 -1.350000023841858 5.13301420211792
		endloop
	endfacet
	facet normal 0 -1 0
		outer loop
			vertex -5.481765270233154 -1.350000023841858 6.442282676696777
			vertex -5.011043071746826 -1.350000023841858 5.13301420211792
			vertex 0 -1.350000023841858 0
		endloop
	endfacet
	facet normal 0.10203010170970021 0 -0.9947813118193909
		outer loop
			vertex -5.481765270233154 0.11026261001825333 6.442282676696777
			vertex -3.125570774078369 0.7669864296913147 6.68394660949707
			vertex -3.125570774078369 -1.350000023841858 6.68394660949707
		endloop
	endfacet
	facet normal 0.10203010170970021 0 -0.9947813118193909
		outer loop
			vertex -5.481765270233154 0.11026261001825333 6.442282676696777
			vertex -3.125570774078369 -1.350000023841858 6.68394660949707
			vertex -5.481765270233154 -1.350000023841858 6.442282676696777
		endloop
	endfacet
	facet normal 0 -1 0
		outer loop
			vertex -3.125570774078369 -1.350000023841858 6.68394660949707
			vertex -5.481765270233154 -1.350000023841858 6.442282676696777
			vertex 0 -1.350000023841858 0
		endloop
	endfacet
	facet normal 0.9991556222918113 0 0.04108579368423476
		outer loop
			vertex -3.1210708618164062 0 -8.642382621765137
			vertex -3.1951076984405518 0 -6.841898441314697
			vertex -3.1951076984405518 -1.350000023841858 -6.841898441314697
		endloop
	endfacet
	facet normal 0.9991556222918113 0 0.04108579368423476
		outer loop
			vertex -3.1210708618164062 0 -8.642382621765137
			vertex -3.1951076984405518 -1.350000023841858 -6.841898441314697
			vertex -3.1210708618164062 -1.350000023841858 -8.642382621765137
		endloop
	endfacet
	facet normal 0 -1 0
		outer loop
			vertex -3.1951076984405518 -1.350000023841858 -6.841898441314697
			vertex -3.1210708618164062 -1.350000023841858 -8.642382621765137
			vertex 0 -1.350000023841858 0
		endloop
	endfacet
	facet normal -0.23873388427758419 0 0.9710850284592678
		outer loop
			vertex -1.9519274234771729 0 -8.354957580566406
			vertex -3.1210708618164062 0 -8.642382621765137
			vertex -3.1210708618164062 -1.350000023841858 -8.642382621765137
		endloop
	endfacet
	facet normal -0.23873388427758419 0 0.9710850284592678
		outer loop
			vertex -1.9519274234771729 0 -8.354957580566406
			vertex -3.1210708618164062 -1.350000023841858 -8.642382621765137
			vertex -1.9519274234771729 -1.350000023841858 -8.354957580566406
		endloop
	endfacet
	facet normal 0 -1 0
		outer loop
			vertex -3.1210708618164062 -1.350000023841858 -8.642382621765137
			vertex -1.9519274234771729 -1.350000023841858 -8.354957580566406
			vertex 0 -1.350000023841858 0
		endloop
	endfacet
	facet normal 0.9754720000992377 0 0.22012354944983303
		outer loop
			vertex -3.125570774078369 0.7669864296913147 6.68394660949707
			vertex -3.336167097091675 0.2634430229663849 7.617198944091797
			vertex -3.336167097091675 -1.350000023841858 7.617198944091797
		endloop
	endfacet
	facet normal 0.9754720000992376 0 0.22012354944983298
		outer loop
			vertex -3.125570774078369 0.7669864296913147 6.68394660949707
			vertex -3.336167097091675 -1.350000023841858 7.617198944091797
			vertex -3.125570774078369 -1.350000023841858 6.68394660949707
		endloop
	endfacet
	facet normal 0 -1 0
		outer loop
			vertex -3.336167097091675 -1.350000023841858 7.617198944091797
			vertex -3.125570774078369 -1.350000023841858 6.68394660949707
			vertex 0 -1.350000023841858 0
		endloop
	endfacet
	facet normal 0.29021080053637727 0 -0.9569627428756227
		outer loop
			vertex -3.336167097091675 0.2634430229663849 7.617198944091797
			vertex -2.1981475353240967 0.5147053599357605 7.96231746673584
			vertex -2.1981475353240967 -1.350000023841858 7.96231746673584
		endloop
	endfacet
	facet normal 0.2902108005363772 0 -0.9569627428756227
		outer loop
			vertex -3.336167097091675 0.2634430229663849 7.617198944091797
			vertex -2.1981475353240967 -1.350000023841858 7.96231746673584
			vertex -3.336167097091675 -1.350000023841858 7.617198944091797
		endloop
	endfacet
	facet normal 0 -1 0
		outer loop
			vertex -2.1981475353240967 -1.350000023841858 7.96231746673584
			vertex -3.336167097091675 -1.350000023841858 7.617198944091797
			vertex 0 -1.350000023841858 0
		endloop
	endfacet
	facet normal 0.2433226296256592 0 0.9699454097587422
		outer loop
			vertex -0.4060046672821045 0 -8.74277114868164
			vertex -1.9519274234771729 0 -8.354957580566406
			vertex -1.9519274234771729 -1.350000023841858 -8.354957580566406
		endloop
	endfacet
	facet normal 0.2433226296256592 0 0.9699454097587422
		outer loop
			vertex -0.4060046672821045 0 -8.74277114868164
			vertex -1.9519274234771729 -1.350000023841858 -8.354957580566406
			vertex -0.4060046672821045 -1.350000023841858 -8.74277114868164
		endloop
	endfacet
	facet normal 0 -1 0
		outer loop
			vertex -1.9519274234771729 -1.350000023841858 -8.354957580566406
			vertex -0.4060046672821045 -1.350000023841858 -8.74277114868164
			vertex 0 -1.350000023841858 0
		endloop
	endfacet
	facet normal 0.16078212496462496 0 -0.9869899230953982
		outer loop
			vertex -2.1981475353240967 0.5147053599357605 7.96231746673584
			vertex -0.04576697200536728 0.38337618112564087 8.312943458557129
			vertex -0.04576697200536728 -1.350000023841858 8.312943458557129
		endloop
	endfacet
	facet normal 0.16078212496462496 0 -0.9869899230953981
		outer loop
			vertex -2.1981475353240967 0.5147053599357605 7.96231746673584
			vertex -0.04576697200536728 -1.350000023841858 8.312943458557129
			vertex -2.1981475353240967 -1.350000023841858 7.96231746673584
		endloop
	endfacet
	facet normal 0 -1 0
		outer loop
			vertex -0.04576697200536728 -1.350000023841858 8.312943458557129
			vertex -2.1981475353240967 -1.350000023841858 7.96231746673584
			vertex 0 -1.350000023841858 0
		endloop
	endfacet
	facet normal -0.3852158024826122 0 0.9228265197303757
		outer loop
			vertex 2.056159257888794 0.11229260265827179 -7.714989185333252
			vertex -0.4060046672821045 0 -8.74277114868164
			vertex -0.4060046672821045 -1.350000023841858 -8.74277114868164
		endloop
	endfacet
	facet normal -0.3852158024826123 0 0.9228265197303757
		outer loop
			vertex 2.056159257888794 0.11229260265827179 -7.714989185333252
			vertex -0.4060046672821045 -1.350000023841858 -8.74277114868164
			vertex 2.056159257888794 -1.350000023841858 -7.714989185333252
		endloop
	endfacet
	facet normal 0 -1 0
		outer loop
			vertex -0.4060046672821045 -1.350000023841858 -8.74277114868164
			vertex 2.056159257888794 -1.350000023841858 -7.714989185333252
			vertex 0 -1.350000023841858 0
		endloop
	endfacet
	facet normal 0.0920092790533777 0 -0.9957581496367869
		outer loop
			vertex -0.04576697200536728 0.38337618112564087 8.312943458557129
			vertex 1.8850778341293335 0.016536682844161987 8.491355895996094
			vertex 1.8850778341293335 -1.350000023841858 8.491355895996094
		endloop
	endfacet
	facet normal 0.09200927905337769 0 -0.9957581496367869
		outer loop
			vertex -0.04576697200536728 0.38337618112564087 8.312943458557129
			vertex 1.8850778341293335 -1.350000023841858 8.491355895996094
			vertex -0.04576697200536728 -1.350000023841858 8.312943458557129
		endloop
	endfacet
	facet normal 0 -1 0
		outer loop
			vertex 1.8850778341293335 -1.350000023841858 8.491355895996094
			vertex -0.04576697200536728 -1.350000023841858 8.312943458557129
			vertex 0 -1.350000023841858 0
		endloop
	endfacet
	facet normal 0.3197453507717972 0 0.9475035148535443
		outer loop
			vertex 3.1788036823272705 0.005248167086392641 -8.09383773803711
			vertex 2.056159257888794 0.11229260265827179 -7.714989185333252
			vertex 2.056159257888794 -1.350000023841858 -7.714989185333252
		endloop
	endfacet
	facet normal 0.3197453507717972 0 0.9475035148535442
		outer loop
			vertex 3.1788036823272705 0.005248167086392641 -8.09383773803711
			vertex 2.056159257888794 -1.350000023841858 -7.714989185333252
			vertex 3.1788036823272705 -1.350000023841858 -8.09383773803711
		endloop
	endfacet
	facet normal 0 -1 0
		outer loop
			vertex 2.056159257888794 -1.350000023841858 -7.714989185333252
			vertex 3.1788036823272705 -1.350000023841858 -8.09383773803711
			vertex 0 -1.350000023841858 0
		endloop
	endfacet
	facet normal -0.9868971676049083 0 -0.16135048984558378
		outer loop
			vertex 3.030055046081543 0.21633929014205933 -7.184019565582275
			vertex 3.1788036823272705 0.005248167086392641 -8.09383773803711
			vertex 3.1788036823272705 -1.350000023841858 -8.09383773803711
		endloop
	endfacet
	facet normal -0.9868971676049082 0 -0.16135048984558378
		outer loop
			vertex 3.030055046081543 0.21633929014205933 -7.184019565582275
			vertex 3.1788036823272705 -1.350000023841858 -8.09383773803711
			vertex 3.030055046081543 -1.350000023841858 -7.184019565582275
		endloop
	endfacet
	facet normal 0 -1 0
		outer loop
			vertex 3.1788036823272705 -1.350000023841858 -8.09383773803711
			vertex 3.030055046081543 -1.350000023841858 -7.184019565582275
			vertex 0 -1.350000023841858 0
		endloop
	endfacet
	facet normal -0.05015830830381098 0 -0.9987412798658619
		outer loop
			vertex 1.8850778341293335 0.016536682844161987 8.491355895996094
			vertex 3.0180397033691406 0 8.434456825256348
			vertex 3.0180397033691406 -1.350000023841858 8.434456825256348
		endloop
	endfacet
	facet normal -0.05015830830381098 0 -0.9987412798658619
		outer loop
			vertex 1.8850778341293335 0.016536682844161987 8.491355895996094
			vertex 3.0180397033691406 -1.350000023841858 8.434456825256348
			vertex 1.8850778341293335 -1.350000023841858 8.491355895996094
		endloop
	endfacet
	facet normal 0 -1 0
		outer loop
			vertex 3.0180397033691406 -1.350000023841858 8.434456825256348
			vertex 1.8850778341293335 -1.350000023841858 8.491355895996094
			vertex 0 -1.350000023841858 0
		endloop
	endfacet
	facet normal -0.2403662807171293 0 0.9706822606261095
		outer loop
			vertex 5.211081504821777 0 -6.643940448760986
			vertex 3.030055046081543 0.21633929014205933 -7.184019565582275
			vertex 3.030055046081543 -1.350000023841858 -7.184019565582275
		endloop
	endfacet
	facet normal -0.2403662807171293 0 0.9706822606261096
		outer loop
			vertex 5.211081504821777 0 -6.643940448760986
			vertex 3.030055046081543 -1.350000023841858 -7.184019565582275
			vertex 5.211081504821777 -1.350000023841858 -6.643940448760986
		endloop
	endfacet
	facet normal 0 -1 0
		outer loop
			vertex 3.030055046081543 -1.350000023841858 -7.184019565582275
			vertex 5.211081504821777 -1.350000023841858 -6.643940448760986
			vertex 0 -1.350000023841858 0
		endloop
	endfacet
	facet normal -0.815120401866919 0 -0.579291576376105
		outer loop
			vertex 4.319886207580566 0.412135511636734 -5.3899407386779785
			vertex 5.211081504821777 0 -6.643940448760986
			vertex 5.211081504821777 -1.350000023841858 -6.643940448760986
		endloop
	endfacet
	facet normal -0.815120401866919 0 -0.579291576376105
		outer loop
			vertex 4.319886207580566 0.412135511636734 -5.3899407386779785
			vertex 5.211081504821777 -1.350000023841858 -6.643940448760986
			vertex 4.319886207580566 -1.350000023841858 -5.3899407386779785
		endloop
	endfacet
	facet normal 0 -1 0
		outer loop
			vertex 5.211081504821777 -1.350000023841858 -6.643940448760986
			vertex 4.319886207580566 -1.350000023841858 -5.3899407386779785
			vertex 0 -1.350000023841858 0
		endloop
	endfacet
	facet normal -0.6389981084973321 0 -0.7692083055563245
		outer loop
			vertex 3.0180397033691406 0 8.434456825256348
			vertex 5.084095001220703 0 6.7181396484375
			vertex 5.084095001220703 -1.350000023841858 6.7181396484375
		endloop
	endfacet
	facet normal -0.6389981084973321 0 -0.7692083055563245
		outer loop
			vertex 3.0180397033691406 0 8.434456825256348
			vertex 5.084095001220703 -1.350000023841858 6.7181396484375
			vertex 3.0180397033691406 -1.350000023841858 8.434456825256348
		endloop
	endfacet
	facet normal 0 -1 0
		outer loop
			vertex 5.084095001220703 -1.350000023841858 6.7181396484375
			vertex 3.0180397033691406 -1.350000023841858 8.434456825256348
			vertex 0 -1.350000023841858 0
		endloop
	endfacet
	facet normal -0.3432781532603855 0 0.9392337885181407
		outer loop
			vertex 6.542879581451416 0 -4.577464580535889
			vertex 4.319886207580566 0.412135511636734 -5.3899407386779785
			vertex 4.319886207580566 -1.350000023841858 -5.3899407386779785
		endloop
	endfacet
	facet normal -0.3432781532603855 0 0.9392337885181407
		outer loop
			vertex 6.542879581451416 0 -4.577464580535889
			vertex 4.319886207580566 -1.350000023841858 -5.3899407386779785
			vertex 6.542879581451416 -1.350000023841858 -4.577464580535889
		endloop
	endfacet
	facet normal 0 -1 0
		outer loop
			vertex 4.319886207580566 -1.350000023841858 -5.3899407386779785
			vertex 6.542879581451416 -1.350000023841858 -4.577464580535889
			vertex 0 -1.350000023841858 0
		endloop
	endfacet
	facet normal -0.985111616656779 0 -0.17191597577848194
		outer loop
			vertex 6.344231605529785 0 -3.439173460006714
			vertex 6.542879581451416 0 -4.577464580535889
			vertex 6.542879581451416 -1.350000023841858 -4.577464580535889
		endloop
	endfacet
	facet normal -0.985111616656779 0 -0.17191597577848194
		outer loop
			vertex 6.344231605529785 0 -3.439173460006714
			vertex 6.542879581451416 -1.350000023841858 -4.577464580535889
			vertex 6.344231605529785 -1.350000023841858 -3.439173460006714
		endloop
	endfacet
	facet normal 0 -1 0
		outer loop
			vertex 6.542879581451416 -1.350000023841858 -4.577464580535889
			vertex 6.344231605529785 -1.350000023841858 -3.439173460006714
			vertex 0 -1.350000023841858 0
		endloop
	endfacet
	facet normal -0.8398506605636891 0 -0.5428175273061245
		outer loop
			vertex 5.084095001220703 0 6.7181396484375
			vertex 6.420057773590088 0 4.651129722595215
			vertex 6.420057773590088 -1.350000023841858 4.651129722595215
		endloop
	endfacet
	facet normal -0.8398506605636891 0 -0.5428175273061245
		outer loop
			vertex 5.084095001220703 0 6.7181396484375
			vertex 6.420057773590088 -1.350000023841858 4.651129722595215
			vertex 5.084095001220703 -1.350000023841858 6.7181396484375
		endloop
	endfacet
	facet normal 0 -1 0
		outer loop
			vertex 6.420057773590088 -1.350000023841858 4.651129722595215
			vertex 5.084095001220703 -1.350000023841858 6.7181396484375
			vertex 0 -1.350000023841858 0
		endloop
	endfacet
	facet normal -0.16537424315569463 0 0.986230885594586
		outer loop
			vertex 8.134986877441406 0 -3.1388940811157227
			vertex 6.344231605529785 0 -3.439173460006714
			vertex 6.344231605529785 -1.350000023841858 -3.439173460006714
		endloop
	endfacet
	facet normal -0.16537424315569463 0 0.986230885594586
		outer loop
			vertex 8.134986877441406 0 -3.1388940811157227
			vertex 6.344231605529785 -1.350000023841858 -3.439173460006714
			vertex 8.134986877441406 -1.350000023841858 -3.1388940811157227
		endloop
	endfacet
	facet normal 0 -1 0
		outer loop
			vertex 6.344231605529785 -1.350000023841858 -3.439173460006714
			vertex 8.134986877441406 -1.350000023841858 -3.1388940811157227
			vertex 0 -1.350000023841858 0
		endloop
	endfacet
	facet normal -0.9984358490499169 0 -0.05590934923581057
		outer loop
			vertex 8.07644271850586 0 -2.0934054851531982
			vertex 8.134986877441406 0 -3.1388940811157227
			vertex 8.134986877441406 -1.350000023841858 -3.1388940811157227
		endloop
	endfacet
	facet normal -0.9984358490499169 0 -0.05590934923581057
		outer loop
			vertex 8.07644271850586 0 -2.0934054851531982
			vertex 8.134986877441406 -1.350000023841858 -3.1388940811157227
			vertex 8.07644271850586 -1.350000023841858 -2.0934054851531982
		endloop
	endfacet
	facet normal 0 -1 0
		outer loop
			vertex 8.134986877441406 -1.350000023841858 -3.1388940811157227
			vertex 8.07644271850586 -1.350000023841858 -2.0934054851531982
			vertex 0 -1.350000023841858 0
		endloop
	endfacet
	facet normal -0.9720900236093138 0 -0.23460815416187866
		outer loop
			vertex 7.546360969543457 0 0.10296821594238281
			vertex 8.07644271850586 0 -2.0934054851531982
			vertex 8.07644271850586 -1.350000023841858 -2.0934054851531982
		endloop
	endfacet
	facet normal -0.9720900236093138 0 -0.23460815416187866
		outer loop
			vertex 7.546360969543457 0 0.10296821594238281
			vertex 8.07644271850586 -1.350000023841858 -2.0934054851531982
			vertex 7.546360969543457 -1.350000023841858 0.10296821594238281
		endloop
	endfacet
	facet normal 0 -1 0
		outer loop
			vertex 8.07644271850586 -1.350000023841858 -2.0934054851531982
			vertex 7.546360969543457 -1.350000023841858 0.10296821594238281
			vertex 0 -1.350000023841858 0
		endloop
	endfacet
	facet normal -0.9846031708017693 0 0.17480445087898105
		outer loop
			vertex 7.721719264984131 0 1.0906909704208374
			vertex 7.546360969543457 0 0.10296821594238281
			vertex 7.546360969543457 -1.350000023841858 0.10296821594238281
		endloop
	endfacet
	facet normal -0.9846031708017693 0 0.17480445087898105
		outer loop
			vertex 7.721719264984131 0 1.0906909704208374
			vertex 7.546360969543457 -1.350000023841858 0.10296821594238281
			vertex 7.721719264984131 -1.350000023841858 1.0906909704208374
		endloop
	endfacet
	facet normal 0 -1 0
		outer loop
			vertex 7.546360969543457 -1.350000023841858 0.10296821594238281
			vertex 7.721719264984131 -1.350000023841858 1.0906909704208374
			vertex 0 -1.350000023841858 0
		endloop
	endfacet
	facet normal -0.8842235574310011 0 0.4670639147740543
		outer loop
			vertex 8.549275398254395 0 2.657381534576416
			vertex 7.721719264984131 0 1.0906909704208374
			vertex 7.721719264984131 -1.350000023841858 1.0906909704208374
		endloop
	endfacet
	facet normal -0.8842235574310011 0 0.4670639147740543
		outer loop
			vertex 8.549275398254395 0 2.657381534576416
			vertex 7.721719264984131 -1.350000023841858 1.0906909704208374
			vertex 8.549275398254395 -1.350000023841858 2.657381534576416
		endloop
	endfacet
	facet normal 0 -1 0
		outer loop
			vertex 7.721719264984131 -1.350000023841858 1.0906909704208374
			vertex 8.549275398254395 -1.350000023841858 2.657381534576416
			vertex 0 -1.350000023841858 0
		endloop
	endfacet
	facet normal -0.6835043202643859 0 -0.7299464666534935
		outer loop
			vertex 6.420057773590088 0 4.651129722595215
			vertex 8.549275398254395 0 2.657381534576416
			vertex 8.549275398254395 -1.350000023841858 2.657381534576416
		endloop
	endfacet
	facet normal -0.6835043202643859 0 -0.7299464666534935
		outer loop
			vertex 6.420057773590088 0 4.651129722595215
			vertex 8.549275398254395 -1.350000023841858 2.657381534576416
			vertex 6.420057773590088 -1.350000023841858 4.651129722595215
		endloop
	endfacet
	facet normal 0 -1 0
		outer loop
			vertex 8.549275398254395 -1.350000023841858 2.657381534576416
			vertex 6.420057773590088 -1.350000023841858 4.651129722595215
			vertex 0 -1.350000023841858 0
		endloop
	endfacet
endsolid exported
