solid exported
	facet normal 0 1 0
		outer loop
			vertex -5.81101655960083 0 -2.3773813247680664
			vertex -5.413774013519287 0 -0.5163796544075012
			vertex -4.488049507141113 0 -1.967505693435669
		endloop
	endfacet
	facet normal -0.4401980660845417 0.8528581248161836 -0.28081787968441874
		outer loop
			vertex -4.488049507141113 0 -1.967505693435669
			vertex -5.413774013519287 0 -0.5163796544075012
			vertex -4.126463890075684 0.47253504395484924 -1.0991989374160767
		endloop
	endfacet
	facet normal -0.3815252609416552 0.9192096496163243 -0.09742738483422529
		outer loop
			vertex -5.413774013519287 0 -0.5163796544075012
			vertex -5.748620986938477 0 0.7948797941207886
			vertex -4.126463890075684 0.47253504395484924 -1.0991989374160767
		endloop
	endfacet
	facet normal -0.2693729496634042 0.9629886242060545 0.009545870278159974
		outer loop
			vertex -4.126463890075684 0.47253504395484924 -1.0991989374160767
			vertex -5.748620986938477 0 0.7948797941207886
			vertex -4.390670299530029 0.37953412532806396 0.8271594047546387
		endloop
	endfacet
	facet normal -0.2669284511875759 0.9610952720257343 -0.07102872683908885
		outer loop
			vertex -5.748620986938477 0 0.7948797941207886
			vertex -6.056082248687744 0 1.9503300189971924
			vertex -4.390670299530029 0.37953412532806396 0.8271594047546387
		endloop
	endfacet
	facet normal -0.03729720542394241 0.9621849509314014 0.26983150051226623
		outer loop
			vertex -4.390670299530029 0.37953412532806396 0.8271594047546387
			vertex -6.056082248687744 0 1.9503300189971924
			vertex -4.3982720375061035 0.04255726560950279 2.0277254581451416
		endloop
	endfacet
	facet normal 0 1 0
		outer loop
			vertex -4.257286548614502 0 -4.346906661987305
			vertex -4.132198810577393 0 -3.2649855613708496
			vertex -3.303959608078003 0 -4.344754695892334
		endloop
	endfacet
	facet normal 0 1 0
		outer loop
			vertex -3.303959608078003 0 -4.344754695892334
			vertex -4.132198810577393 0 -3.2649855613708496
			vertex -3.3910999298095703 0 -3.310622215270996
		endloop
	endfacet
	facet normal 0 1 0
		outer loop
			vertex -4.132198810577393 0 -3.2649855613708496
			vertex -4.488049507141113 0 -1.967505693435669
			vertex -3.3910999298095703 0 -3.310622215270996
		endloop
	endfacet
	facet normal -0.5837687758128579 0.6571904122332461 -0.47677539623459325
		outer loop
			vertex -3.3910999298095703 0 -3.310622215270996
			vertex -4.488049507141113 0 -1.967505693435669
			vertex -2.922722816467285 1.2803508043289185 -2.1192638874053955
		endloop
	endfacet
	facet normal -0.6346977754968908 0.7583761979509448 -0.14840578210018535
		outer loop
			vertex -4.488049507141113 0 -1.967505693435669
			vertex -4.126463890075684 0.47253504395484924 -1.0991989374160767
			vertex -2.922722816467285 1.2803508043289185 -2.1192638874053955
		endloop
	endfacet
	facet normal -0.7312957312552558 0.4879804032468258 -0.47653087989647225
		outer loop
			vertex -2.922722816467285 1.2803508043289185 -2.1192638874053955
			vertex -4.126463890075684 0.47253504395484924 -1.0991989374160767
			vertex -3.538095235824585 2.084587812423706 -0.35133832693099976
		endloop
	endfacet
	facet normal -0.9169242804632 0.3843926555608774 -0.10720144704200603
		outer loop
			vertex -4.126463890075684 0.47253504395484924 -1.0991989374160767
			vertex -4.390670299530029 0.37953412532806396 0.8271594047546387
			vertex -3.538095235824585 2.084587812423706 -0.35133832693099976
		endloop
	endfacet
	facet normal -0.9128396937955559 0.4000964572308855 -0.08152618194500506
		outer loop
			vertex -3.538095235824585 2.084587812423706 -0.35133832693099976
			vertex -4.390670299530029 0.37953412532806396 0.8271594047546387
			vertex -2.799600839614868 4.0624284744262695 1.0862371921539307
		endloop
	endfacet
	facet normal -0.9157170290456728 0.38834450490871353 0.10320304367106922
		outer loop
			vertex -4.390670299530029 0.37953412532806396 0.8271594047546387
			vertex -4.3982720375061035 0.04255726560950279 2.0277254581451416
			vertex -2.799600839614868 4.0624284744262695 1.0862371921539307
		endloop
	endfacet
	facet normal -0.5361194204836337 0.3887079041794325 0.7493211142152115
		outer loop
			vertex -2.799600839614868 4.0624284744262695 1.0862371921539307
			vertex -4.3982720375061035 0.04255726560950279 2.0277254581451416
			vertex -3.210313558578491 1.2368419170379639 2.2581470012664795
		endloop
	endfacet
	facet normal -0.7150293481493608 0.6796572015023763 0.16370436686618509
		outer loop
			vertex -4.3982720375061035 0.04255726560950279 2.0277254581451416
			vertex -4.195724010467529 0 3.0891029834747314
			vertex -3.210313558578491 1.2368419170379639 2.2581470012664795
		endloop
	endfacet
	facet normal -0.05919965812982532 0.5887585792681632 0.8061381617411781
		outer loop
			vertex -3.210313558578491 1.2368419170379639 2.2581470012664795
			vertex -4.195724010467529 0 3.0891029834747314
			vertex -3.673224687576294 0.0872790589928627 3.0637295246124268
		endloop
	endfacet
	facet normal 0 1 0
		outer loop
			vertex -3.074122428894043 0 -5.5316972732543945
			vertex -3.303959608078003 0 -4.344754695892334
			vertex -1.5406074523925781 0 -5.655453205108643
		endloop
	endfacet
	facet normal 0 1 0
		outer loop
			vertex -1.5406074523925781 0 -5.655453205108643
			vertex -3.303959608078003 0 -4.344754695892334
			vertex -1.9510936737060547 0 -4.298521041870117
		endloop
	endfacet
	facet normal 0 1 0
		outer loop
			vertex -3.303959608078003 0 -4.344754695892334
			vertex -3.3910999298095703 0 -3.310622215270996
			vertex -1.9510936737060547 0 -4.298521041870117
		endloop
	endfacet
	facet normal -0.026235916653567594 0.9989240087377799 -0.038242665239118075
		outer loop
			vertex -1.9510936737060547 0 -4.298521041870117
			vertex -3.3910999298095703 0 -3.310622215270996
			vertex -2.109254837036133 0.021247543394565582 -3.635016441345215
		endloop
	endfacet
	facet normal -0.18498336801606421 0.7048672848358856 -0.6847943226440476
		outer loop
			vertex -3.3910999298095703 0 -3.310622215270996
			vertex -2.922722816467285 1.2803508043289185 -2.1192638874053955
			vertex -2.109254837036133 0.021247543394565582 -3.635016441345215
		endloop
	endfacet
	facet normal -0.6854528843740233 0.3352454293565732 -0.6463473101969704
		outer loop
			vertex -2.109254837036133 0.021247543394565582 -3.635016441345215
			vertex -2.922722816467285 1.2803508043289185 -2.1192638874053955
			vertex -2.1291022300720215 3.798109292984009 -1.6549972295761108
		endloop
	endfacet
	facet normal -0.8278039715654488 0.34282000697382936 -0.44408898599147156
		outer loop
			vertex -2.922722816467285 1.2803508043289185 -2.1192638874053955
			vertex -3.538095235824585 2.084587812423706 -0.35133832693099976
			vertex -2.1291022300720215 3.798109292984009 -1.6549972295761108
		endloop
	endfacet
	facet normal -0.7932742566949222 0.22051213797537192 -0.5675300438484729
		outer loop
			vertex -2.1291022300720215 3.798109292984009 -1.6549972295761108
			vertex -3.538095235824585 2.084587812423706 -0.35133832693099976
			vertex -1.6451979875564575 7.762180805206299 -0.7911537885665894
		endloop
	endfacet
	facet normal -0.9465146304077369 0.3192111549407532 0.04705627466657366
		outer loop
			vertex -3.538095235824585 2.084587812423706 -0.35133832693099976
			vertex -2.799600839614868 4.0624284744262695 1.0862371921539307
			vertex -1.6451979875564575 7.762180805206299 -0.7911537885665894
		endloop
	endfacet
	facet normal -0.9538825896479217 0.17323464917394152 -0.2451484478681357
		outer loop
			vertex -1.6451979875564575 7.762180805206299 -0.7911537885665894
			vertex -2.799600839614868 4.0624284744262695 1.0862371921539307
			vertex -1.9982255697250366 7.860347747802734 0.651860773563385
		endloop
	endfacet
	facet normal -0.9519655042196739 0.22466423075205372 0.2080568725045395
		outer loop
			vertex -2.799600839614868 4.0624284744262695 1.0862371921539307
			vertex -3.210313558578491 1.2368419170379639 2.2581470012664795
			vertex -1.9982255697250366 7.860347747802734 0.651860773563385
		endloop
	endfacet
	facet normal -0.5572306918072664 0.2906091902029833 0.777843335561578
		outer loop
			vertex -1.9982255697250366 7.860347747802734 0.651860773563385
			vertex -3.210313558578491 1.2368419170379639 2.2581470012664795
			vertex -2.3137552738189697 2.662043809890747 2.3679544925689697
		endloop
	endfacet
	facet normal -0.8296718645315915 0.5033200252860806 0.24148198556143233
		outer loop
			vertex -3.210313558578491 1.2368419170379639 2.2581470012664795
			vertex -3.673224687576294 0.0872790589928627 3.0637295246124268
			vertex -2.3137552738189697 2.662043809890747 2.3679544925689697
		endloop
	endfacet
	facet normal -0.3833326549085618 0.4241150317236867 0.8204770048860417
		outer loop
			vertex -2.3137552738189697 2.662043809890747 2.3679544925689697
			vertex -3.673224687576294 0.0872790589928627 3.0637295246124268
			vertex -1.9617853164672852 0.42025524377822876 3.691206455230713
		endloop
	endfacet
	facet normal -0.22164808413298637 0.971033171644182 0.08925640798742294
		outer loop
			vertex -3.673224687576294 0.0872790589928627 3.0637295246124268
			vertex -3.460062026977539 0 4.5425920486450195
			vertex -1.9617853164672852 0.42025524377822876 3.691206455230713
		endloop
	endfacet
	facet normal 0.01326588250093447 0.8871648975585101 0.46126181383404125
		outer loop
			vertex -1.9617853164672852 0.42025524377822876 3.691206455230713
			vertex -3.460062026977539 0 4.5425920486450195
			vertex -2.0147273540496826 0 4.50102424621582
		endloop
	endfacet
	facet normal 0 1 0
		outer loop
			vertex -1.5406074523925781 0 -5.655453205108643
			vertex -1.9510936737060547 0 -4.298521041870117
			vertex -0.6727345585823059 0 -5.685319900512695
		endloop
	endfacet
	facet normal 0 1 0
		outer loop
			vertex -0.6727345585823059 0 -5.685319900512695
			vertex -1.9510936737060547 0 -4.298521041870117
			vertex -0.66652512550354 0 -4.275021076202393
		endloop
	endfacet
	facet normal 0.0005829942396622927 0.9994919174145168 -0.03186796417672947
		outer loop
			vertex -1.9510936737060547 0 -4.298521041870117
			vertex -2.109254837036133 0.021247543394565582 -3.635016441345215
			vertex -0.66652512550354 0 -4.275021076202393
		endloop
	endfacet
	facet normal -0.29834799473141144 0.6549384529667878 -0.6942939556594286
		outer loop
			vertex -0.66652512550354 0 -4.275021076202393
			vertex -2.109254837036133 0.021247543394565582 -3.635016441345215
			vertex -0.5730661749839783 1.4938921928405762 -2.9059696197509766
		endloop
	endfacet
	facet normal -0.024653356240812635 0.4640702379767789 -0.8854552649627421
		outer loop
			vertex -2.109254837036133 0.021247543394565582 -3.635016441345215
			vertex -2.1291022300720215 3.798109292984009 -1.6549972295761108
			vertex -0.5730661749839783 1.4938921928405762 -2.9059696197509766
		endloop
	endfacet
	facet normal -0.2554541423893833 0.3223507507633557 -0.9115005071959125
		outer loop
			vertex -0.5730661749839783 1.4938921928405762 -2.9059696197509766
			vertex -2.1291022300720215 3.798109292984009 -1.6549972295761108
			vertex -0.4930553734302521 3.6255970001220703 -2.1745190620422363
		endloop
	endfacet
	facet normal -0.2713374432926913 0.23643865809564876 -0.9329912930061643
		outer loop
			vertex -2.1291022300720215 3.798109292984009 -1.6549972295761108
			vertex -1.6451979875564575 7.762180805206299 -0.7911537885665894
			vertex -0.4930553734302521 3.6255970001220703 -2.1745190620422363
		endloop
	endfacet
	facet normal -0.30543238766713554 0.22440180572234278 -0.9253944489527182
		outer loop
			vertex -0.4930553734302521 3.6255970001220703 -2.1745190620422363
			vertex -1.6451979875564575 7.762180805206299 -0.7911537885665894
			vertex -0.563181459903717 8.734225273132324 -0.9125661849975586
		endloop
	endfacet
	facet normal -0.6661895698127955 0.7151253468547634 -0.2116298546011334
		outer loop
			vertex -1.6451979875564575 7.762180805206299 -0.7911537885665894
			vertex -1.9982255697250366 7.860347747802734 0.651860773563385
			vertex -0.563181459903717 8.734225273132324 -0.9125661849975586
		endloop
	endfacet
	facet normal -0.7797999849408301 0.26618242727385805 -0.5666205951930081
		outer loop
			vertex -0.563181459903717 8.734225273132324 -0.9125661849975586
			vertex -1.9982255697250366 7.860347747802734 0.651860773563385
			vertex -0.3767104744911194 12.151277542114258 0.43604204058647156
		endloop
	endfacet
	facet normal -0.635765572128981 0.2764984384558156 0.7206599411837772
		outer loop
			vertex -1.9982255697250366 7.860347747802734 0.651860773563385
			vertex -2.3137552738189697 2.662043809890747 2.3679544925689697
			vertex -0.3767104744911194 12.151277542114258 0.43604204058647156
		endloop
	endfacet
	facet normal -0.2459691581437676 0.24133069836394125 0.93875378415707
		outer loop
			vertex -0.3767104744911194 12.151277542114258 0.43604204058647156
			vertex -2.3137552738189697 2.662043809890747 2.3679544925689697
			vertex -0.5434659123420715 4.704877853393555 2.3066370487213135
		endloop
	endfacet
	facet normal -0.43907696288760695 0.4045763321264432 0.8022028497484345
		outer loop
			vertex -2.3137552738189697 2.662043809890747 2.3679544925689697
			vertex -1.9617853164672852 0.42025524377822876 3.691206455230713
			vertex -0.5434659123420715 4.704877853393555 2.3066370487213135
		endloop
	endfacet
	facet normal 0.044102307502603494 0.29394464418810046 0.9548044473221086
		outer loop
			vertex -0.5434659123420715 4.704877853393555 2.3066370487213135
			vertex -1.9617853164672852 0.42025524377822876 3.691206455230713
			vertex -0.4694370925426483 1.8883898258209229 3.170297384262085
		endloop
	endfacet
	facet normal -0.5972867919559242 0.7271775524702043 0.33832129010519574
		outer loop
			vertex -1.9617853164672852 0.42025524377822876 3.691206455230713
			vertex -2.0147273540496826 0 4.50102424621582
			vertex -0.4694370925426483 1.8883898258209229 3.170297384262085
		endloop
	endfacet
	facet normal 0.12952422374098177 0.49817294963830316 0.8573489299654891
		outer loop
			vertex -0.4694370925426483 1.8883898258209229 3.170297384262085
			vertex -2.0147273540496826 0 4.50102424621582
			vertex -0.972614586353302 0.05141962319612503 4.313708782196045
		endloop
	endfacet
	facet normal -0.05098240966151924 0.9986543924558361 -0.00949728033545828
		outer loop
			vertex -2.0147273540496826 0 4.50102424621582
			vertex -2.2113840579986572 0 5.556698322296143
			vertex -0.972614586353302 0.05141962319612503 4.313708782196045
		endloop
	endfacet
	facet normal -0.0012450794426406109 0.9991951543452866 0.04009355696468609
		outer loop
			vertex -0.972614586353302 0.05141962319612503 4.313708782196045
			vertex -2.2113840579986572 0 5.556698322296143
			vertex -0.6249135136604309 0 5.6059651374816895
		endloop
	endfacet
	facet normal 0 1 0
		outer loop
			vertex -0.6727345585823059 0 -5.685319900512695
			vertex -0.66652512550354 0 -4.275021076202393
			vertex 0.29403820633888245 0 -5.8525824546813965
		endloop
	endfacet
	facet normal 0 1 0
		outer loop
			vertex 0.29403820633888245 0 -5.8525824546813965
			vertex -0.66652512550354 0 -4.275021076202393
			vertex 0.24404552578926086 0 -4.170041561126709
		endloop
	endfacet
	facet normal 0.0849934050023903 0.6702908223160454 -0.7372152566414909
		outer loop
			vertex -0.66652512550354 0 -4.275021076202393
			vertex -0.5730661749839783 1.4938921928405762 -2.9059696197509766
			vertex 0.24404552578926086 0 -4.170041561126709
		endloop
	endfacet
	facet normal 0.5542057141645976 0.6931283857873829 -0.4609002790225728
		outer loop
			vertex 0.24404552578926086 0 -4.170041561126709
			vertex -0.5730661749839783 1.4938921928405762 -2.9059696197509766
			vertex 0.6462679505348206 0 -3.6863925457000732
		endloop
	endfacet
	facet normal -0.19436138485020288 0.3248842645718278 -0.9255667813360278
		outer loop
			vertex -0.5730661749839783 1.4938921928405762 -2.9059696197509766
			vertex -0.4930553734302521 3.6255970001220703 -2.1745190620422363
			vertex 0.6462679505348206 0 -3.6863925457000732
		endloop
	endfacet
	facet normal 0.25847532576197824 0.4398697737218036 -0.860061095584592
		outer loop
			vertex 0.6462679505348206 0 -3.6863925457000732
			vertex -0.4930553734302521 3.6255970001220703 -2.1745190620422363
			vertex 0.6075664758682251 3.978297710418701 -1.6633623838424683
		endloop
	endfacet
	facet normal 0.34859449395465963 0.2292797538137506 -0.9087973774585845
		outer loop
			vertex -0.4930553734302521 3.6255970001220703 -2.1745190620422363
			vertex -0.563181459903717 8.734225273132324 -0.9125661849975586
			vertex 0.6075664758682251 3.978297710418701 -1.6633623838424683
		endloop
	endfacet
	facet normal 0.6357912590651963 0.27062530708825666 -0.7228633467396719
		outer loop
			vertex 0.6075664758682251 3.978297710418701 -1.6633623838424683
			vertex -0.563181459903717 8.734225273132324 -0.9125661849975586
			vertex 0.7890412211418152 5.288564682006836 -1.0132098197937012
		endloop
	endfacet
	facet normal 0.6109135797878664 0.261574188779501 -0.7472372727555286
		outer loop
			vertex -0.563181459903717 8.734225273132324 -0.9125661849975586
			vertex -0.3767104744911194 12.151277542114258 0.43604204058647156
			vertex 0.7890412211418152 5.288564682006836 -1.0132098197937012
		endloop
	endfacet
	facet normal 0.9730179622971564 0.19223148600334974 -0.12760525395152725
		outer loop
			vertex 0.7890412211418152 5.288564682006836 -1.0132098197937012
			vertex -0.3767104744911194 12.151277542114258 0.43604204058647156
			vertex 0.8143727779388428 6.410953521728516 0.870776355266571
		endloop
	endfacet
	facet normal 0.5965055589039948 0.18295539430097277 0.7814783694337347
		outer loop
			vertex -0.3767104744911194 12.151277542114258 0.43604204058647156
			vertex -0.5434659123420715 4.704877853393555 2.3066370487213135
			vertex 0.8143727779388428 6.410953521728516 0.870776355266571
		endloop
	endfacet
	facet normal 0.2342259520566852 0.5101079396076152 0.8276038263157157
		outer loop
			vertex 0.8143727779388428 6.410953521728516 0.870776355266571
			vertex -0.5434659123420715 4.704877853393555 2.3066370487213135
			vertex 0.28304144740104675 4.736052513122559 2.053506374359131
		endloop
	endfacet
	facet normal 0.27039318785808036 0.2887390743597662 0.9184319631294473
		outer loop
			vertex -0.5434659123420715 4.704877853393555 2.3066370487213135
			vertex -0.4694370925426483 1.8883898258209229 3.170297384262085
			vertex 0.28304144740104675 4.736052513122559 2.053506374359131
		endloop
	endfacet
	facet normal 0.2833572457984995 0.2843199887546897 0.9158989110420548
		outer loop
			vertex 0.28304144740104675 4.736052513122559 2.053506374359131
			vertex -0.4694370925426483 1.8883898258209229 3.170297384262085
			vertex 0.8312368988990784 1.7519422769546509 2.8102569580078125
		endloop
	endfacet
	facet normal 0.2817707439952702 0.45021355603484464 0.8472974694821246
		outer loop
			vertex -0.4694370925426483 1.8883898258209229 3.170297384262085
			vertex -0.972614586353302 0.05141962319612503 4.313708782196045
			vertex 0.8312368988990784 1.7519422769546509 2.8102569580078125
		endloop
	endfacet
	facet normal 0.04073252914963712 0.6372136328952897 0.7696100617335128
		outer loop
			vertex 0.8312368988990784 1.7519422769546509 2.8102569580078125
			vertex -0.972614586353302 0.05141962319612503 4.313708782196045
			vertex 0.8780926465988159 0 4.258331775665283
		endloop
	endfacet
	facet normal 0.028716372000736592 0.9990743867710393 0.032027170920753176
		outer loop
			vertex -0.972614586353302 0.05141962319612503 4.313708782196045
			vertex -0.6249135136604309 0 5.6059651374816895
			vertex 0.8780926465988159 0 4.258331775665283
		endloop
	endfacet
	facet normal 0 1 0
		outer loop
			vertex 0.8780926465988159 0 4.258331775665283
			vertex -0.6249135136604309 0 5.6059651374816895
			vertex 0.8088873624801636 0 5.794009208679199
		endloop
	endfacet
	facet normal 0 1 0
		outer loop
			vertex 0.29403820633888245 0 -5.8525824546813965
			vertex 0.24404552578926086 0 -4.170041561126709
			vertex 2.1165149211883545 0 -6.070496559143066
		endloop
	endfacet
	facet normal 0 1 0
		outer loop
			vertex 2.1165149211883545 0 -6.070496559143066
			vertex 0.24404552578926086 0 -4.170041561126709
			vertex 1.5092360973358154 0 -4.471677303314209
		endloop
	endfacet
	facet normal 0 1 0
		outer loop
			vertex 0.24404552578926086 0 -4.170041561126709
			vertex 0.6462679505348206 0 -3.6863925457000732
			vertex 1.5092360973358154 0 -4.471677303314209
		endloop
	endfacet
	facet normal -0.17694255371940865 0.964822228905085 -0.1944463918252995
		outer loop
			vertex 1.5092360973358154 0 -4.471677303314209
			vertex 0.6462679505348206 0 -3.6863925457000732
			vertex 1.5276422500610352 0.16670629382133484 -3.661247730255127
		endloop
	endfacet
	facet normal -0.060100713144353474 0.4519924085491781 -0.8899948128463745
		outer loop
			vertex 0.6462679505348206 0 -3.6863925457000732
			vertex 0.6075664758682251 3.978297710418701 -1.6633623838424683
			vertex 1.5276422500610352 0.16670629382133484 -3.661247730255127
		endloop
	endfacet
	facet normal -0.4506143707418936 0.32669543619328506 -0.8307928627831167
		outer loop
			vertex 1.5276422500610352 0.16670629382133484 -3.661247730255127
			vertex 0.6075664758682251 3.978297710418701 -1.6633623838424683
			vertex 2.2268736362457275 6.591318607330322 -1.5141327381134033
		endloop
	endfacet
	facet normal -0.6123845251231406 0.41782677067682017 -0.6711229269630754
		outer loop
			vertex 0.6075664758682251 3.978297710418701 -1.6633623838424683
			vertex 0.7890412211418152 5.288564682006836 -1.0132098197937012
			vertex 2.2268736362457275 6.591318607330322 -1.5141327381134033
		endloop
	endfacet
	facet normal -0.5943113273047662 0.7586097367825066 0.2670305478705074
		outer loop
			vertex 2.2268736362457275 6.591318607330322 -1.5141327381134033
			vertex 0.7890412211418152 5.288564682006836 -1.0132098197937012
			vertex 1.9850233793258667 5.941136360168457 -0.20529283583164215
		endloop
	endfacet
	facet normal -0.12330035492605976 0.8532713533772426 -0.5066803923390726
		outer loop
			vertex 0.7890412211418152 5.288564682006836 -1.0132098197937012
			vertex 0.8143727779388428 6.410953521728516 0.870776355266571
			vertex 1.9850233793258667 5.941136360168457 -0.20529283583164215
		endloop
	endfacet
	facet normal 0.6977228700368633 0.12154863264809669 0.7059806842463188
		outer loop
			vertex 1.9850233793258667 5.941136360168457 -0.20529283583164215
			vertex 0.8143727779388428 6.410953521728516 0.870776355266571
			vertex 1.785296082496643 3.5554416179656982 0.4028431177139282
		endloop
	endfacet
	facet normal 0.7862947002047229 0.1700149370897038 0.5939996343402488
		outer loop
			vertex 0.8143727779388428 6.410953521728516 0.870776355266571
			vertex 0.28304144740104675 4.736052513122559 2.053506374359131
			vertex 1.785296082496643 3.5554416179656982 0.4028431177139282
		endloop
	endfacet
	facet normal 0.8025122211249829 0.39070740863170583 0.45091224843127087
		outer loop
			vertex 1.785296082496643 3.5554416179656982 0.4028431177139282
			vertex 0.28304144740104675 4.736052513122559 2.053506374359131
			vertex 2.1536107063293457 0.6389163732528687 2.27445125579834
		endloop
	endfacet
	facet normal 0.5635644671244441 0.2988287596514068 0.7701275633295713
		outer loop
			vertex 0.28304144740104675 4.736052513122559 2.053506374359131
			vertex 0.8312368988990784 1.7519422769546509 2.8102569580078125
			vertex 2.1536107063293457 0.6389163732528687 2.27445125579834
		endloop
	endfacet
	facet normal 0.6592306570582939 0.5232691572822693 0.5400040090884456
		outer loop
			vertex 2.1536107063293457 0.6389163732528687 2.27445125579834
			vertex 0.8312368988990784 1.7519422769546509 2.8102569580078125
			vertex 1.8793458938598633 0.2884787917137146 2.948848009109497
		endloop
	endfacet
	facet normal 0.6279365268792261 0.5057377396112492 0.5915446364761998
		outer loop
			vertex 0.8312368988990784 1.7519422769546509 2.8102569580078125
			vertex 0.8780926465988159 0 4.258331775665283
			vertex 1.8793458938598633 0.2884787917137146 2.948848009109497
		endloop
	endfacet
	facet normal -0.10295947511737367 0.9850273707914816 0.13827662591767337
		outer loop
			vertex 1.8793458938598633 0.2884787917137146 2.948848009109497
			vertex 0.8780926465988159 0 4.258331775665283
			vertex 1.8030633926391602 0 4.947056293487549
		endloop
	endfacet
	facet normal 0 1 0
		outer loop
			vertex 0.8780926465988159 0 4.258331775665283
			vertex 0.8088873624801636 0 5.794009208679199
			vertex 1.8030633926391602 0 4.947056293487549
		endloop
	endfacet
	facet normal 0 1 0
		outer loop
			vertex 1.8030633926391602 0 4.947056293487549
			vertex 0.8088873624801636 0 5.794009208679199
			vertex 2.21897292137146 0 5.7954511642456055
		endloop
	endfacet
	facet normal 0 1 0
		outer loop
			vertex 2.1165149211883545 0 -6.070496559143066
			vertex 1.5092360973358154 0 -4.471677303314209
			vertex 3.113025426864624 0 -5.7953715324401855
		endloop
	endfacet
	facet normal -0.07462280349750613 0.9931046845032132 -0.09041306772777014
		outer loop
			vertex 3.113025426864624 0 -5.7953715324401855
			vertex 1.5092360973358154 0 -4.471677303314209
			vertex 3.2626826763153076 0.0843459963798523 -4.992428302764893
		endloop
	endfacet
	facet normal -0.10569367146086586 0.9744767034117243 -0.19805050447030217
		outer loop
			vertex 1.5092360973358154 0 -4.471677303314209
			vertex 1.5276422500610352 0.16670629382133484 -3.661247730255127
			vertex 3.2626826763153076 0.0843459963798523 -4.992428302764893
		endloop
	endfacet
	facet normal -0.19422653141859011 0.9304460983562288 -0.31071870324583706
		outer loop
			vertex 3.2626826763153076 0.0843459963798523 -4.992428302764893
			vertex 1.5276422500610352 0.16670629382133484 -3.661247730255127
			vertex 3.0316755771636963 0.7068943977355957 -2.983809471130371
		endloop
	endfacet
	facet normal 0.3130458957853869 0.27021522910844076 -0.910486681445587
		outer loop
			vertex 1.5276422500610352 0.16670629382133484 -3.661247730255127
			vertex 2.2268736362457275 6.591318607330322 -1.5141327381134033
			vertex 3.0316755771636963 0.7068943977355957 -2.983809471130371
		endloop
	endfacet
	facet normal 0.8519851317907889 0.23355702627561487 -0.4685855852293408
		outer loop
			vertex 3.0316755771636963 0.7068943977355957 -2.983809471130371
			vertex 2.2268736362457275 6.591318607330322 -1.5141327381134033
			vertex 3.0277459621429443 2.464655876159668 -2.1148335933685303
		endloop
	endfacet
	facet normal 0.9564808267051931 0.1491165258690544 0.2508160478480078
		outer loop
			vertex 2.2268736362457275 6.591318607330322 -1.5141327381134033
			vertex 1.9850233793258667 5.941136360168457 -0.20529283583164215
			vertex 3.0277459621429443 2.464655876159668 -2.1148335933685303
		endloop
	endfacet
	facet normal 0.9036181163876256 0.3798073014705511 -0.19804220127472213
		outer loop
			vertex 3.0277459621429443 2.464655876159668 -2.1148335933685303
			vertex 1.9850233793258667 5.941136360168457 -0.20529283583164215
			vertex 3.5709598064422607 2.0171027183532715 -0.49460360407829285
		endloop
	endfacet
	facet normal 0.5512557867581821 0.16245893262380887 0.8183667593300392
		outer loop
			vertex 1.9850233793258667 5.941136360168457 -0.20529283583164215
			vertex 1.785296082496643 3.5554416179656982 0.4028431177139282
			vertex 3.5709598064422607 2.0171027183532715 -0.49460360407829285
		endloop
	endfacet
	facet normal 0.7003749617864417 0.5420777017622431 0.46435619749800394
		outer loop
			vertex 3.5709598064422607 2.0171027183532715 -0.49460360407829285
			vertex 1.785296082496643 3.5554416179656982 0.4028431177139282
			vertex 2.881606340408325 2.0500082969665527 0.5067150592803955
		endloop
	endfacet
	facet normal 0.603477189174033 0.48323694539062184 0.6342691359006439
		outer loop
			vertex 1.785296082496643 3.5554416179656982 0.4028431177139282
			vertex 2.1536107063293457 0.6389163732528687 2.27445125579834
			vertex 2.881606340408325 2.0500082969665527 0.5067150592803955
		endloop
	endfacet
	facet normal 0.3841022620709546 0.6379625873706851 0.6674347828719123
		outer loop
			vertex 2.881606340408325 2.0500082969665527 0.5067150592803955
			vertex 2.1536107063293457 0.6389163732528687 2.27445125579834
			vertex 3.1663026809692383 0 2.3023602962493896
		endloop
	endfacet
	facet normal 0.43542535025447515 0.7140997827669368 0.5481480316556665
		outer loop
			vertex 2.1536107063293457 0.6389163732528687 2.27445125579834
			vertex 1.8793458938598633 0.2884787917137146 2.948848009109497
			vertex 3.1663026809692383 0 2.3023602962493896
		endloop
	endfacet
	facet normal 0.2246882000091248 0.9743504651016469 0.012505356167012455
		outer loop
			vertex 3.1663026809692383 0 2.3023602962493896
			vertex 1.8793458938598633 0.2884787917137146 2.948848009109497
			vertex 3.106586456298828 0 3.375303030014038
		endloop
	endfacet
	facet normal 0.1775544298174434 0.9730317609112419 0.14725357961751098
		outer loop
			vertex 1.8793458938598633 0.2884787917137146 2.948848009109497
			vertex 1.8030633926391602 0 4.947056293487549
			vertex 3.106586456298828 0 3.375303030014038
		endloop
	endfacet
	facet normal 0 1 0
		outer loop
			vertex 3.106586456298828 0 3.375303030014038
			vertex 1.8030633926391602 0 4.947056293487549
			vertex 2.892671585083008 0 4.425848484039307
		endloop
	endfacet
	facet normal 0 1 0
		outer loop
			vertex 1.8030633926391602 0 4.947056293487549
			vertex 2.21897292137146 0 5.7954511642456055
			vertex 2.892671585083008 0 4.425848484039307
		endloop
	endfacet
	facet normal -0.168647644571596 0.43651717378634136 -0.8837481139838645
		outer loop
			vertex 3.0316755771636963 0.7068943977355957 -2.983809471130371
			vertex 3.0277459621429443 2.464655876159668 -2.1148335933685303
			vertex 4.786540985107422 1.146000862121582 -3.1018028259277344
		endloop
	endfacet
	facet normal 0.6212447404930479 0.7810350815198126 0.06355449508150948
		outer loop
			vertex 4.786540985107422 1.146000862121582 -3.1018028259277344
			vertex 3.0277459621429443 2.464655876159668 -2.1148335933685303
			vertex 4.5039567947387695 1.2634954452514648 -1.7834609746932983
		endloop
	endfacet
	facet normal 0.6307518731317074 0.7759792565454968 0.002875404656821804
		outer loop
			vertex 3.0277459621429443 2.464655876159668 -2.1148335933685303
			vertex 3.5709598064422607 2.0171027183532715 -0.49460360407829285
			vertex 4.5039567947387695 1.2634954452514648 -1.7834609746932983
		endloop
	endfacet
	facet normal 0.8151430750779673 0.4952011313281686 0.30052887828582675
		outer loop
			vertex 4.5039567947387695 1.2634954452514648 -1.7834609746932983
			vertex 3.5709598064422607 2.0171027183532715 -0.49460360407829285
			vertex 4.772532939910889 0.24350465834140778 -0.8312309980392456
		endloop
	endfacet
	facet normal 0.7554639852333811 0.41568899495564443 0.5064354119609571
		outer loop
			vertex 3.5709598064422607 2.0171027183532715 -0.49460360407829285
			vertex 2.881606340408325 2.0500082969665527 0.5067150592803955
			vertex 4.772532939910889 0.24350465834140778 -0.8312309980392456
		endloop
	endfacet
	facet normal 0.7357370772785662 0.6610675455410788 0.14724351717439713
		outer loop
			vertex 4.772532939910889 0.24350465834140778 -0.8312309980392456
			vertex 2.881606340408325 2.0500082969665527 0.5067150592803955
			vertex 4.680800914764404 0 0.7203733325004578
		endloop
	endfacet
	facet normal 0.590089499677918 0.5767707244249931 0.5649158466675661
		outer loop
			vertex 2.881606340408325 2.0500082969665527 0.5067150592803955
			vertex 3.1663026809692383 0 2.3023602962493896
			vertex 4.680800914764404 0 0.7203733325004578
		endloop
	endfacet
	facet normal 0 1 0
		outer loop
			vertex 4.680800914764404 0 0.7203733325004578
			vertex 3.1663026809692383 0 2.3023602962493896
			vertex 4.39022159576416 0 2.185241937637329
		endloop
	endfacet
	facet normal 0 1 0
		outer loop
			vertex 3.1663026809692383 0 2.3023602962493896
			vertex 3.106586456298828 0 3.375303030014038
			vertex 4.39022159576416 0 2.185241937637329
		endloop
	endfacet
	facet normal 0 1 0
		outer loop
			vertex 4.39022159576416 0 2.185241937637329
			vertex 3.106586456298828 0 3.375303030014038
			vertex 4.445717811584473 0 3.0421130657196045
		endloop
	endfacet
	facet normal 0 1 0
		outer loop
			vertex 3.106586456298828 0 3.375303030014038
			vertex 2.892671585083008 0 4.425848484039307
			vertex 4.445717811584473 0 3.0421130657196045
		endloop
	endfacet
	facet normal 0 1 0
		outer loop
			vertex 4.445717811584473 0 3.0421130657196045
			vertex 2.892671585083008 0 4.425848484039307
			vertex 4.478212356567383 0 4.381331920623779
		endloop
	endfacet
	facet normal 0.7248390310931084 0.6823991403009588 0.09455047498831688
		outer loop
			vertex 4.786540985107422 1.146000862121582 -3.1018028259277344
			vertex 4.5039567947387695 1.2634954452514648 -1.7834609746932983
			vertex 5.868810653686523 0 -3.1276228427886963
		endloop
	endfacet
	facet normal 0.4924798727749594 0.8254508034948005 -0.2758523987957114
		outer loop
			vertex 5.868810653686523 0 -3.1276228427886963
			vertex 4.5039567947387695 1.2634954452514648 -1.7834609746932983
			vertex 5.703972339630127 0.45194023847579956 -2.0695393085479736
		endloop
	endfacet
	facet normal 0.5585544242504487 0.6398467014652575 0.5278381890070853
		outer loop
			vertex 4.5039567947387695 1.2634954452514648 -1.7834609746932983
			vertex 4.772532939910889 0.24350465834140778 -0.8312309980392456
			vertex 5.703972339630127 0.45194023847579956 -2.0695393085479736
		endloop
	endfacet
	facet normal 0.16707911305954012 0.9439836826765438 0.2845687558739856
		outer loop
			vertex 5.703972339630127 0.45194023847579956 -2.0695393085479736
			vertex 4.772532939910889 0.24350465834140778 -0.8312309980392456
			vertex 5.869025707244873 0.026918234303593636 -0.7565460205078125
		endloop
	endfacet
	facet normal 0.18050345058744233 0.9699908891060852 0.16289929213232654
		outer loop
			vertex 4.772532939910889 0.24350465834140778 -0.8312309980392456
			vertex 4.680800914764404 0 0.7203733325004578
			vertex 5.869025707244873 0.026918234303593636 -0.7565460205078125
		endloop
	endfacet
	facet normal 0.004140767449674255 0.999759134001837 0.021552912212153903
		outer loop
			vertex 5.869025707244873 0.026918234303593636 -0.7565460205078125
			vertex 4.680800914764404 0 0.7203733325004578
			vertex 6.021609783172607 0 0.4627757668495178
		endloop
	endfacet
	facet normal 0 1 0
		outer loop
			vertex 4.680800914764404 0 0.7203733325004578
			vertex 4.39022159576416 0 2.185241937637329
			vertex 6.021609783172607 0 0.4627757668495178
		endloop
	endfacet
	facet normal 0 1 0
		outer loop
			vertex 6.021609783172607 0 0.4627757668495178
			vertex 4.39022159576416 0 2.185241937637329
			vertex 5.590086936950684 0 1.7286139726638794
		endloop
	endfacet
	facet normal 0 1 0
		outer loop
			vertex 4.39022159576416 0 2.185241937637329
			vertex 4.445717811584473 0 3.0421130657196045
			vertex 5.590086936950684 0 1.7286139726638794
		endloop
	endfacet
	facet normal 0.9779682898521611 0 -0.2087535006739761
		outer loop
			vertex -5.81101655960083 0 -2.3773813247680664
			vertex -5.413774013519287 0 -0.5163796544075012
			vertex -5.413774013519287 -0.9750000238418579 -0.5163796544075012
		endloop
	endfacet
	facet normal 0.9779682898521611 0 -0.2087535006739761
		outer loop
			vertex -5.81101655960083 0 -2.3773813247680664
			vertex -5.413774013519287 -0.9750000238418579 -0.5163796544075012
			vertex -5.81101655960083 -0.9750000238418579 -2.3773813247680664
		endloop
	endfacet
	facet normal 0 -1 0
		outer loop
			vertex -5.413774013519287 -0.9750000238418579 -0.5163796544075012
			vertex -5.81101655960083 -0.9750000238418579 -2.3773813247680664
			vertex 0 -0.9750000238418579 0
		endloop
	endfacet
	facet normal -0.29593793810037317 0 0.9552071695673666
		outer loop
			vertex -4.488049507141113 0 -1.967505693435669
			vertex -5.81101655960083 0 -2.3773813247680664
			vertex -5.81101655960083 -0.9750000238418579 -2.3773813247680664
		endloop
	endfacet
	facet normal -0.29593793810037317 0 0.9552071695673666
		outer loop
			vertex -4.488049507141113 0 -1.967505693435669
			vertex -5.81101655960083 -0.9750000238418579 -2.3773813247680664
			vertex -4.488049507141113 -0.9750000238418579 -1.967505693435669
		endloop
	endfacet
	facet normal 0 -1 0
		outer loop
			vertex -5.81101655960083 -0.9750000238418579 -2.3773813247680664
			vertex -4.488049507141113 -0.9750000238418579 -1.967505693435669
			vertex 0 -0.9750000238418579 0
		endloop
	endfacet
	facet normal 0.9689075564433121 0 0.24742301240396056
		outer loop
			vertex -5.413774013519287 0 -0.5163796544075012
			vertex -5.748620986938477 0 0.7948797941207886
			vertex -5.748620986938477 -0.9750000238418579 0.7948797941207886
		endloop
	endfacet
	facet normal 0.9689075564433121 0 0.24742301240396056
		outer loop
			vertex -5.413774013519287 0 -0.5163796544075012
			vertex -5.748620986938477 -0.9750000238418579 0.7948797941207886
			vertex -5.413774013519287 -0.9750000238418579 -0.5163796544075012
		endloop
	endfacet
	facet normal 0 -1 0
		outer loop
			vertex -5.748620986938477 -0.9750000238418579 0.7948797941207886
			vertex -5.413774013519287 -0.9750000238418579 -0.5163796544075012
			vertex 0 -0.9750000238418579 0
		endloop
	endfacet
	facet normal 0.966371979165633 0 0.25714820217823314
		outer loop
			vertex -5.748620986938477 0 0.7948797941207886
			vertex -6.056082248687744 0 1.9503300189971924
			vertex -6.056082248687744 -0.9750000238418579 1.9503300189971924
		endloop
	endfacet
	facet normal 0.966371979165633 0 0.25714820217823314
		outer loop
			vertex -5.748620986938477 0 0.7948797941207886
			vertex -6.056082248687744 -0.9750000238418579 1.9503300189971924
			vertex -5.748620986938477 -0.9750000238418579 0.7948797941207886
		endloop
	endfacet
	facet normal 0 -1 0
		outer loop
			vertex -6.056082248687744 -0.9750000238418579 1.9503300189971924
			vertex -5.748620986938477 -0.9750000238418579 0.7948797941207886
			vertex 0 -0.9750000238418579 0
		endloop
	endfacet
	facet normal 0.046634550651417236 0 -0.9989120174897991
		outer loop
			vertex -6.056082248687744 0 1.9503300189971924
			vertex -4.3982720375061035 0.04255726560950279 2.0277254581451416
			vertex -4.3982720375061035 -0.9750000238418579 2.0277254581451416
		endloop
	endfacet
	facet normal 0.046634550651417236 0 -0.998912017489799
		outer loop
			vertex -6.056082248687744 0 1.9503300189971924
			vertex -4.3982720375061035 -0.9750000238418579 2.0277254581451416
			vertex -6.056082248687744 -0.9750000238418579 1.9503300189971924
		endloop
	endfacet
	facet normal 0 -1 0
		outer loop
			vertex -4.3982720375061035 -0.9750000238418579 2.0277254581451416
			vertex -6.056082248687744 -0.9750000238418579 1.9503300189971924
			vertex 0 -0.9750000238418579 0
		endloop
	endfacet
	facet normal 0.9933827004147214 0 -0.11485125387541877
		outer loop
			vertex -4.257286548614502 0 -4.346906661987305
			vertex -4.132198810577393 0 -3.2649855613708496
			vertex -4.132198810577393 -0.9750000238418579 -3.2649855613708496
		endloop
	endfacet
	facet normal 0.9933827004147214 0 -0.11485125387541877
		outer loop
			vertex -4.257286548614502 0 -4.346906661987305
			vertex -4.132198810577393 -0.9750000238418579 -3.2649855613708496
			vertex -4.257286548614502 -0.9750000238418579 -4.346906661987305
		endloop
	endfacet
	facet normal 0 -1 0
		outer loop
			vertex -4.132198810577393 -0.9750000238418579 -3.2649855613708496
			vertex -4.257286548614502 -0.9750000238418579 -4.346906661987305
			vertex 0 -0.9750000238418579 0
		endloop
	endfacet
	facet normal -0.00225731647854729 0 0.9999974522579124
		outer loop
			vertex -3.303959608078003 0 -4.344754695892334
			vertex -4.257286548614502 0 -4.346906661987305
			vertex -4.257286548614502 -0.9750000238418579 -4.346906661987305
		endloop
	endfacet
	facet normal -0.00225731647854729 0 0.9999974522579124
		outer loop
			vertex -3.303959608078003 0 -4.344754695892334
			vertex -4.257286548614502 -0.9750000238418579 -4.346906661987305
			vertex -3.303959608078003 -0.9750000238418579 -4.344754695892334
		endloop
	endfacet
	facet normal 0 -1 0
		outer loop
			vertex -4.257286548614502 -0.9750000238418579 -4.346906661987305
			vertex -3.303959608078003 -0.9750000238418579 -4.344754695892334
			vertex 0 -0.9750000238418579 0
		endloop
	endfacet
	facet normal 0.9643868859399529 0 0.26449562232112733
		outer loop
			vertex -4.132198810577393 0 -3.2649855613708496
			vertex -4.488049507141113 0 -1.967505693435669
			vertex -4.488049507141113 -0.9750000238418579 -1.967505693435669
		endloop
	endfacet
	facet normal 0.9643868859399529 0 0.26449562232112733
		outer loop
			vertex -4.132198810577393 0 -3.2649855613708496
			vertex -4.488049507141113 -0.9750000238418579 -1.967505693435669
			vertex -4.132198810577393 -0.9750000238418579 -3.2649855613708496
		endloop
	endfacet
	facet normal 0 -1 0
		outer loop
			vertex -4.488049507141113 -0.9750000238418579 -1.967505693435669
			vertex -4.132198810577393 -0.9750000238418579 -3.2649855613708496
			vertex 0 -0.9750000238418579 0
		endloop
	endfacet
	facet normal 0.982273716758431 0 -0.18745224822759
		outer loop
			vertex -4.3982720375061035 0.04255726560950279 2.0277254581451416
			vertex -4.195724010467529 0 3.0891029834747314
			vertex -4.195724010467529 -0.9750000238418579 3.0891029834747314
		endloop
	endfacet
	facet normal 0.982273716758431 0 -0.18745224822759
		outer loop
			vertex -4.3982720375061035 0.04255726560950279 2.0277254581451416
			vertex -4.195724010467529 -0.9750000238418579 3.0891029834747314
			vertex -4.3982720375061035 -0.9750000238418579 2.0277254581451416
		endloop
	endfacet
	facet normal 0 -1 0
		outer loop
			vertex -4.195724010467529 -0.9750000238418579 3.0891029834747314
			vertex -4.3982720375061035 -0.9750000238418579 2.0277254581451416
			vertex 0 -0.9750000238418579 0
		endloop
	endfacet
	facet normal -0.0485045476989443 0 -0.9988229617167003
		outer loop
			vertex -4.195724010467529 0 3.0891029834747314
			vertex -3.673224687576294 0.0872790589928627 3.0637295246124268
			vertex -3.673224687576294 -0.9750000238418579 3.0637295246124268
		endloop
	endfacet
	facet normal -0.0485045476989443 0 -0.9988229617167004
		outer loop
			vertex -4.195724010467529 0 3.0891029834747314
			vertex -3.673224687576294 -0.9750000238418579 3.0637295246124268
			vertex -4.195724010467529 -0.9750000238418579 3.0891029834747314
		endloop
	endfacet
	facet normal 0 -1 0
		outer loop
			vertex -3.673224687576294 -0.9750000238418579 3.0637295246124268
			vertex -4.195724010467529 -0.9750000238418579 3.0891029834747314
			vertex 0 -0.9750000238418579 0
		endloop
	endfacet
	facet normal 0.9817634348301422 0 0.19010670169807653
		outer loop
			vertex -3.074122428894043 0 -5.5316972732543945
			vertex -3.303959608078003 0 -4.344754695892334
			vertex -3.303959608078003 -0.9750000238418579 -4.344754695892334
		endloop
	endfacet
	facet normal 0.9817634348301422 0 0.19010670169807653
		outer loop
			vertex -3.074122428894043 0 -5.5316972732543945
			vertex -3.303959608078003 -0.9750000238418579 -4.344754695892334
			vertex -3.074122428894043 -0.9750000238418579 -5.5316972732543945
		endloop
	endfacet
	facet normal 0 -1 0
		outer loop
			vertex -3.303959608078003 -0.9750000238418579 -4.344754695892334
			vertex -3.074122428894043 -0.9750000238418579 -5.5316972732543945
			vertex 0 -0.9750000238418579 0
		endloop
	endfacet
	facet normal 0.08043931984842317 0 0.9967595075153902
		outer loop
			vertex -1.5406074523925781 0 -5.655453205108643
			vertex -3.074122428894043 0 -5.5316972732543945
			vertex -3.074122428894043 -0.9750000238418579 -5.5316972732543945
		endloop
	endfacet
	facet normal 0.08043931984842317 0 0.9967595075153902
		outer loop
			vertex -1.5406074523925781 0 -5.655453205108643
			vertex -3.074122428894043 -0.9750000238418579 -5.5316972732543945
			vertex -1.5406074523925781 -0.9750000238418579 -5.655453205108643
		endloop
	endfacet
	facet normal 0 -1 0
		outer loop
			vertex -3.074122428894043 -0.9750000238418579 -5.5316972732543945
			vertex -1.5406074523925781 -0.9750000238418579 -5.655453205108643
			vertex 0 -0.9750000238418579 0
		endloop
	endfacet
	facet normal 0.9897710039026497 0 -0.14266520190130907
		outer loop
			vertex -3.673224687576294 0.0872790589928627 3.0637295246124268
			vertex -3.460062026977539 0 4.5425920486450195
			vertex -3.460062026977539 -0.9750000238418579 4.5425920486450195
		endloop
	endfacet
	facet normal 0.9897710039026497 0 -0.1426652019013091
		outer loop
			vertex -3.673224687576294 0.0872790589928627 3.0637295246124268
			vertex -3.460062026977539 -0.9750000238418579 4.5425920486450195
			vertex -3.673224687576294 -0.9750000238418579 3.0637295246124268
		endloop
	endfacet
	facet normal 0 -1 0
		outer loop
			vertex -3.460062026977539 -0.9750000238418579 4.5425920486450195
			vertex -3.673224687576294 -0.9750000238418579 3.0637295246124268
			vertex 0 -0.9750000238418579 0
		endloop
	endfacet
	facet normal -0.028748097404251965 0 -0.9995866880344274
		outer loop
			vertex -3.460062026977539 0 4.5425920486450195
			vertex -2.0147273540496826 0 4.50102424621582
			vertex -2.0147273540496826 -0.9750000238418579 4.50102424621582
		endloop
	endfacet
	facet normal -0.028748097404251965 0 -0.9995866880344274
		outer loop
			vertex -3.460062026977539 0 4.5425920486450195
			vertex -2.0147273540496826 -0.9750000238418579 4.50102424621582
			vertex -3.460062026977539 -0.9750000238418579 4.5425920486450195
		endloop
	endfacet
	facet normal 0 -1 0
		outer loop
			vertex -2.0147273540496826 -0.9750000238418579 4.50102424621582
			vertex -3.460062026977539 -0.9750000238418579 4.5425920486450195
			vertex 0 -0.9750000238418579 0
		endloop
	endfacet
	facet normal 0.034393314656533294 0 0.9994083749433647
		outer loop
			vertex -0.6727345585823059 0 -5.685319900512695
			vertex -1.5406074523925781 0 -5.655453205108643
			vertex -1.5406074523925781 -0.9750000238418579 -5.655453205108643
		endloop
	endfacet
	facet normal 0.034393314656533294 0 0.9994083749433647
		outer loop
			vertex -0.6727345585823059 0 -5.685319900512695
			vertex -1.5406074523925781 -0.9750000238418579 -5.655453205108643
			vertex -0.6727345585823059 -0.9750000238418579 -5.685319900512695
		endloop
	endfacet
	facet normal 0 -1 0
		outer loop
			vertex -1.5406074523925781 -0.9750000238418579 -5.655453205108643
			vertex -0.6727345585823059 -0.9750000238418579 -5.685319900512695
			vertex 0 -0.9750000238418579 0
		endloop
	endfacet
	facet normal 0.9830877862296721 0 0.18313493540568068
		outer loop
			vertex -2.0147273540496826 0 4.50102424621582
			vertex -2.2113840579986572 0 5.556698322296143
			vertex -2.2113840579986572 -0.9750000238418579 5.556698322296143
		endloop
	endfacet
	facet normal 0.9830877862296721 0 0.18313493540568068
		outer loop
			vertex -2.0147273540496826 0 4.50102424621582
			vertex -2.2113840579986572 -0.9750000238418579 5.556698322296143
			vertex -2.0147273540496826 -0.9750000238418579 4.50102424621582
		endloop
	endfacet
	facet normal 0 -1 0
		outer loop
			vertex -2.2113840579986572 -0.9750000238418579 5.556698322296143
			vertex -2.0147273540496826 -0.9750000238418579 4.50102424621582
			vertex 0 -0.9750000238418579 0
		endloop
	endfacet
	facet normal 0.031039389127899244 0 -0.9995181620773916
		outer loop
			vertex -2.2113840579986572 0 5.556698322296143
			vertex -0.6249135136604309 0 5.6059651374816895
			vertex -0.6249135136604309 -0.9750000238418579 5.6059651374816895
		endloop
	endfacet
	facet normal 0.031039389127899244 0 -0.9995181620773916
		outer loop
			vertex -2.2113840579986572 0 5.556698322296143
			vertex -0.6249135136604309 -0.9750000238418579 5.6059651374816895
			vertex -2.2113840579986572 -0.9750000238418579 5.556698322296143
		endloop
	endfacet
	facet normal 0 -1 0
		outer loop
			vertex -0.6249135136604309 -0.9750000238418579 5.6059651374816895
			vertex -2.2113840579986572 -0.9750000238418579 5.556698322296143
			vertex 0 -0.9750000238418579 0
		endloop
	endfacet
	facet normal 0.17047859349695182 0 0.9853613799816294
		outer loop
			vertex 0.29403820633888245 0 -5.8525824546813965
			vertex -0.6727345585823059 0 -5.685319900512695
			vertex -0.6727345585823059 -0.9750000238418579 -5.685319900512695
		endloop
	endfacet
	facet normal 0.17047859349695182 0 0.9853613799816294
		outer loop
			vertex 0.29403820633888245 0 -5.8525824546813965
			vertex -0.6727345585823059 -0.9750000238418579 -5.685319900512695
			vertex 0.29403820633888245 -0.9750000238418579 -5.8525824546813965
		endloop
	endfacet
	facet normal 0 -1 0
		outer loop
			vertex -0.6727345585823059 -0.9750000238418579 -5.685319900512695
			vertex 0.29403820633888245 -0.9750000238418579 -5.8525824546813965
			vertex 0 -0.9750000238418579 0
		endloop
	endfacet
	facet normal 0.1300371722065492 0 -0.9915091193955425
		outer loop
			vertex -0.6249135136604309 0 5.6059651374816895
			vertex 0.8088873624801636 0 5.794009208679199
			vertex 0.8088873624801636 -0.9750000238418579 5.794009208679199
		endloop
	endfacet
	facet normal 0.1300371722065492 0 -0.9915091193955425
		outer loop
			vertex -0.6249135136604309 0 5.6059651374816895
			vertex 0.8088873624801636 -0.9750000238418579 5.794009208679199
			vertex -0.6249135136604309 -0.9750000238418579 5.6059651374816895
		endloop
	endfacet
	facet normal 0 -1 0
		outer loop
			vertex 0.8088873624801636 -0.9750000238418579 5.794009208679199
			vertex -0.6249135136604309 -0.9750000238418579 5.6059651374816895
			vertex 0 -0.9750000238418579 0
		endloop
	endfacet
	facet normal 0.11872461489067314 0 0.9929272208067728
		outer loop
			vertex 2.1165149211883545 0 -6.070496559143066
			vertex 0.29403820633888245 0 -5.8525824546813965
			vertex 0.29403820633888245 -0.9750000238418579 -5.8525824546813965
		endloop
	endfacet
	facet normal 0.11872461489067314 0 0.9929272208067728
		outer loop
			vertex 2.1165149211883545 0 -6.070496559143066
			vertex 0.29403820633888245 -0.9750000238418579 -5.8525824546813965
			vertex 2.1165149211883545 -0.9750000238418579 -6.070496559143066
		endloop
	endfacet
	facet normal 0 -1 0
		outer loop
			vertex 0.29403820633888245 -0.9750000238418579 -5.8525824546813965
			vertex 2.1165149211883545 -0.9750000238418579 -6.070496559143066
			vertex 0 -0.9750000238418579 0
		endloop
	endfacet
	facet normal 0.0010226009360766793 0 -0.9999994771435262
		outer loop
			vertex 0.8088873624801636 0 5.794009208679199
			vertex 2.21897292137146 0 5.7954511642456055
			vertex 2.21897292137146 -0.9750000238418579 5.7954511642456055
		endloop
	endfacet
	facet normal 0.0010226009360766793 0 -0.9999994771435262
		outer loop
			vertex 0.8088873624801636 0 5.794009208679199
			vertex 2.21897292137146 -0.9750000238418579 5.7954511642456055
			vertex 0.8088873624801636 -0.9750000238418579 5.794009208679199
		endloop
	endfacet
	facet normal 0 -1 0
		outer loop
			vertex 2.21897292137146 -0.9750000238418579 5.7954511642456055
			vertex 0.8088873624801636 -0.9750000238418579 5.794009208679199
			vertex 0 -0.9750000238418579 0
		endloop
	endfacet
	facet normal -0.2661317645213872 0 0.9639366596995536
		outer loop
			vertex 3.113025426864624 0 -5.7953715324401855
			vertex 2.1165149211883545 0 -6.070496559143066
			vertex 2.1165149211883545 -0.9750000238418579 -6.070496559143066
		endloop
	endfacet
	facet normal -0.2661317645213872 0 0.9639366596995536
		outer loop
			vertex 3.113025426864624 0 -5.7953715324401855
			vertex 2.1165149211883545 -0.9750000238418579 -6.070496559143066
			vertex 3.113025426864624 -0.9750000238418579 -5.7953715324401855
		endloop
	endfacet
	facet normal 0 -1 0
		outer loop
			vertex 2.1165149211883545 -0.9750000238418579 -6.070496559143066
			vertex 3.113025426864624 -0.9750000238418579 -5.7953715324401855
			vertex 0 -0.9750000238418579 0
		endloop
	endfacet
	facet normal -0.9830700106171448 0 0.18323033107323464
		outer loop
			vertex 3.2626826763153076 0.0843459963798523 -4.992428302764893
			vertex 3.113025426864624 0 -5.7953715324401855
			vertex 3.113025426864624 -0.9750000238418579 -5.7953715324401855
		endloop
	endfacet
	facet normal -0.9830700106171448 0 0.18323033107323464
		outer loop
			vertex 3.2626826763153076 0.0843459963798523 -4.992428302764893
			vertex 3.113025426864624 -0.9750000238418579 -5.7953715324401855
			vertex 3.2626826763153076 -0.9750000238418579 -4.992428302764893
		endloop
	endfacet
	facet normal 0 -1 0
		outer loop
			vertex 3.113025426864624 -0.9750000238418579 -5.7953715324401855
			vertex 3.2626826763153076 -0.9750000238418579 -4.992428302764893
			vertex 0 -0.9750000238418579 0
		endloop
	endfacet
	facet normal -0.9934514786956696 0 -0.11425480067545395
		outer loop
			vertex 3.0316755771636963 0.7068943977355957 -2.983809471130371
			vertex 3.2626826763153076 0.0843459963798523 -4.992428302764893
			vertex 3.2626826763153076 -0.9750000238418579 -4.992428302764893
		endloop
	endfacet
	facet normal -0.9934514786956695 0 -0.11425480067545393
		outer loop
			vertex 3.0316755771636963 0.7068943977355957 -2.983809471130371
			vertex 3.2626826763153076 -0.9750000238418579 -4.992428302764893
			vertex 3.0316755771636963 -0.9750000238418579 -2.983809471130371
		endloop
	endfacet
	facet normal 0 -1 0
		outer loop
			vertex 3.2626826763153076 -0.9750000238418579 -4.992428302764893
			vertex 3.0316755771636963 -0.9750000238418579 -2.983809471130371
			vertex 0 -0.9750000238418579 0
		endloop
	endfacet
	facet normal -0.897317901223348 0 -0.441384848113442
		outer loop
			vertex 2.21897292137146 0 5.7954511642456055
			vertex 2.892671585083008 0 4.425848484039307
			vertex 2.892671585083008 -0.9750000238418579 4.425848484039307
		endloop
	endfacet
	facet normal -0.897317901223348 0 -0.441384848113442
		outer loop
			vertex 2.21897292137146 0 5.7954511642456055
			vertex 2.892671585083008 -0.9750000238418579 4.425848484039307
			vertex 2.21897292137146 -0.9750000238418579 5.7954511642456055
		endloop
	endfacet
	facet normal 0 -1 0
		outer loop
			vertex 2.892671585083008 -0.9750000238418579 4.425848484039307
			vertex 2.21897292137146 -0.9750000238418579 5.7954511642456055
			vertex 0 -0.9750000238418579 0
		endloop
	endfacet
	facet normal 0.06708636205250293 0 0.9977471723971764
		outer loop
			vertex 4.786540985107422 1.146000862121582 -3.1018028259277344
			vertex 3.0316755771636963 0.7068943977355957 -2.983809471130371
			vertex 3.0316755771636963 -0.9750000238418579 -2.983809471130371
		endloop
	endfacet
	facet normal 0.06708636205250292 0 0.9977471723971763
		outer loop
			vertex 4.786540985107422 1.146000862121582 -3.1018028259277344
			vertex 3.0316755771636963 -0.9750000238418579 -2.983809471130371
			vertex 4.786540985107422 -0.9750000238418579 -3.1018028259277344
		endloop
	endfacet
	facet normal 0 -1 0
		outer loop
			vertex 3.0316755771636963 -0.9750000238418579 -2.983809471130371
			vertex 4.786540985107422 -0.9750000238418579 -3.1018028259277344
			vertex 0 -0.9750000238418579 0
		endloop
	endfacet
	facet normal -0.028065520927731916 0 -0.9996060856832831
		outer loop
			vertex 2.892671585083008 0 4.425848484039307
			vertex 4.478212356567383 0 4.381331920623779
			vertex 4.478212356567383 -0.9750000238418579 4.381331920623779
		endloop
	endfacet
	facet normal -0.028065520927731916 0 -0.9996060856832831
		outer loop
			vertex 2.892671585083008 0 4.425848484039307
			vertex 4.478212356567383 -0.9750000238418579 4.381331920623779
			vertex 2.892671585083008 -0.9750000238418579 4.425848484039307
		endloop
	endfacet
	facet normal 0 -1 0
		outer loop
			vertex 4.478212356567383 -0.9750000238418579 4.381331920623779
			vertex 2.892671585083008 -0.9750000238418579 4.425848484039307
			vertex 0 -0.9750000238418579 0
		endloop
	endfacet
	facet normal -0.9997057637998251 0 0.024256665587188416
		outer loop
			vertex 4.478212356567383 0 4.381331920623779
			vertex 4.445717811584473 0 3.0421130657196045
			vertex 4.445717811584473 -0.9750000238418579 3.0421130657196045
		endloop
	endfacet
	facet normal -0.9997057637998251 0 0.024256665587188416
		outer loop
			vertex 4.478212356567383 0 4.381331920623779
			vertex 4.445717811584473 -0.9750000238418579 3.0421130657196045
			vertex 4.478212356567383 -0.9750000238418579 4.381331920623779
		endloop
	endfacet
	facet normal 0 -1 0
		outer loop
			vertex 4.445717811584473 -0.9750000238418579 3.0421130657196045
			vertex 4.478212356567383 -0.9750000238418579 4.381331920623779
			vertex 0 -0.9750000238418579 0
		endloop
	endfacet
	facet normal 0.02385049933018458 0 0.9997155363810752
		outer loop
			vertex 5.868810653686523 0 -3.1276228427886963
			vertex 4.786540985107422 1.146000862121582 -3.1018028259277344
			vertex 4.786540985107422 -0.9750000238418579 -3.1018028259277344
		endloop
	endfacet
	facet normal 0.02385049933018458 0 0.9997155363810752
		outer loop
			vertex 5.868810653686523 0 -3.1276228427886963
			vertex 4.786540985107422 -0.9750000238418579 -3.1018028259277344
			vertex 5.868810653686523 -0.9750000238418579 -3.1276228427886963
		endloop
	endfacet
	facet normal 0 -1 0
		outer loop
			vertex 4.786540985107422 -0.9750000238418579 -3.1018028259277344
			vertex 5.868810653686523 -0.9750000238418579 -3.1276228427886963
			vertex 0 -0.9750000238418579 0
		endloop
	endfacet
	facet normal -0.9880813337662604 0 -0.15393270563037686
		outer loop
			vertex 5.703972339630127 0.45194023847579956 -2.0695393085479736
			vertex 5.868810653686523 0 -3.1276228427886963
			vertex 5.868810653686523 -0.9750000238418579 -3.1276228427886963
		endloop
	endfacet
	facet normal -0.9880813337662604 0 -0.15393270563037686
		outer loop
			vertex 5.703972339630127 0.45194023847579956 -2.0695393085479736
			vertex 5.868810653686523 -0.9750000238418579 -3.1276228427886963
			vertex 5.703972339630127 -0.9750000238418579 -2.0695393085479736
		endloop
	endfacet
	facet normal 0 -1 0
		outer loop
			vertex 5.868810653686523 -0.9750000238418579 -3.1276228427886963
			vertex 5.703972339630127 -0.9750000238418579 -2.0695393085479736
			vertex 0 -0.9750000238418579 0
		endloop
	endfacet
	facet normal -0.9921912143577093 0 0.12472607646909403
		outer loop
			vertex 5.869025707244873 0.026918234303593636 -0.7565460205078125
			vertex 5.703972339630127 0.45194023847579956 -2.0695393085479736
			vertex 5.703972339630127 -0.9750000238418579 -2.0695393085479736
		endloop
	endfacet
	facet normal -0.9921912143577093 0 0.12472607646909402
		outer loop
			vertex 5.869025707244873 0.026918234303593636 -0.7565460205078125
			vertex 5.703972339630127 -0.9750000238418579 -2.0695393085479736
			vertex 5.869025707244873 -0.9750000238418579 -0.7565460205078125
		endloop
	endfacet
	facet normal 0 -1 0
		outer loop
			vertex 5.703972339630127 -0.9750000238418579 -2.0695393085479736
			vertex 5.869025707244873 -0.9750000238418579 -0.7565460205078125
			vertex 0 -0.9750000238418579 0
		endloop
	endfacet
	facet normal -0.9922609556168331 0 0.12417002842219815
		outer loop
			vertex 6.021609783172607 0 0.4627757668495178
			vertex 5.869025707244873 0.026918234303593636 -0.7565460205078125
			vertex 5.869025707244873 -0.9750000238418579 -0.7565460205078125
		endloop
	endfacet
	facet normal -0.9922609556168329 0 0.1241700284221981
		outer loop
			vertex 6.021609783172607 0 0.4627757668495178
			vertex 5.869025707244873 -0.9750000238418579 -0.7565460205078125
			vertex 6.021609783172607 -0.9750000238418579 0.4627757668495178
		endloop
	endfacet
	facet normal 0 -1 0
		outer loop
			vertex 5.869025707244873 -0.9750000238418579 -0.7565460205078125
			vertex 6.021609783172607 -0.9750000238418579 0.4627757668495178
			vertex 0 -0.9750000238418579 0
		endloop
	endfacet
	facet normal -0.9465131354177695 0 -0.32266528242378884
		outer loop
			vertex 5.590086936950684 0 1.7286139726638794
			vertex 6.021609783172607 0 0.4627757668495178
			vertex 6.021609783172607 -0.9750000238418579 0.4627757668495178
		endloop
	endfacet
	facet normal -0.9465131354177695 0 -0.32266528242378884
		outer loop
			vertex 5.590086936950684 0 1.7286139726638794
			vertex 6.021609783172607 -0.9750000238418579 0.4627757668495178
			vertex 5.590086936950684 -0.9750000238418579 1.7286139726638794
		endloop
	endfacet
	facet normal 0 -1 0
		outer loop
			vertex 6.021609783172607 -0.9750000238418579 0.4627757668495178
			vertex 5.590086936950684 -0.9750000238418579 1.7286139726638794
			vertex 0 -0.9750000238418579 0
		endloop
	endfacet
	facet normal -0.7539810073438938 0 -0.6568962174991474
		outer loop
			vertex 4.445717811584473 0 3.0421130657196045
			vertex 5.590086936950684 0 1.7286139726638794
			vertex 5.590086936950684 -0.9750000238418579 1.7286139726638794
		endloop
	endfacet
	facet normal -0.7539810073438938 0 -0.6568962174991474
		outer loop
			vertex 4.445717811584473 0 3.0421130657196045
			vertex 5.590086936950684 -0.9750000238418579 1.7286139726638794
			vertex 4.445717811584473 -0.9750000238418579 3.0421130657196045
		endloop
	endfacet
	facet normal 0 -1 0
		outer loop
			vertex 5.590086936950684 -0.9750000238418579 1.7286139726638794
			vertex 4.445717811584473 -0.9750000238418579 3.0421130657196045
			vertex 0 -0.9750000238418579 0
		endloop
	endfacet
endsolid exported
